<svg width="404" height="33" viewBox="0 0 404 33" fill="none" xmlns="http://www.w3.org/2000/svg">
<path d="M0 0H404V33H0V0Z" fill="#41518A"/>
<line x1="118.5" y1="6" x2="118.5" y2="26" stroke="#EEEEEE"/>
<path d="M55.4275 24.2C54.3075 24.2 53.2942 24.02 52.3875 23.66C51.4942 23.3 50.7208 22.7933 50.0675 22.14C49.4142 21.4867 48.9142 20.72 48.5675 19.84C48.2208 18.96 48.0475 18 48.0475 16.96C48.0475 15.92 48.2342 14.96 48.6075 14.08C48.9808 13.2 49.5008 12.4333 50.1675 11.78C50.8475 11.1267 51.6475 10.62 52.5675 10.26C53.5008 9.9 54.5208 9.72 55.6275 9.72C56.3875 9.72 57.1075 9.82 57.7875 10.02C58.4808 10.22 59.1075 10.4933 59.6675 10.84C60.2408 11.1867 60.7142 11.58 61.0875 12.02L58.9875 14.22C58.5075 13.7667 57.9875 13.4133 57.4275 13.16C56.8808 12.8933 56.2608 12.76 55.5675 12.76C54.9942 12.76 54.4608 12.8667 53.9675 13.08C53.4875 13.28 53.0608 13.5733 52.6875 13.96C52.3275 14.3333 52.0475 14.78 51.8475 15.3C51.6475 15.8067 51.5475 16.36 51.5475 16.96C51.5475 17.56 51.6542 18.1133 51.8675 18.62C52.0808 19.1267 52.3742 19.5733 52.7475 19.96C53.1342 20.3333 53.5808 20.6267 54.0875 20.84C54.5942 21.0533 55.1408 21.16 55.7275 21.16C56.1408 21.16 56.5208 21.1 56.8675 20.98C57.2275 20.8467 57.5408 20.6733 57.8075 20.46C58.0875 20.2333 58.3008 19.9733 58.4475 19.68C58.6075 19.3733 58.6875 19.0467 58.6875 18.7V18.18L59.1275 18.86H55.3075V16.16H61.8875C61.9142 16.3067 61.9342 16.5067 61.9475 16.76C61.9608 17.0133 61.9675 17.26 61.9675 17.5C61.9808 17.7267 61.9875 17.9067 61.9875 18.04C61.9875 18.9467 61.8208 19.78 61.4875 20.54C61.1675 21.2867 60.7075 21.9333 60.1075 22.48C59.5208 23.0267 58.8275 23.4533 58.0275 23.76C57.2275 24.0533 56.3608 24.2 55.4275 24.2ZM70.4725 24.12C69.3125 24.12 68.2792 23.8867 67.3725 23.42C66.4792 22.94 65.7725 22.2867 65.2525 21.46C64.7325 20.62 64.4725 19.6733 64.4725 18.62V9.98H67.9125V18.44C67.9125 18.9467 68.0258 19.4 68.2525 19.8C68.4792 20.2 68.7858 20.52 69.1725 20.76C69.5725 20.9867 70.0058 21.1 70.4725 21.1C70.9658 21.1 71.4125 20.9867 71.8125 20.76C72.2125 20.52 72.5258 20.2 72.7525 19.8C72.9925 19.4 73.1125 18.9467 73.1125 18.44V9.98H76.4325V18.62C76.4325 19.6733 76.1725 20.62 75.6525 21.46C75.1458 22.2867 74.4458 22.94 73.5525 23.42C72.6592 23.8867 71.6325 24.12 70.4725 24.12ZM79.5659 24V21.12H81.9259V12.88H79.5659V10H87.7059V12.88H85.3459V21.12H87.7059V24H79.5659ZM90.9197 24V10H94.3397V20.98H100.58V24H90.9197ZM104.487 24V13.02H100.367V10H112.167V13.02H107.907V24H104.487Z" fill="white"/>
<path d="M127.534 21.12C126.862 21.12 126.254 21.012 125.71 20.796C125.174 20.58 124.71 20.276 124.318 19.884C123.926 19.492 123.626 19.032 123.418 18.504C123.21 17.976 123.106 17.4 123.106 16.776C123.106 16.152 123.218 15.576 123.442 15.048C123.666 14.52 123.978 14.06 124.378 13.668C124.786 13.276 125.266 12.972 125.818 12.756C126.378 12.54 126.99 12.432 127.654 12.432C128.11 12.432 128.542 12.492 128.95 12.612C129.366 12.732 129.742 12.896 130.078 13.104C130.422 13.312 130.706 13.548 130.93 13.812L129.67 15.132C129.382 14.86 129.07 14.648 128.734 14.496C128.406 14.336 128.034 14.256 127.618 14.256C127.274 14.256 126.954 14.32 126.658 14.448C126.37 14.568 126.114 14.744 125.89 14.976C125.674 15.2 125.506 15.468 125.386 15.78C125.266 16.084 125.206 16.416 125.206 16.776C125.206 17.136 125.27 17.468 125.398 17.772C125.526 18.076 125.702 18.344 125.926 18.576C126.158 18.8 126.426 18.976 126.73 19.104C127.034 19.232 127.362 19.296 127.714 19.296C127.962 19.296 128.19 19.26 128.398 19.188C128.614 19.108 128.802 19.004 128.962 18.876C129.13 18.74 129.258 18.584 129.346 18.408C129.442 18.224 129.49 18.028 129.49 17.82V17.508L129.754 17.916H127.462V16.296H131.41C131.426 16.384 131.438 16.504 131.446 16.656C131.454 16.808 131.458 16.956 131.458 17.1C131.466 17.236 131.47 17.344 131.47 17.424C131.47 17.968 131.37 18.468 131.17 18.924C130.978 19.372 130.702 19.76 130.342 20.088C129.99 20.416 129.574 20.672 129.094 20.856C128.614 21.032 128.094 21.12 127.534 21.12ZM135.853 21.12C135.149 21.12 134.533 20.98 134.005 20.7C133.485 20.42 133.081 20.036 132.793 19.548C132.513 19.052 132.373 18.488 132.373 17.856C132.373 17.36 132.453 16.908 132.613 16.5C132.773 16.084 132.997 15.728 133.285 15.432C133.581 15.136 133.925 14.908 134.317 14.748C134.717 14.58 135.153 14.496 135.625 14.496C136.073 14.496 136.481 14.576 136.849 14.736C137.217 14.896 137.537 15.12 137.809 15.408C138.081 15.696 138.289 16.036 138.433 16.428C138.577 16.82 138.645 17.248 138.637 17.712L138.625 18.24H133.561L133.273 17.148H137.053L136.849 17.364V17.124C136.833 16.924 136.769 16.752 136.657 16.608C136.553 16.456 136.413 16.336 136.237 16.248C136.069 16.16 135.877 16.116 135.661 16.116C135.341 16.116 135.069 16.18 134.845 16.308C134.629 16.428 134.465 16.604 134.353 16.836C134.241 17.068 134.185 17.356 134.185 17.7C134.185 18.044 134.257 18.348 134.401 18.612C134.553 18.876 134.769 19.08 135.049 19.224C135.337 19.368 135.677 19.44 136.069 19.44C136.333 19.44 136.573 19.4 136.789 19.32C137.005 19.24 137.237 19.104 137.485 18.912L138.385 20.184C138.137 20.392 137.873 20.568 137.593 20.712C137.313 20.848 137.025 20.948 136.729 21.012C136.441 21.084 136.149 21.12 135.853 21.12ZM139.86 21V14.628H141.696L141.768 15.924L141.372 16.068C141.46 15.78 141.616 15.52 141.84 15.288C142.072 15.048 142.348 14.856 142.668 14.712C142.988 14.568 143.324 14.496 143.676 14.496C144.156 14.496 144.56 14.596 144.888 14.796C145.216 14.988 145.46 15.28 145.62 15.672C145.788 16.056 145.872 16.532 145.872 17.1V21H143.94V17.244C143.94 16.988 143.904 16.776 143.832 16.608C143.76 16.44 143.652 16.316 143.508 16.236C143.364 16.156 143.184 16.12 142.968 16.128C142.8 16.128 142.644 16.156 142.5 16.212C142.356 16.26 142.228 16.336 142.116 16.44C142.012 16.536 141.932 16.648 141.876 16.776C141.82 16.904 141.792 17.048 141.792 17.208V21H140.82C140.612 21 140.424 21 140.256 21C140.096 21 139.964 21 139.86 21ZM149.637 21.12C149.029 21.12 148.485 21.024 148.005 20.832C147.525 20.632 147.141 20.36 146.853 20.016L148.029 19.008C148.277 19.256 148.557 19.44 148.869 19.56C149.181 19.672 149.477 19.728 149.757 19.728C149.861 19.728 149.953 19.716 150.033 19.692C150.113 19.668 150.181 19.636 150.237 19.596C150.301 19.548 150.349 19.496 150.381 19.44C150.413 19.376 150.429 19.304 150.429 19.224C150.429 19.064 150.361 18.944 150.225 18.864C150.161 18.824 150.045 18.776 149.877 18.72C149.709 18.656 149.493 18.592 149.229 18.528C148.853 18.432 148.525 18.316 148.245 18.18C147.973 18.044 147.749 17.888 147.573 17.712C147.413 17.552 147.289 17.368 147.201 17.16C147.121 16.952 147.081 16.72 147.081 16.464C147.081 16.072 147.197 15.728 147.429 15.432C147.669 15.136 147.981 14.908 148.365 14.748C148.749 14.58 149.165 14.496 149.613 14.496C149.965 14.496 150.297 14.536 150.609 14.616C150.929 14.696 151.225 14.808 151.497 14.952C151.777 15.096 152.025 15.268 152.241 15.468L151.221 16.608C151.085 16.472 150.925 16.352 150.741 16.248C150.557 16.136 150.373 16.048 150.189 15.984C150.005 15.912 149.833 15.876 149.673 15.876C149.553 15.876 149.445 15.888 149.349 15.912C149.261 15.928 149.185 15.96 149.121 16.008C149.065 16.048 149.021 16.1 148.989 16.164C148.957 16.22 148.941 16.284 148.941 16.356C148.941 16.444 148.961 16.524 149.001 16.596C149.049 16.66 149.113 16.72 149.193 16.776C149.265 16.816 149.389 16.868 149.565 16.932C149.749 16.996 149.989 17.068 150.285 17.148C150.661 17.252 150.981 17.372 151.245 17.508C151.517 17.636 151.733 17.788 151.893 17.964C152.029 18.1 152.125 18.26 152.181 18.444C152.245 18.62 152.277 18.812 152.277 19.02C152.277 19.428 152.161 19.792 151.929 20.112C151.705 20.424 151.393 20.672 150.993 20.856C150.601 21.032 150.149 21.12 149.637 21.12ZM156.418 21.12C155.762 21.12 155.174 20.98 154.654 20.7C154.134 20.412 153.726 20.02 153.43 19.524C153.134 19.02 152.986 18.452 152.986 17.82C152.986 17.172 153.134 16.6 153.43 16.104C153.726 15.6 154.134 15.208 154.654 14.928C155.174 14.64 155.762 14.496 156.418 14.496C157.082 14.496 157.67 14.64 158.182 14.928C158.702 15.208 159.11 15.6 159.406 16.104C159.702 16.6 159.85 17.172 159.85 17.82C159.85 18.452 159.702 19.02 159.406 19.524C159.11 20.02 158.702 20.412 158.182 20.7C157.67 20.98 157.082 21.12 156.418 21.12ZM156.418 19.464C156.706 19.464 156.958 19.392 157.174 19.248C157.398 19.104 157.574 18.908 157.702 18.66C157.83 18.412 157.89 18.132 157.882 17.82C157.89 17.492 157.83 17.204 157.702 16.956C157.574 16.7 157.398 16.504 157.174 16.368C156.958 16.224 156.706 16.152 156.418 16.152C156.138 16.152 155.886 16.224 155.662 16.368C155.438 16.512 155.262 16.708 155.134 16.956C155.006 17.204 154.942 17.492 154.942 17.82C154.942 18.132 155.006 18.412 155.134 18.66C155.262 18.908 155.438 19.104 155.662 19.248C155.886 19.392 156.138 19.464 156.418 19.464ZM161.106 21V12.12H163.038V21H161.106ZM172.326 21.072C171.63 21.072 171.01 20.932 170.466 20.652C169.93 20.364 169.506 19.972 169.194 19.476C168.882 18.972 168.726 18.404 168.726 17.772V12.588H170.79V17.664C170.79 17.968 170.858 18.24 170.994 18.48C171.13 18.72 171.314 18.912 171.546 19.056C171.786 19.192 172.046 19.26 172.326 19.26C172.622 19.26 172.89 19.192 173.13 19.056C173.37 18.912 173.558 18.72 173.694 18.48C173.838 18.24 173.91 17.968 173.91 17.664V12.588H175.902V17.772C175.902 18.404 175.746 18.972 175.434 19.476C175.13 19.972 174.71 20.364 174.174 20.652C173.638 20.932 173.022 21.072 172.326 21.072ZM177.747 21V14.628H179.583L179.655 15.924L179.259 16.068C179.347 15.78 179.503 15.52 179.727 15.288C179.959 15.048 180.235 14.856 180.555 14.712C180.875 14.568 181.211 14.496 181.563 14.496C182.043 14.496 182.447 14.596 182.775 14.796C183.103 14.988 183.347 15.28 183.507 15.672C183.675 16.056 183.759 16.532 183.759 17.1V21H181.827V17.244C181.827 16.988 181.791 16.776 181.719 16.608C181.647 16.44 181.539 16.316 181.395 16.236C181.251 16.156 181.071 16.12 180.855 16.128C180.687 16.128 180.531 16.156 180.387 16.212C180.243 16.26 180.115 16.336 180.003 16.44C179.899 16.536 179.819 16.648 179.763 16.776C179.707 16.904 179.679 17.048 179.679 17.208V21H178.707C178.499 21 178.311 21 178.143 21C177.983 21 177.851 21 177.747 21ZM185.483 21V14.628H187.415V21H185.483ZM186.455 13.368C186.087 13.368 185.799 13.284 185.591 13.116C185.391 12.94 185.291 12.692 185.291 12.372C185.291 12.076 185.395 11.836 185.603 11.652C185.811 11.468 186.095 11.376 186.455 11.376C186.807 11.376 187.083 11.464 187.283 11.64C187.491 11.808 187.595 12.052 187.595 12.372C187.595 12.668 187.491 12.908 187.283 13.092C187.083 13.276 186.807 13.368 186.455 13.368ZM189.639 21V14.316C189.639 13.9 189.727 13.528 189.903 13.2C190.087 12.864 190.343 12.596 190.671 12.396C190.999 12.196 191.379 12.096 191.811 12.096C192.107 12.096 192.383 12.144 192.639 12.24C192.895 12.328 193.123 12.452 193.323 12.612L192.771 14.016C192.667 13.96 192.567 13.916 192.471 13.884C192.375 13.852 192.287 13.836 192.207 13.836C192.063 13.836 191.943 13.86 191.847 13.908C191.751 13.956 191.679 14.028 191.631 14.124C191.591 14.22 191.571 14.34 191.571 14.484V21H190.599C190.391 21 190.203 21 190.035 21C189.875 21 189.743 21 189.639 21ZM188.703 16.416V14.808H192.879V16.416H188.703ZM194.079 21V14.628H196.011V21H194.079ZM195.051 13.368C194.683 13.368 194.395 13.284 194.187 13.116C193.987 12.94 193.887 12.692 193.887 12.372C193.887 12.076 193.991 11.836 194.199 11.652C194.407 11.468 194.691 11.376 195.051 11.376C195.403 11.376 195.679 11.464 195.879 11.64C196.087 11.808 196.191 12.052 196.191 12.372C196.191 12.668 196.087 12.908 195.879 13.092C195.679 13.276 195.403 13.368 195.051 13.368ZM200.857 21.12C200.153 21.12 199.537 20.98 199.009 20.7C198.489 20.42 198.085 20.036 197.797 19.548C197.517 19.052 197.377 18.488 197.377 17.856C197.377 17.36 197.457 16.908 197.617 16.5C197.777 16.084 198.001 15.728 198.289 15.432C198.585 15.136 198.929 14.908 199.321 14.748C199.721 14.58 200.157 14.496 200.629 14.496C201.077 14.496 201.485 14.576 201.853 14.736C202.221 14.896 202.541 15.12 202.813 15.408C203.085 15.696 203.293 16.036 203.437 16.428C203.581 16.82 203.649 17.248 203.641 17.712L203.629 18.24H198.565L198.277 17.148H202.057L201.853 17.364V17.124C201.837 16.924 201.773 16.752 201.661 16.608C201.557 16.456 201.417 16.336 201.241 16.248C201.073 16.16 200.881 16.116 200.665 16.116C200.345 16.116 200.073 16.18 199.849 16.308C199.633 16.428 199.469 16.604 199.357 16.836C199.245 17.068 199.189 17.356 199.189 17.7C199.189 18.044 199.261 18.348 199.405 18.612C199.557 18.876 199.773 19.08 200.053 19.224C200.341 19.368 200.681 19.44 201.073 19.44C201.337 19.44 201.577 19.4 201.793 19.32C202.009 19.24 202.241 19.104 202.489 18.912L203.389 20.184C203.141 20.392 202.877 20.568 202.597 20.712C202.317 20.848 202.029 20.948 201.733 21.012C201.445 21.084 201.153 21.12 200.857 21.12ZM207.288 21.12C206.744 21.12 206.252 20.98 205.812 20.7C205.38 20.42 205.04 20.032 204.792 19.536C204.544 19.032 204.42 18.46 204.42 17.82C204.42 17.18 204.544 16.612 204.792 16.116C205.04 15.612 205.38 15.216 205.812 14.928C206.252 14.64 206.748 14.496 207.3 14.496C207.588 14.496 207.864 14.54 208.128 14.628C208.4 14.716 208.64 14.836 208.848 14.988C209.064 15.14 209.24 15.312 209.376 15.504C209.512 15.696 209.596 15.9 209.628 16.116L209.16 16.224V12.12H211.092V21H209.292L209.184 19.56L209.568 19.632C209.552 19.824 209.48 20.012 209.352 20.196C209.224 20.372 209.052 20.532 208.836 20.676C208.628 20.812 208.392 20.92 208.128 21C207.864 21.08 207.584 21.12 207.288 21.12ZM207.768 19.524C208.064 19.524 208.316 19.456 208.524 19.32C208.74 19.176 208.908 18.976 209.028 18.72C209.148 18.464 209.208 18.164 209.208 17.82C209.208 17.468 209.148 17.164 209.028 16.908C208.908 16.652 208.74 16.456 208.524 16.32C208.316 16.176 208.064 16.104 207.768 16.104C207.48 16.104 207.228 16.176 207.012 16.32C206.804 16.456 206.64 16.652 206.52 16.908C206.4 17.164 206.34 17.468 206.34 17.82C206.34 18.164 206.4 18.464 206.52 18.72C206.64 18.976 206.804 19.176 207.012 19.32C207.228 19.456 207.48 19.524 207.768 19.524ZM216.583 21V19.272H217.999V14.328H216.583V12.6H221.467V14.328H220.051V19.272H221.467V21H216.583ZM223.204 21V14.628H225.04L225.112 15.924L224.716 16.068C224.804 15.78 224.96 15.52 225.184 15.288C225.416 15.048 225.692 14.856 226.012 14.712C226.332 14.568 226.668 14.496 227.02 14.496C227.5 14.496 227.904 14.596 228.232 14.796C228.56 14.988 228.804 15.28 228.964 15.672C229.132 16.056 229.216 16.532 229.216 17.1V21H227.284V17.244C227.284 16.988 227.248 16.776 227.176 16.608C227.104 16.44 226.996 16.316 226.852 16.236C226.708 16.156 226.528 16.12 226.312 16.128C226.144 16.128 225.988 16.156 225.844 16.212C225.7 16.26 225.572 16.336 225.46 16.44C225.356 16.536 225.276 16.648 225.22 16.776C225.164 16.904 225.136 17.048 225.136 17.208V21H224.164C223.956 21 223.768 21 223.6 21C223.44 21 223.308 21 223.204 21ZM233.628 21.12C233.012 21.12 232.456 20.976 231.96 20.688C231.472 20.4 231.088 20.008 230.808 19.512C230.528 19.008 230.388 18.444 230.388 17.82C230.388 17.18 230.528 16.612 230.808 16.116C231.088 15.612 231.472 15.216 231.96 14.928C232.456 14.64 233.012 14.496 233.628 14.496C234.196 14.496 234.716 14.6 235.188 14.808C235.668 15.008 236.044 15.284 236.316 15.636L235.272 16.908C235.168 16.772 235.04 16.648 234.888 16.536C234.736 16.424 234.568 16.336 234.384 16.272C234.2 16.208 234.008 16.176 233.808 16.176C233.504 16.176 233.236 16.248 233.004 16.392C232.772 16.528 232.592 16.72 232.464 16.968C232.336 17.216 232.272 17.496 232.272 17.808C232.272 18.112 232.336 18.388 232.464 18.636C232.6 18.876 232.784 19.068 233.016 19.212C233.248 19.356 233.508 19.428 233.796 19.428C234.004 19.428 234.196 19.4 234.372 19.344C234.548 19.288 234.708 19.208 234.852 19.104C235.004 19 235.144 18.876 235.272 18.732L236.316 20.004C236.044 20.34 235.664 20.612 235.176 20.82C234.688 21.02 234.172 21.12 233.628 21.12ZM237.372 21V12.12H239.304V21H237.372ZM243.129 21.12C242.665 21.12 242.265 21.02 241.929 20.82C241.593 20.612 241.333 20.32 241.149 19.944C240.973 19.56 240.885 19.1 240.885 18.564V14.628H242.817V18.276C242.817 18.668 242.909 18.976 243.093 19.2C243.285 19.416 243.549 19.524 243.885 19.524C244.053 19.524 244.205 19.5 244.341 19.452C244.477 19.396 244.593 19.32 244.689 19.224C244.793 19.12 244.873 19 244.929 18.864C244.985 18.728 245.013 18.58 245.013 18.42V14.628H246.945V21H245.133L245.061 19.692L245.409 19.548C245.321 19.844 245.161 20.112 244.929 20.352C244.705 20.592 244.437 20.78 244.125 20.916C243.813 21.052 243.481 21.12 243.129 21.12ZM250.816 21.12C250.208 21.12 249.664 21.024 249.184 20.832C248.704 20.632 248.32 20.36 248.032 20.016L249.208 19.008C249.456 19.256 249.736 19.44 250.048 19.56C250.36 19.672 250.656 19.728 250.936 19.728C251.04 19.728 251.132 19.716 251.212 19.692C251.292 19.668 251.36 19.636 251.416 19.596C251.48 19.548 251.528 19.496 251.56 19.44C251.592 19.376 251.608 19.304 251.608 19.224C251.608 19.064 251.54 18.944 251.404 18.864C251.34 18.824 251.224 18.776 251.056 18.72C250.888 18.656 250.672 18.592 250.408 18.528C250.032 18.432 249.704 18.316 249.424 18.18C249.152 18.044 248.928 17.888 248.752 17.712C248.592 17.552 248.468 17.368 248.38 17.16C248.3 16.952 248.26 16.72 248.26 16.464C248.26 16.072 248.376 15.728 248.608 15.432C248.848 15.136 249.16 14.908 249.544 14.748C249.928 14.58 250.344 14.496 250.792 14.496C251.144 14.496 251.476 14.536 251.788 14.616C252.108 14.696 252.404 14.808 252.676 14.952C252.956 15.096 253.204 15.268 253.42 15.468L252.4 16.608C252.264 16.472 252.104 16.352 251.92 16.248C251.736 16.136 251.552 16.048 251.368 15.984C251.184 15.912 251.012 15.876 250.852 15.876C250.732 15.876 250.624 15.888 250.528 15.912C250.44 15.928 250.364 15.96 250.3 16.008C250.244 16.048 250.2 16.1 250.168 16.164C250.136 16.22 250.12 16.284 250.12 16.356C250.12 16.444 250.14 16.524 250.18 16.596C250.228 16.66 250.292 16.72 250.372 16.776C250.444 16.816 250.568 16.868 250.744 16.932C250.928 16.996 251.168 17.068 251.464 17.148C251.84 17.252 252.16 17.372 252.424 17.508C252.696 17.636 252.912 17.788 253.072 17.964C253.208 18.1 253.304 18.26 253.36 18.444C253.424 18.62 253.456 18.812 253.456 19.02C253.456 19.428 253.34 19.792 253.108 20.112C252.884 20.424 252.572 20.672 252.172 20.856C251.78 21.032 251.328 21.12 250.816 21.12ZM254.718 21V14.628H256.65V21H254.718ZM255.69 13.368C255.322 13.368 255.034 13.284 254.826 13.116C254.626 12.94 254.526 12.692 254.526 12.372C254.526 12.076 254.63 11.836 254.838 11.652C255.046 11.468 255.33 11.376 255.69 11.376C256.042 11.376 256.318 11.464 256.518 11.64C256.726 11.808 256.83 12.052 256.83 12.372C256.83 12.668 256.726 12.908 256.518 13.092C256.318 13.276 256.042 13.368 255.69 13.368ZM260.433 21L257.769 14.628H259.893L261.477 19.344L261.009 19.404L262.641 14.628H264.753L261.945 21H260.433ZM268.615 21.12C267.911 21.12 267.295 20.98 266.767 20.7C266.247 20.42 265.843 20.036 265.555 19.548C265.275 19.052 265.135 18.488 265.135 17.856C265.135 17.36 265.215 16.908 265.375 16.5C265.535 16.084 265.759 15.728 266.047 15.432C266.343 15.136 266.687 14.908 267.079 14.748C267.479 14.58 267.915 14.496 268.387 14.496C268.835 14.496 269.243 14.576 269.611 14.736C269.979 14.896 270.299 15.12 270.571 15.408C270.843 15.696 271.051 16.036 271.195 16.428C271.339 16.82 271.407 17.248 271.399 17.712L271.387 18.24H266.323L266.035 17.148H269.815L269.611 17.364V17.124C269.595 16.924 269.531 16.752 269.419 16.608C269.315 16.456 269.175 16.336 268.999 16.248C268.831 16.16 268.639 16.116 268.423 16.116C268.103 16.116 267.831 16.18 267.607 16.308C267.391 16.428 267.227 16.604 267.115 16.836C267.003 17.068 266.947 17.356 266.947 17.7C266.947 18.044 267.019 18.348 267.163 18.612C267.315 18.876 267.531 19.08 267.811 19.224C268.099 19.368 268.439 19.44 268.831 19.44C269.095 19.44 269.335 19.4 269.551 19.32C269.767 19.24 269.999 19.104 270.247 18.912L271.147 20.184C270.899 20.392 270.635 20.568 270.355 20.712C270.075 20.848 269.787 20.948 269.491 21.012C269.203 21.084 268.911 21.12 268.615 21.12ZM276.646 21V12.6H278.698V19.188H282.442V21H276.646ZM286.939 21V17.088C286.939 16.76 286.847 16.52 286.663 16.368C286.487 16.208 286.239 16.128 285.919 16.128C285.607 16.128 285.327 16.188 285.079 16.308C284.839 16.42 284.607 16.608 284.383 16.872L283.231 15.756C283.615 15.364 284.055 15.056 284.551 14.832C285.047 14.608 285.587 14.496 286.171 14.496C286.707 14.496 287.171 14.576 287.563 14.736C287.955 14.896 288.259 15.14 288.475 15.468C288.691 15.796 288.799 16.212 288.799 16.716V21H286.939ZM285.283 21.12C284.883 21.12 284.519 21.04 284.191 20.88C283.871 20.72 283.615 20.5 283.423 20.22C283.239 19.932 283.147 19.596 283.147 19.212C283.147 18.884 283.207 18.596 283.327 18.348C283.447 18.1 283.623 17.896 283.855 17.736C284.095 17.568 284.391 17.444 284.743 17.364C285.103 17.276 285.519 17.232 285.991 17.232H287.923L287.815 18.444H286.039C285.871 18.444 285.723 18.46 285.595 18.492C285.467 18.516 285.359 18.56 285.271 18.624C285.183 18.68 285.115 18.748 285.067 18.828C285.027 18.908 285.007 19.004 285.007 19.116C285.007 19.236 285.039 19.34 285.103 19.428C285.167 19.516 285.251 19.584 285.355 19.632C285.467 19.68 285.595 19.704 285.739 19.704C285.947 19.704 286.143 19.672 286.327 19.608C286.519 19.536 286.687 19.436 286.831 19.308C286.983 19.18 287.103 19.032 287.191 18.864L287.527 19.728C287.359 20 287.155 20.24 286.915 20.448C286.683 20.656 286.427 20.82 286.147 20.94C285.875 21.06 285.587 21.12 285.283 21.12ZM290.34 21V14.628H292.176L292.248 15.924L291.852 16.068C291.94 15.78 292.096 15.52 292.32 15.288C292.552 15.048 292.828 14.856 293.148 14.712C293.468 14.568 293.804 14.496 294.156 14.496C294.636 14.496 295.04 14.596 295.368 14.796C295.696 14.988 295.94 15.28 296.1 15.672C296.268 16.056 296.352 16.532 296.352 17.1V21H294.42V17.244C294.42 16.988 294.384 16.776 294.312 16.608C294.24 16.44 294.132 16.316 293.988 16.236C293.844 16.156 293.664 16.12 293.448 16.128C293.28 16.128 293.124 16.156 292.98 16.212C292.836 16.26 292.708 16.336 292.596 16.44C292.492 16.536 292.412 16.648 292.356 16.776C292.3 16.904 292.272 17.048 292.272 17.208V21H291.3C291.092 21 290.904 21 290.736 21C290.576 21 290.444 21 290.34 21ZM300.885 23.76C300.373 23.76 299.857 23.684 299.337 23.532C298.825 23.388 298.409 23.196 298.089 22.956L298.761 21.588C299.017 21.764 299.305 21.9 299.625 21.996C299.953 22.1 300.293 22.152 300.645 22.152C301.053 22.152 301.385 22.092 301.641 21.972C301.897 21.852 302.085 21.672 302.205 21.432C302.333 21.192 302.397 20.892 302.397 20.532V19.476L302.757 19.548C302.709 19.796 302.573 20.028 302.349 20.244C302.133 20.46 301.865 20.632 301.545 20.76C301.225 20.888 300.889 20.952 300.537 20.952C299.961 20.952 299.445 20.82 298.989 20.556C298.533 20.284 298.173 19.912 297.909 19.44C297.653 18.96 297.525 18.408 297.525 17.784C297.525 17.144 297.653 16.576 297.909 16.08C298.173 15.584 298.529 15.196 298.977 14.916C299.425 14.636 299.929 14.496 300.489 14.496C300.721 14.496 300.945 14.524 301.161 14.58C301.385 14.628 301.589 14.7 301.773 14.796C301.965 14.892 302.133 15 302.277 15.12C302.429 15.24 302.553 15.372 302.649 15.516C302.745 15.66 302.805 15.804 302.829 15.948L302.433 16.068L302.505 14.628H304.341V20.472C304.341 20.992 304.261 21.456 304.101 21.864C303.949 22.272 303.721 22.616 303.417 22.896C303.121 23.176 302.761 23.388 302.337 23.532C301.913 23.684 301.429 23.76 300.885 23.76ZM300.933 19.452C301.245 19.452 301.513 19.384 301.737 19.248C301.969 19.112 302.145 18.92 302.265 18.672C302.393 18.424 302.457 18.136 302.457 17.808C302.457 17.464 302.393 17.168 302.265 16.92C302.145 16.672 301.969 16.48 301.737 16.344C301.513 16.2 301.245 16.128 300.933 16.128C300.637 16.128 300.377 16.2 300.153 16.344C299.929 16.48 299.753 16.672 299.625 16.92C299.505 17.168 299.445 17.46 299.445 17.796C299.445 18.132 299.505 18.424 299.625 18.672C299.753 18.92 299.929 19.112 300.153 19.248C300.377 19.384 300.637 19.452 300.933 19.452ZM308.087 21.12C307.623 21.12 307.223 21.02 306.887 20.82C306.551 20.612 306.291 20.32 306.107 19.944C305.931 19.56 305.843 19.1 305.843 18.564V14.628H307.775V18.276C307.775 18.668 307.867 18.976 308.051 19.2C308.243 19.416 308.507 19.524 308.843 19.524C309.011 19.524 309.163 19.5 309.299 19.452C309.435 19.396 309.551 19.32 309.647 19.224C309.751 19.12 309.831 19 309.887 18.864C309.943 18.728 309.971 18.58 309.971 18.42V14.628H311.903V21H310.091L310.019 19.692L310.367 19.548C310.279 19.844 310.119 20.112 309.887 20.352C309.663 20.592 309.395 20.78 309.083 20.916C308.771 21.052 308.439 21.12 308.087 21.12ZM317.021 21V17.088C317.021 16.76 316.929 16.52 316.745 16.368C316.569 16.208 316.321 16.128 316.001 16.128C315.689 16.128 315.409 16.188 315.161 16.308C314.921 16.42 314.689 16.608 314.465 16.872L313.313 15.756C313.697 15.364 314.137 15.056 314.633 14.832C315.129 14.608 315.669 14.496 316.253 14.496C316.789 14.496 317.253 14.576 317.645 14.736C318.037 14.896 318.341 15.14 318.557 15.468C318.773 15.796 318.881 16.212 318.881 16.716V21H317.021ZM315.365 21.12C314.965 21.12 314.601 21.04 314.273 20.88C313.953 20.72 313.697 20.5 313.505 20.22C313.321 19.932 313.229 19.596 313.229 19.212C313.229 18.884 313.289 18.596 313.409 18.348C313.529 18.1 313.705 17.896 313.937 17.736C314.177 17.568 314.473 17.444 314.825 17.364C315.185 17.276 315.601 17.232 316.073 17.232H318.005L317.897 18.444H316.121C315.953 18.444 315.805 18.46 315.677 18.492C315.549 18.516 315.441 18.56 315.353 18.624C315.265 18.68 315.197 18.748 315.149 18.828C315.109 18.908 315.089 19.004 315.089 19.116C315.089 19.236 315.121 19.34 315.185 19.428C315.249 19.516 315.333 19.584 315.437 19.632C315.549 19.68 315.677 19.704 315.821 19.704C316.029 19.704 316.225 19.672 316.409 19.608C316.601 19.536 316.769 19.436 316.913 19.308C317.065 19.18 317.185 19.032 317.273 18.864L317.609 19.728C317.441 20 317.237 20.24 316.997 20.448C316.765 20.656 316.509 20.82 316.229 20.94C315.957 21.06 315.669 21.12 315.365 21.12ZM323.338 23.76C322.826 23.76 322.31 23.684 321.79 23.532C321.278 23.388 320.862 23.196 320.542 22.956L321.214 21.588C321.47 21.764 321.758 21.9 322.078 21.996C322.406 22.1 322.746 22.152 323.098 22.152C323.506 22.152 323.838 22.092 324.094 21.972C324.35 21.852 324.538 21.672 324.658 21.432C324.786 21.192 324.85 20.892 324.85 20.532V19.476L325.21 19.548C325.162 19.796 325.026 20.028 324.802 20.244C324.586 20.46 324.318 20.632 323.998 20.76C323.678 20.888 323.342 20.952 322.99 20.952C322.414 20.952 321.898 20.82 321.442 20.556C320.986 20.284 320.626 19.912 320.362 19.44C320.106 18.96 319.978 18.408 319.978 17.784C319.978 17.144 320.106 16.576 320.362 16.08C320.626 15.584 320.982 15.196 321.43 14.916C321.878 14.636 322.382 14.496 322.942 14.496C323.174 14.496 323.398 14.524 323.614 14.58C323.838 14.628 324.042 14.7 324.226 14.796C324.418 14.892 324.586 15 324.73 15.12C324.882 15.24 325.006 15.372 325.102 15.516C325.198 15.66 325.258 15.804 325.282 15.948L324.886 16.068L324.958 14.628H326.794V20.472C326.794 20.992 326.714 21.456 326.554 21.864C326.402 22.272 326.174 22.616 325.87 22.896C325.574 23.176 325.214 23.388 324.79 23.532C324.366 23.684 323.882 23.76 323.338 23.76ZM323.386 19.452C323.698 19.452 323.966 19.384 324.19 19.248C324.422 19.112 324.598 18.92 324.718 18.672C324.846 18.424 324.91 18.136 324.91 17.808C324.91 17.464 324.846 17.168 324.718 16.92C324.598 16.672 324.422 16.48 324.19 16.344C323.966 16.2 323.698 16.128 323.386 16.128C323.09 16.128 322.83 16.2 322.606 16.344C322.382 16.48 322.206 16.672 322.078 16.92C321.958 17.168 321.898 17.46 321.898 17.796C321.898 18.132 321.958 18.424 322.078 18.672C322.206 18.92 322.382 19.112 322.606 19.248C322.83 19.384 323.09 19.452 323.386 19.452ZM331.497 21.12C330.793 21.12 330.177 20.98 329.649 20.7C329.129 20.42 328.725 20.036 328.437 19.548C328.157 19.052 328.017 18.488 328.017 17.856C328.017 17.36 328.097 16.908 328.257 16.5C328.417 16.084 328.641 15.728 328.929 15.432C329.225 15.136 329.569 14.908 329.961 14.748C330.361 14.58 330.797 14.496 331.269 14.496C331.717 14.496 332.125 14.576 332.493 14.736C332.861 14.896 333.181 15.12 333.453 15.408C333.725 15.696 333.933 16.036 334.077 16.428C334.221 16.82 334.289 17.248 334.281 17.712L334.269 18.24H329.205L328.917 17.148H332.697L332.493 17.364V17.124C332.477 16.924 332.413 16.752 332.301 16.608C332.197 16.456 332.057 16.336 331.881 16.248C331.713 16.16 331.521 16.116 331.305 16.116C330.985 16.116 330.713 16.18 330.489 16.308C330.273 16.428 330.109 16.604 329.997 16.836C329.885 17.068 329.829 17.356 329.829 17.7C329.829 18.044 329.901 18.348 330.045 18.612C330.197 18.876 330.413 19.08 330.693 19.224C330.981 19.368 331.321 19.44 331.713 19.44C331.977 19.44 332.217 19.4 332.433 19.32C332.649 19.24 332.881 19.104 333.129 18.912L334.029 20.184C333.781 20.392 333.517 20.568 333.237 20.712C332.957 20.848 332.669 20.948 332.373 21.012C332.085 21.084 331.793 21.12 331.497 21.12ZM341.352 21V14.412H338.88V12.6H345.96V14.412H343.404V21H341.352ZM346.485 21V14.628H348.321L348.405 16.704L348.045 16.296C348.149 15.96 348.309 15.656 348.525 15.384C348.741 15.112 348.997 14.896 349.293 14.736C349.597 14.576 349.913 14.496 350.241 14.496C350.385 14.496 350.517 14.508 350.637 14.532C350.765 14.548 350.877 14.576 350.973 14.616L350.457 16.74C350.369 16.692 350.249 16.652 350.097 16.62C349.953 16.58 349.801 16.56 349.641 16.56C349.465 16.56 349.301 16.592 349.149 16.656C349.005 16.712 348.877 16.796 348.765 16.908C348.661 17.02 348.577 17.152 348.513 17.304C348.457 17.456 348.429 17.628 348.429 17.82V21H346.485ZM355.084 21V17.088C355.084 16.76 354.992 16.52 354.808 16.368C354.632 16.208 354.384 16.128 354.064 16.128C353.752 16.128 353.472 16.188 353.224 16.308C352.984 16.42 352.752 16.608 352.528 16.872L351.376 15.756C351.76 15.364 352.2 15.056 352.696 14.832C353.192 14.608 353.732 14.496 354.316 14.496C354.852 14.496 355.316 14.576 355.708 14.736C356.1 14.896 356.404 15.14 356.62 15.468C356.836 15.796 356.944 16.212 356.944 16.716V21H355.084ZM353.428 21.12C353.028 21.12 352.664 21.04 352.336 20.88C352.016 20.72 351.76 20.5 351.568 20.22C351.384 19.932 351.292 19.596 351.292 19.212C351.292 18.884 351.352 18.596 351.472 18.348C351.592 18.1 351.768 17.896 352 17.736C352.24 17.568 352.536 17.444 352.888 17.364C353.248 17.276 353.664 17.232 354.136 17.232H356.068L355.96 18.444H354.184C354.016 18.444 353.868 18.46 353.74 18.492C353.612 18.516 353.504 18.56 353.416 18.624C353.328 18.68 353.26 18.748 353.212 18.828C353.172 18.908 353.152 19.004 353.152 19.116C353.152 19.236 353.184 19.34 353.248 19.428C353.312 19.516 353.396 19.584 353.5 19.632C353.612 19.68 353.74 19.704 353.884 19.704C354.092 19.704 354.288 19.672 354.472 19.608C354.664 19.536 354.832 19.436 354.976 19.308C355.128 19.18 355.248 19.032 355.336 18.864L355.672 19.728C355.504 20 355.3 20.24 355.06 20.448C354.828 20.656 354.572 20.82 354.292 20.94C354.02 21.06 353.732 21.12 353.428 21.12ZM358.485 21V14.628H360.321L360.393 15.924L359.997 16.068C360.085 15.78 360.241 15.52 360.465 15.288C360.697 15.048 360.973 14.856 361.293 14.712C361.613 14.568 361.949 14.496 362.301 14.496C362.781 14.496 363.185 14.596 363.513 14.796C363.841 14.988 364.085 15.28 364.245 15.672C364.413 16.056 364.497 16.532 364.497 17.1V21H362.565V17.244C362.565 16.988 362.529 16.776 362.457 16.608C362.385 16.44 362.277 16.316 362.133 16.236C361.989 16.156 361.809 16.12 361.593 16.128C361.425 16.128 361.269 16.156 361.125 16.212C360.981 16.26 360.853 16.336 360.741 16.44C360.637 16.536 360.557 16.648 360.501 16.776C360.445 16.904 360.417 17.048 360.417 17.208V21H359.445C359.237 21 359.049 21 358.881 21C358.721 21 358.589 21 358.485 21ZM368.262 21.12C367.654 21.12 367.11 21.024 366.63 20.832C366.15 20.632 365.766 20.36 365.478 20.016L366.654 19.008C366.902 19.256 367.182 19.44 367.494 19.56C367.806 19.672 368.102 19.728 368.382 19.728C368.486 19.728 368.578 19.716 368.658 19.692C368.738 19.668 368.806 19.636 368.862 19.596C368.926 19.548 368.974 19.496 369.006 19.44C369.038 19.376 369.054 19.304 369.054 19.224C369.054 19.064 368.986 18.944 368.85 18.864C368.786 18.824 368.67 18.776 368.502 18.72C368.334 18.656 368.118 18.592 367.854 18.528C367.478 18.432 367.15 18.316 366.87 18.18C366.598 18.044 366.374 17.888 366.198 17.712C366.038 17.552 365.914 17.368 365.826 17.16C365.746 16.952 365.706 16.72 365.706 16.464C365.706 16.072 365.822 15.728 366.054 15.432C366.294 15.136 366.606 14.908 366.99 14.748C367.374 14.58 367.79 14.496 368.238 14.496C368.59 14.496 368.922 14.536 369.234 14.616C369.554 14.696 369.85 14.808 370.122 14.952C370.402 15.096 370.65 15.268 370.866 15.468L369.846 16.608C369.71 16.472 369.55 16.352 369.366 16.248C369.182 16.136 368.998 16.048 368.814 15.984C368.63 15.912 368.458 15.876 368.298 15.876C368.178 15.876 368.07 15.888 367.974 15.912C367.886 15.928 367.81 15.96 367.746 16.008C367.69 16.048 367.646 16.1 367.614 16.164C367.582 16.22 367.566 16.284 367.566 16.356C367.566 16.444 367.586 16.524 367.626 16.596C367.674 16.66 367.738 16.72 367.818 16.776C367.89 16.816 368.014 16.868 368.19 16.932C368.374 16.996 368.614 17.068 368.91 17.148C369.286 17.252 369.606 17.372 369.87 17.508C370.142 17.636 370.358 17.788 370.518 17.964C370.654 18.1 370.75 18.26 370.806 18.444C370.87 18.62 370.902 18.812 370.902 19.02C370.902 19.428 370.786 19.792 370.554 20.112C370.33 20.424 370.018 20.672 369.618 20.856C369.226 21.032 368.774 21.12 368.262 21.12ZM372.055 21V12.12H373.987V21H372.055ZM378.978 21V17.088C378.978 16.76 378.886 16.52 378.702 16.368C378.526 16.208 378.278 16.128 377.958 16.128C377.646 16.128 377.366 16.188 377.118 16.308C376.878 16.42 376.646 16.608 376.422 16.872L375.27 15.756C375.654 15.364 376.094 15.056 376.59 14.832C377.086 14.608 377.626 14.496 378.21 14.496C378.746 14.496 379.21 14.576 379.602 14.736C379.994 14.896 380.298 15.14 380.514 15.468C380.73 15.796 380.838 16.212 380.838 16.716V21H378.978ZM377.322 21.12C376.922 21.12 376.558 21.04 376.23 20.88C375.91 20.72 375.654 20.5 375.462 20.22C375.278 19.932 375.186 19.596 375.186 19.212C375.186 18.884 375.246 18.596 375.366 18.348C375.486 18.1 375.662 17.896 375.894 17.736C376.134 17.568 376.43 17.444 376.782 17.364C377.142 17.276 377.558 17.232 378.03 17.232H379.962L379.854 18.444H378.078C377.91 18.444 377.762 18.46 377.634 18.492C377.506 18.516 377.398 18.56 377.31 18.624C377.222 18.68 377.154 18.748 377.106 18.828C377.066 18.908 377.046 19.004 377.046 19.116C377.046 19.236 377.078 19.34 377.142 19.428C377.206 19.516 377.29 19.584 377.394 19.632C377.506 19.68 377.634 19.704 377.778 19.704C377.986 19.704 378.182 19.672 378.366 19.608C378.558 19.536 378.726 19.436 378.87 19.308C379.022 19.18 379.142 19.032 379.23 18.864L379.566 19.728C379.398 20 379.194 20.24 378.954 20.448C378.722 20.656 378.466 20.82 378.186 20.94C377.914 21.06 377.626 21.12 377.322 21.12ZM382.907 21V13.02H384.839V21H382.907ZM381.779 16.32V14.628H386.063V16.32H381.779ZM390.102 21.12C389.446 21.12 388.858 20.98 388.338 20.7C387.818 20.412 387.41 20.02 387.114 19.524C386.818 19.02 386.67 18.452 386.67 17.82C386.67 17.172 386.818 16.6 387.114 16.104C387.41 15.6 387.818 15.208 388.338 14.928C388.858 14.64 389.446 14.496 390.102 14.496C390.766 14.496 391.354 14.64 391.866 14.928C392.386 15.208 392.794 15.6 393.09 16.104C393.386 16.6 393.534 17.172 393.534 17.82C393.534 18.452 393.386 19.02 393.09 19.524C392.794 20.02 392.386 20.412 391.866 20.7C391.354 20.98 390.766 21.12 390.102 21.12ZM390.102 19.464C390.39 19.464 390.642 19.392 390.858 19.248C391.082 19.104 391.258 18.908 391.386 18.66C391.514 18.412 391.574 18.132 391.566 17.82C391.574 17.492 391.514 17.204 391.386 16.956C391.258 16.7 391.082 16.504 390.858 16.368C390.642 16.224 390.39 16.152 390.102 16.152C389.822 16.152 389.57 16.224 389.346 16.368C389.122 16.512 388.946 16.708 388.818 16.956C388.69 17.204 388.626 17.492 388.626 17.82C388.626 18.132 388.69 18.412 388.818 18.66C388.946 18.908 389.122 19.104 389.346 19.248C389.57 19.392 389.822 19.464 390.102 19.464ZM394.79 21V14.628H396.626L396.71 16.704L396.35 16.296C396.454 15.96 396.614 15.656 396.83 15.384C397.046 15.112 397.302 14.896 397.598 14.736C397.902 14.576 398.218 14.496 398.546 14.496C398.69 14.496 398.822 14.508 398.942 14.532C399.07 14.548 399.182 14.576 399.278 14.616L398.762 16.74C398.674 16.692 398.554 16.652 398.402 16.62C398.258 16.58 398.106 16.56 397.946 16.56C397.77 16.56 397.606 16.592 397.454 16.656C397.31 16.712 397.182 16.796 397.07 16.908C396.966 17.02 396.882 17.152 396.818 17.304C396.762 17.456 396.734 17.628 396.734 17.82V21H394.79Z" fill="white"/>
<circle cx="26" cy="16" r="15" fill="#D9D9D9"/>
<ellipse cx="26.0669" cy="16.0457" rx="12.5732" ry="12.5833" fill="#EBEBEB"/>
<path d="M39.1402 16.2926L39.1402 15.7745L38.6224 15.7927L29.8744 16.1015L36.7738 9.24525L37.048 8.9728L36.8533 8.63876C35.9333 7.06031 34.3976 5.74255 32.7537 4.77722C31.1084 3.8111 29.3082 3.17051 27.8139 2.97956C24.874 2.60388 21.8961 3.20565 19.3513 4.69111C16.8063 6.17666 14.8397 8.46134 13.7638 11.1846C12.688 13.908 12.565 16.9129 13.4138 19.7237C14.2626 22.5344 16.0342 24.9895 18.4468 26.702C20.8593 28.4144 23.776 29.287 26.7358 29.1824C29.6956 29.0777 32.531 28.0016 34.7929 26.1224C35.9576 25.1549 37.0391 23.5856 37.8284 21.8385C38.6194 20.0879 39.1402 18.1078 39.1402 16.2926ZM30.8208 9.48371L24.1505 16.3036L18.0916 16.5174C18.012 15.3541 18.1907 14.182 18.6239 13.0854C19.2766 11.4331 20.4706 10.0451 22.0183 9.14161C23.5662 8.23809 25.3795 7.87106 27.1712 8.10002C28.1163 8.22079 28.7983 8.34525 29.4033 8.58771C29.8819 8.77949 30.3293 9.05239 30.8208 9.48371ZM19.7254 20.8278C19.5753 20.6319 19.4342 20.4294 19.3028 20.2208L20.3334 20.2062L19.7254 20.8278ZM26.5235 24.0226C25.1975 24.0695 23.8857 23.7944 22.7 23.2309L25.8222 20.1283L33.4025 20.0206C33.3215 20.1526 33.2224 20.3009 33.1031 20.4623C32.7231 20.9764 32.1697 21.5811 31.4388 22.1516L31.4328 22.1563L31.427 22.1611C30.0523 23.3032 28.3269 23.9589 26.5235 24.0226Z" fill="#E6AF2E" stroke="black"/>
</svg>
