<svg width="404" height="33" viewBox="0 0 404 33" fill="none" xmlns="http://www.w3.org/2000/svg">
<path d="M0 0H404V33H0V0Z" fill="#EBEBEB"/>
<line x1="118.5" y1="6" x2="118.5" y2="26" stroke="#41518A"/>
<path d="M55.4275 24.2C54.3075 24.2 53.2942 24.02 52.3875 23.66C51.4942 23.3 50.7208 22.7933 50.0675 22.14C49.4142 21.4867 48.9142 20.72 48.5675 19.84C48.2208 18.96 48.0475 18 48.0475 16.96C48.0475 15.92 48.2342 14.96 48.6075 14.08C48.9808 13.2 49.5008 12.4333 50.1675 11.78C50.8475 11.1267 51.6475 10.62 52.5675 10.26C53.5008 9.9 54.5208 9.72 55.6275 9.72C56.3875 9.72 57.1075 9.82 57.7875 10.02C58.4808 10.22 59.1075 10.4933 59.6675 10.84C60.2408 11.1867 60.7142 11.58 61.0875 12.02L58.9875 14.22C58.5075 13.7667 57.9875 13.4133 57.4275 13.16C56.8808 12.8933 56.2608 12.76 55.5675 12.76C54.9942 12.76 54.4608 12.8667 53.9675 13.08C53.4875 13.28 53.0608 13.5733 52.6875 13.96C52.3275 14.3333 52.0475 14.78 51.8475 15.3C51.6475 15.8067 51.5475 16.36 51.5475 16.96C51.5475 17.56 51.6542 18.1133 51.8675 18.62C52.0808 19.1267 52.3742 19.5733 52.7475 19.96C53.1342 20.3333 53.5808 20.6267 54.0875 20.84C54.5942 21.0533 55.1408 21.16 55.7275 21.16C56.1408 21.16 56.5208 21.1 56.8675 20.98C57.2275 20.8467 57.5408 20.6733 57.8075 20.46C58.0875 20.2333 58.3008 19.9733 58.4475 19.68C58.6075 19.3733 58.6875 19.0467 58.6875 18.7V18.18L59.1275 18.86H55.3075V16.16H61.8875C61.9142 16.3067 61.9342 16.5067 61.9475 16.76C61.9608 17.0133 61.9675 17.26 61.9675 17.5C61.9808 17.7267 61.9875 17.9067 61.9875 18.04C61.9875 18.9467 61.8208 19.78 61.4875 20.54C61.1675 21.2867 60.7075 21.9333 60.1075 22.48C59.5208 23.0267 58.8275 23.4533 58.0275 23.76C57.2275 24.0533 56.3608 24.2 55.4275 24.2ZM70.4725 24.12C69.3125 24.12 68.2792 23.8867 67.3725 23.42C66.4792 22.94 65.7725 22.2867 65.2525 21.46C64.7325 20.62 64.4725 19.6733 64.4725 18.62V9.98H67.9125V18.44C67.9125 18.9467 68.0258 19.4 68.2525 19.8C68.4792 20.2 68.7858 20.52 69.1725 20.76C69.5725 20.9867 70.0058 21.1 70.4725 21.1C70.9658 21.1 71.4125 20.9867 71.8125 20.76C72.2125 20.52 72.5258 20.2 72.7525 19.8C72.9925 19.4 73.1125 18.9467 73.1125 18.44V9.98H76.4325V18.62C76.4325 19.6733 76.1725 20.62 75.6525 21.46C75.1458 22.2867 74.4458 22.94 73.5525 23.42C72.6592 23.8867 71.6325 24.12 70.4725 24.12ZM79.5659 24V21.12H81.9259V12.88H79.5659V10H87.7059V12.88H85.3459V21.12H87.7059V24H79.5659ZM90.9197 24V10H94.3397V20.98H100.58V24H90.9197ZM104.487 24V13.02H100.367V10H112.167V13.02H107.907V24H104.487Z" fill="#41518A"/>
<path d="M126.344 21.12C125.672 21.12 125.064 21.012 124.52 20.796C123.984 20.58 123.52 20.276 123.128 19.884C122.736 19.492 122.436 19.032 122.228 18.504C122.02 17.976 121.916 17.4 121.916 16.776C121.916 16.152 122.028 15.576 122.252 15.048C122.476 14.52 122.788 14.06 123.188 13.668C123.596 13.276 124.076 12.972 124.628 12.756C125.188 12.54 125.8 12.432 126.464 12.432C126.92 12.432 127.352 12.492 127.76 12.612C128.176 12.732 128.552 12.896 128.888 13.104C129.232 13.312 129.516 13.548 129.74 13.812L128.48 15.132C128.192 14.86 127.88 14.648 127.544 14.496C127.216 14.336 126.844 14.256 126.428 14.256C126.084 14.256 125.764 14.32 125.468 14.448C125.18 14.568 124.924 14.744 124.7 14.976C124.484 15.2 124.316 15.468 124.196 15.78C124.076 16.084 124.016 16.416 124.016 16.776C124.016 17.136 124.08 17.468 124.208 17.772C124.336 18.076 124.512 18.344 124.736 18.576C124.968 18.8 125.236 18.976 125.54 19.104C125.844 19.232 126.172 19.296 126.524 19.296C126.772 19.296 127 19.26 127.208 19.188C127.424 19.108 127.612 19.004 127.772 18.876C127.94 18.74 128.068 18.584 128.156 18.408C128.252 18.224 128.3 18.028 128.3 17.82V17.508L128.564 17.916H126.272V16.296H130.22C130.236 16.384 130.248 16.504 130.256 16.656C130.264 16.808 130.268 16.956 130.268 17.1C130.276 17.236 130.28 17.344 130.28 17.424C130.28 17.968 130.18 18.468 129.98 18.924C129.788 19.372 129.512 19.76 129.152 20.088C128.8 20.416 128.384 20.672 127.904 20.856C127.424 21.032 126.904 21.12 126.344 21.12ZM133.799 21.12C133.335 21.12 132.935 21.02 132.599 20.82C132.263 20.612 132.003 20.32 131.819 19.944C131.643 19.56 131.555 19.1 131.555 18.564V14.628H133.487V18.276C133.487 18.668 133.579 18.976 133.763 19.2C133.955 19.416 134.219 19.524 134.555 19.524C134.723 19.524 134.875 19.5 135.011 19.452C135.147 19.396 135.263 19.32 135.359 19.224C135.463 19.12 135.543 19 135.599 18.864C135.655 18.728 135.683 18.58 135.683 18.42V14.628H137.615V21H135.803L135.731 19.692L136.079 19.548C135.991 19.844 135.831 20.112 135.599 20.352C135.375 20.592 135.107 20.78 134.795 20.916C134.483 21.052 134.151 21.12 133.799 21.12ZM139.446 21V14.628H141.378V21H139.446ZM140.418 13.368C140.05 13.368 139.762 13.284 139.554 13.116C139.354 12.94 139.254 12.692 139.254 12.372C139.254 12.076 139.358 11.836 139.566 11.652C139.774 11.468 140.058 11.376 140.418 11.376C140.77 11.376 141.046 11.464 141.246 11.64C141.454 11.808 141.558 12.052 141.558 12.372C141.558 12.668 141.454 12.908 141.246 13.092C141.046 13.276 140.77 13.368 140.418 13.368ZM145.618 21.12C145.074 21.12 144.582 20.98 144.142 20.7C143.71 20.42 143.37 20.032 143.122 19.536C142.874 19.032 142.75 18.46 142.75 17.82C142.75 17.18 142.874 16.612 143.122 16.116C143.37 15.612 143.71 15.216 144.142 14.928C144.582 14.64 145.078 14.496 145.63 14.496C145.918 14.496 146.194 14.54 146.458 14.628C146.73 14.716 146.97 14.836 147.178 14.988C147.394 15.14 147.57 15.312 147.706 15.504C147.842 15.696 147.926 15.9 147.958 16.116L147.49 16.224V12.12H149.422V21H147.622L147.514 19.56L147.898 19.632C147.882 19.824 147.81 20.012 147.682 20.196C147.554 20.372 147.382 20.532 147.166 20.676C146.958 20.812 146.722 20.92 146.458 21C146.194 21.08 145.914 21.12 145.618 21.12ZM146.098 19.524C146.394 19.524 146.646 19.456 146.854 19.32C147.07 19.176 147.238 18.976 147.358 18.72C147.478 18.464 147.538 18.164 147.538 17.82C147.538 17.468 147.478 17.164 147.358 16.908C147.238 16.652 147.07 16.456 146.854 16.32C146.646 16.176 146.394 16.104 146.098 16.104C145.81 16.104 145.558 16.176 145.342 16.32C145.134 16.456 144.97 16.652 144.85 16.908C144.73 17.164 144.67 17.468 144.67 17.82C144.67 18.164 144.73 18.464 144.85 18.72C144.97 18.976 145.134 19.176 145.342 19.32C145.558 19.456 145.81 19.524 146.098 19.524ZM154.081 21.12C153.377 21.12 152.761 20.98 152.233 20.7C151.713 20.42 151.309 20.036 151.021 19.548C150.741 19.052 150.601 18.488 150.601 17.856C150.601 17.36 150.681 16.908 150.841 16.5C151.001 16.084 151.225 15.728 151.513 15.432C151.809 15.136 152.153 14.908 152.545 14.748C152.945 14.58 153.381 14.496 153.853 14.496C154.301 14.496 154.709 14.576 155.077 14.736C155.445 14.896 155.765 15.12 156.037 15.408C156.309 15.696 156.517 16.036 156.661 16.428C156.805 16.82 156.873 17.248 156.865 17.712L156.853 18.24H151.789L151.501 17.148H155.281L155.077 17.364V17.124C155.061 16.924 154.997 16.752 154.885 16.608C154.781 16.456 154.641 16.336 154.465 16.248C154.297 16.16 154.105 16.116 153.889 16.116C153.569 16.116 153.297 16.18 153.073 16.308C152.857 16.428 152.693 16.604 152.581 16.836C152.469 17.068 152.413 17.356 152.413 17.7C152.413 18.044 152.485 18.348 152.629 18.612C152.781 18.876 152.997 19.08 153.277 19.224C153.565 19.368 153.905 19.44 154.297 19.44C154.561 19.44 154.801 19.4 155.017 19.32C155.233 19.24 155.465 19.104 155.713 18.912L156.613 20.184C156.365 20.392 156.101 20.568 155.821 20.712C155.541 20.848 155.253 20.948 154.957 21.012C154.669 21.084 154.377 21.12 154.081 21.12ZM160.512 21.12C159.968 21.12 159.476 20.98 159.036 20.7C158.604 20.42 158.264 20.032 158.016 19.536C157.768 19.032 157.644 18.46 157.644 17.82C157.644 17.18 157.768 16.612 158.016 16.116C158.264 15.612 158.604 15.216 159.036 14.928C159.476 14.64 159.972 14.496 160.524 14.496C160.812 14.496 161.088 14.54 161.352 14.628C161.624 14.716 161.864 14.836 162.072 14.988C162.288 15.14 162.464 15.312 162.6 15.504C162.736 15.696 162.82 15.9 162.852 16.116L162.384 16.224V12.12H164.316V21H162.516L162.408 19.56L162.792 19.632C162.776 19.824 162.704 20.012 162.576 20.196C162.448 20.372 162.276 20.532 162.06 20.676C161.852 20.812 161.616 20.92 161.352 21C161.088 21.08 160.808 21.12 160.512 21.12ZM160.992 19.524C161.288 19.524 161.54 19.456 161.748 19.32C161.964 19.176 162.132 18.976 162.252 18.72C162.372 18.464 162.432 18.164 162.432 17.82C162.432 17.468 162.372 17.164 162.252 16.908C162.132 16.652 161.964 16.456 161.748 16.32C161.54 16.176 161.288 16.104 160.992 16.104C160.704 16.104 160.452 16.176 160.236 16.32C160.028 16.456 159.864 16.652 159.744 16.908C159.624 17.164 159.564 17.468 159.564 17.82C159.564 18.164 159.624 18.464 159.744 18.72C159.864 18.976 160.028 19.176 160.236 19.32C160.452 19.456 160.704 19.524 160.992 19.524ZM173.516 21.072C172.82 21.072 172.2 20.932 171.656 20.652C171.12 20.364 170.696 19.972 170.384 19.476C170.072 18.972 169.916 18.404 169.916 17.772V12.588H171.98V17.664C171.98 17.968 172.048 18.24 172.184 18.48C172.32 18.72 172.504 18.912 172.736 19.056C172.976 19.192 173.236 19.26 173.516 19.26C173.812 19.26 174.08 19.192 174.32 19.056C174.56 18.912 174.748 18.72 174.884 18.48C175.028 18.24 175.1 17.968 175.1 17.664V12.588H177.092V17.772C177.092 18.404 176.936 18.972 176.624 19.476C176.32 19.972 175.9 20.364 175.364 20.652C174.828 20.932 174.212 21.072 173.516 21.072ZM178.936 21V14.628H180.772L180.844 15.924L180.448 16.068C180.536 15.78 180.692 15.52 180.916 15.288C181.148 15.048 181.424 14.856 181.744 14.712C182.064 14.568 182.4 14.496 182.752 14.496C183.232 14.496 183.636 14.596 183.964 14.796C184.292 14.988 184.536 15.28 184.696 15.672C184.864 16.056 184.948 16.532 184.948 17.1V21H183.016V17.244C183.016 16.988 182.98 16.776 182.908 16.608C182.836 16.44 182.728 16.316 182.584 16.236C182.44 16.156 182.26 16.12 182.044 16.128C181.876 16.128 181.72 16.156 181.576 16.212C181.432 16.26 181.304 16.336 181.192 16.44C181.088 16.536 181.008 16.648 180.952 16.776C180.896 16.904 180.868 17.048 180.868 17.208V21H179.896C179.688 21 179.5 21 179.332 21C179.172 21 179.04 21 178.936 21ZM186.673 21V14.628H188.605V21H186.673ZM187.645 13.368C187.277 13.368 186.989 13.284 186.781 13.116C186.581 12.94 186.481 12.692 186.481 12.372C186.481 12.076 186.585 11.836 186.793 11.652C187.001 11.468 187.285 11.376 187.645 11.376C187.997 11.376 188.273 11.464 188.473 11.64C188.681 11.808 188.785 12.052 188.785 12.372C188.785 12.668 188.681 12.908 188.473 13.092C188.273 13.276 187.997 13.368 187.645 13.368ZM190.828 21V14.316C190.828 13.9 190.916 13.528 191.092 13.2C191.276 12.864 191.532 12.596 191.86 12.396C192.188 12.196 192.568 12.096 193 12.096C193.296 12.096 193.572 12.144 193.828 12.24C194.084 12.328 194.312 12.452 194.512 12.612L193.96 14.016C193.856 13.96 193.756 13.916 193.66 13.884C193.564 13.852 193.476 13.836 193.396 13.836C193.252 13.836 193.132 13.86 193.036 13.908C192.94 13.956 192.868 14.028 192.82 14.124C192.78 14.22 192.76 14.34 192.76 14.484V21H191.788C191.58 21 191.392 21 191.224 21C191.064 21 190.932 21 190.828 21ZM189.892 16.416V14.808H194.068V16.416H189.892ZM195.268 21V14.628H197.2V21H195.268ZM196.24 13.368C195.872 13.368 195.584 13.284 195.376 13.116C195.176 12.94 195.076 12.692 195.076 12.372C195.076 12.076 195.18 11.836 195.388 11.652C195.596 11.468 195.88 11.376 196.24 11.376C196.592 11.376 196.868 11.464 197.068 11.64C197.276 11.808 197.38 12.052 197.38 12.372C197.38 12.668 197.276 12.908 197.068 13.092C196.868 13.276 196.592 13.368 196.24 13.368ZM202.046 21.12C201.342 21.12 200.726 20.98 200.198 20.7C199.678 20.42 199.274 20.036 198.986 19.548C198.706 19.052 198.566 18.488 198.566 17.856C198.566 17.36 198.646 16.908 198.806 16.5C198.966 16.084 199.19 15.728 199.478 15.432C199.774 15.136 200.118 14.908 200.51 14.748C200.91 14.58 201.346 14.496 201.818 14.496C202.266 14.496 202.674 14.576 203.042 14.736C203.41 14.896 203.73 15.12 204.002 15.408C204.274 15.696 204.482 16.036 204.626 16.428C204.77 16.82 204.838 17.248 204.83 17.712L204.818 18.24H199.754L199.466 17.148H203.246L203.042 17.364V17.124C203.026 16.924 202.962 16.752 202.85 16.608C202.746 16.456 202.606 16.336 202.43 16.248C202.262 16.16 202.07 16.116 201.854 16.116C201.534 16.116 201.262 16.18 201.038 16.308C200.822 16.428 200.658 16.604 200.546 16.836C200.434 17.068 200.378 17.356 200.378 17.7C200.378 18.044 200.45 18.348 200.594 18.612C200.746 18.876 200.962 19.08 201.242 19.224C201.53 19.368 201.87 19.44 202.262 19.44C202.526 19.44 202.766 19.4 202.982 19.32C203.198 19.24 203.43 19.104 203.678 18.912L204.578 20.184C204.33 20.392 204.066 20.568 203.786 20.712C203.506 20.848 203.218 20.948 202.922 21.012C202.634 21.084 202.342 21.12 202.046 21.12ZM208.477 21.12C207.933 21.12 207.441 20.98 207.001 20.7C206.569 20.42 206.229 20.032 205.981 19.536C205.733 19.032 205.609 18.46 205.609 17.82C205.609 17.18 205.733 16.612 205.981 16.116C206.229 15.612 206.569 15.216 207.001 14.928C207.441 14.64 207.937 14.496 208.489 14.496C208.777 14.496 209.053 14.54 209.317 14.628C209.589 14.716 209.829 14.836 210.037 14.988C210.253 15.14 210.429 15.312 210.565 15.504C210.701 15.696 210.785 15.9 210.817 16.116L210.349 16.224V12.12H212.281V21H210.481L210.373 19.56L210.757 19.632C210.741 19.824 210.669 20.012 210.541 20.196C210.413 20.372 210.241 20.532 210.025 20.676C209.817 20.812 209.581 20.92 209.317 21C209.053 21.08 208.773 21.12 208.477 21.12ZM208.957 19.524C209.253 19.524 209.505 19.456 209.713 19.32C209.929 19.176 210.097 18.976 210.217 18.72C210.337 18.464 210.397 18.164 210.397 17.82C210.397 17.468 210.337 17.164 210.217 16.908C210.097 16.652 209.929 16.456 209.713 16.32C209.505 16.176 209.253 16.104 208.957 16.104C208.669 16.104 208.417 16.176 208.201 16.32C207.993 16.456 207.829 16.652 207.709 16.908C207.589 17.164 207.529 17.468 207.529 17.82C207.529 18.164 207.589 18.464 207.709 18.72C207.829 18.976 207.993 19.176 208.201 19.32C208.417 19.456 208.669 19.524 208.957 19.524ZM217.773 21V19.272H219.189V14.328H217.773V12.6H222.657V14.328H221.241V19.272H222.657V21H217.773ZM224.393 21V14.628H226.229L226.301 15.924L225.905 16.068C225.993 15.78 226.149 15.52 226.373 15.288C226.605 15.048 226.881 14.856 227.201 14.712C227.521 14.568 227.857 14.496 228.209 14.496C228.689 14.496 229.093 14.596 229.421 14.796C229.749 14.988 229.993 15.28 230.153 15.672C230.321 16.056 230.405 16.532 230.405 17.1V21H228.473V17.244C228.473 16.988 228.437 16.776 228.365 16.608C228.293 16.44 228.185 16.316 228.041 16.236C227.897 16.156 227.717 16.12 227.501 16.128C227.333 16.128 227.177 16.156 227.033 16.212C226.889 16.26 226.761 16.336 226.649 16.44C226.545 16.536 226.465 16.648 226.409 16.776C226.353 16.904 226.325 17.048 226.325 17.208V21H225.353C225.145 21 224.957 21 224.789 21C224.629 21 224.497 21 224.393 21ZM234.818 21.12C234.202 21.12 233.646 20.976 233.15 20.688C232.662 20.4 232.278 20.008 231.998 19.512C231.718 19.008 231.578 18.444 231.578 17.82C231.578 17.18 231.718 16.612 231.998 16.116C232.278 15.612 232.662 15.216 233.15 14.928C233.646 14.64 234.202 14.496 234.818 14.496C235.386 14.496 235.906 14.6 236.378 14.808C236.858 15.008 237.234 15.284 237.506 15.636L236.462 16.908C236.358 16.772 236.23 16.648 236.078 16.536C235.926 16.424 235.758 16.336 235.574 16.272C235.39 16.208 235.198 16.176 234.998 16.176C234.694 16.176 234.426 16.248 234.194 16.392C233.962 16.528 233.782 16.72 233.654 16.968C233.526 17.216 233.462 17.496 233.462 17.808C233.462 18.112 233.526 18.388 233.654 18.636C233.79 18.876 233.974 19.068 234.206 19.212C234.438 19.356 234.698 19.428 234.986 19.428C235.194 19.428 235.386 19.4 235.562 19.344C235.738 19.288 235.898 19.208 236.042 19.104C236.194 19 236.334 18.876 236.462 18.732L237.506 20.004C237.234 20.34 236.854 20.612 236.366 20.82C235.878 21.02 235.362 21.12 234.818 21.12ZM238.561 21V12.12H240.493V21H238.561ZM244.319 21.12C243.855 21.12 243.455 21.02 243.119 20.82C242.783 20.612 242.523 20.32 242.339 19.944C242.163 19.56 242.075 19.1 242.075 18.564V14.628H244.007V18.276C244.007 18.668 244.099 18.976 244.283 19.2C244.475 19.416 244.739 19.524 245.075 19.524C245.243 19.524 245.395 19.5 245.531 19.452C245.667 19.396 245.783 19.32 245.879 19.224C245.983 19.12 246.063 19 246.119 18.864C246.175 18.728 246.203 18.58 246.203 18.42V14.628H248.135V21H246.323L246.251 19.692L246.599 19.548C246.511 19.844 246.351 20.112 246.119 20.352C245.895 20.592 245.627 20.78 245.315 20.916C245.003 21.052 244.671 21.12 244.319 21.12ZM252.006 21.12C251.398 21.12 250.854 21.024 250.374 20.832C249.894 20.632 249.51 20.36 249.222 20.016L250.398 19.008C250.646 19.256 250.926 19.44 251.238 19.56C251.55 19.672 251.846 19.728 252.126 19.728C252.23 19.728 252.322 19.716 252.402 19.692C252.482 19.668 252.55 19.636 252.606 19.596C252.67 19.548 252.718 19.496 252.75 19.44C252.782 19.376 252.798 19.304 252.798 19.224C252.798 19.064 252.73 18.944 252.594 18.864C252.53 18.824 252.414 18.776 252.246 18.72C252.078 18.656 251.862 18.592 251.598 18.528C251.222 18.432 250.894 18.316 250.614 18.18C250.342 18.044 250.118 17.888 249.942 17.712C249.782 17.552 249.658 17.368 249.57 17.16C249.49 16.952 249.45 16.72 249.45 16.464C249.45 16.072 249.566 15.728 249.798 15.432C250.038 15.136 250.35 14.908 250.734 14.748C251.118 14.58 251.534 14.496 251.982 14.496C252.334 14.496 252.666 14.536 252.978 14.616C253.298 14.696 253.594 14.808 253.866 14.952C254.146 15.096 254.394 15.268 254.61 15.468L253.59 16.608C253.454 16.472 253.294 16.352 253.11 16.248C252.926 16.136 252.742 16.048 252.558 15.984C252.374 15.912 252.202 15.876 252.042 15.876C251.922 15.876 251.814 15.888 251.718 15.912C251.63 15.928 251.554 15.96 251.49 16.008C251.434 16.048 251.39 16.1 251.358 16.164C251.326 16.22 251.31 16.284 251.31 16.356C251.31 16.444 251.33 16.524 251.37 16.596C251.418 16.66 251.482 16.72 251.562 16.776C251.634 16.816 251.758 16.868 251.934 16.932C252.118 16.996 252.358 17.068 252.654 17.148C253.03 17.252 253.35 17.372 253.614 17.508C253.886 17.636 254.102 17.788 254.262 17.964C254.398 18.1 254.494 18.26 254.55 18.444C254.614 18.62 254.646 18.812 254.646 19.02C254.646 19.428 254.53 19.792 254.298 20.112C254.074 20.424 253.762 20.672 253.362 20.856C252.97 21.032 252.518 21.12 252.006 21.12ZM255.907 21V14.628H257.839V21H255.907ZM256.879 13.368C256.511 13.368 256.223 13.284 256.015 13.116C255.815 12.94 255.715 12.692 255.715 12.372C255.715 12.076 255.819 11.836 256.027 11.652C256.235 11.468 256.519 11.376 256.879 11.376C257.231 11.376 257.507 11.464 257.707 11.64C257.915 11.808 258.019 12.052 258.019 12.372C258.019 12.668 257.915 12.908 257.707 13.092C257.507 13.276 257.231 13.368 256.879 13.368ZM261.623 21L258.959 14.628H261.083L262.667 19.344L262.199 19.404L263.831 14.628H265.943L263.135 21H261.623ZM269.804 21.12C269.1 21.12 268.484 20.98 267.956 20.7C267.436 20.42 267.032 20.036 266.744 19.548C266.464 19.052 266.324 18.488 266.324 17.856C266.324 17.36 266.404 16.908 266.564 16.5C266.724 16.084 266.948 15.728 267.236 15.432C267.532 15.136 267.876 14.908 268.268 14.748C268.668 14.58 269.104 14.496 269.576 14.496C270.024 14.496 270.432 14.576 270.8 14.736C271.168 14.896 271.488 15.12 271.76 15.408C272.032 15.696 272.24 16.036 272.384 16.428C272.528 16.82 272.596 17.248 272.588 17.712L272.576 18.24H267.512L267.224 17.148H271.004L270.8 17.364V17.124C270.784 16.924 270.72 16.752 270.608 16.608C270.504 16.456 270.364 16.336 270.188 16.248C270.02 16.16 269.828 16.116 269.612 16.116C269.292 16.116 269.02 16.18 268.796 16.308C268.58 16.428 268.416 16.604 268.304 16.836C268.192 17.068 268.136 17.356 268.136 17.7C268.136 18.044 268.208 18.348 268.352 18.612C268.504 18.876 268.72 19.08 269 19.224C269.288 19.368 269.628 19.44 270.02 19.44C270.284 19.44 270.524 19.4 270.74 19.32C270.956 19.24 271.188 19.104 271.436 18.912L272.336 20.184C272.088 20.392 271.824 20.568 271.544 20.712C271.264 20.848 270.976 20.948 270.68 21.012C270.392 21.084 270.1 21.12 269.804 21.12ZM277.835 21V12.6H279.887V19.188H283.631V21H277.835ZM288.129 21V17.088C288.129 16.76 288.037 16.52 287.853 16.368C287.677 16.208 287.429 16.128 287.109 16.128C286.797 16.128 286.517 16.188 286.269 16.308C286.029 16.42 285.797 16.608 285.573 16.872L284.421 15.756C284.805 15.364 285.245 15.056 285.741 14.832C286.237 14.608 286.777 14.496 287.361 14.496C287.897 14.496 288.361 14.576 288.753 14.736C289.145 14.896 289.449 15.14 289.665 15.468C289.881 15.796 289.989 16.212 289.989 16.716V21H288.129ZM286.473 21.12C286.073 21.12 285.709 21.04 285.381 20.88C285.061 20.72 284.805 20.5 284.613 20.22C284.429 19.932 284.337 19.596 284.337 19.212C284.337 18.884 284.397 18.596 284.517 18.348C284.637 18.1 284.813 17.896 285.045 17.736C285.285 17.568 285.581 17.444 285.933 17.364C286.293 17.276 286.709 17.232 287.181 17.232H289.113L289.005 18.444H287.229C287.061 18.444 286.913 18.46 286.785 18.492C286.657 18.516 286.549 18.56 286.461 18.624C286.373 18.68 286.305 18.748 286.257 18.828C286.217 18.908 286.197 19.004 286.197 19.116C286.197 19.236 286.229 19.34 286.293 19.428C286.357 19.516 286.441 19.584 286.545 19.632C286.657 19.68 286.785 19.704 286.929 19.704C287.137 19.704 287.333 19.672 287.517 19.608C287.709 19.536 287.877 19.436 288.021 19.308C288.173 19.18 288.293 19.032 288.381 18.864L288.717 19.728C288.549 20 288.345 20.24 288.105 20.448C287.873 20.656 287.617 20.82 287.337 20.94C287.065 21.06 286.777 21.12 286.473 21.12ZM291.53 21V14.628H293.366L293.438 15.924L293.042 16.068C293.13 15.78 293.286 15.52 293.51 15.288C293.742 15.048 294.018 14.856 294.338 14.712C294.658 14.568 294.994 14.496 295.346 14.496C295.826 14.496 296.23 14.596 296.558 14.796C296.886 14.988 297.13 15.28 297.29 15.672C297.458 16.056 297.542 16.532 297.542 17.1V21H295.61V17.244C295.61 16.988 295.574 16.776 295.502 16.608C295.43 16.44 295.322 16.316 295.178 16.236C295.034 16.156 294.854 16.12 294.638 16.128C294.47 16.128 294.314 16.156 294.17 16.212C294.026 16.26 293.898 16.336 293.786 16.44C293.682 16.536 293.602 16.648 293.546 16.776C293.49 16.904 293.462 17.048 293.462 17.208V21H292.49C292.282 21 292.094 21 291.926 21C291.766 21 291.634 21 291.53 21ZM302.075 23.76C301.563 23.76 301.047 23.684 300.527 23.532C300.015 23.388 299.599 23.196 299.279 22.956L299.951 21.588C300.207 21.764 300.495 21.9 300.815 21.996C301.143 22.1 301.483 22.152 301.835 22.152C302.243 22.152 302.575 22.092 302.831 21.972C303.087 21.852 303.275 21.672 303.395 21.432C303.523 21.192 303.587 20.892 303.587 20.532V19.476L303.947 19.548C303.899 19.796 303.763 20.028 303.539 20.244C303.323 20.46 303.055 20.632 302.735 20.76C302.415 20.888 302.079 20.952 301.727 20.952C301.151 20.952 300.635 20.82 300.179 20.556C299.723 20.284 299.363 19.912 299.099 19.44C298.843 18.96 298.715 18.408 298.715 17.784C298.715 17.144 298.843 16.576 299.099 16.08C299.363 15.584 299.719 15.196 300.167 14.916C300.615 14.636 301.119 14.496 301.679 14.496C301.911 14.496 302.135 14.524 302.351 14.58C302.575 14.628 302.779 14.7 302.963 14.796C303.155 14.892 303.323 15 303.467 15.12C303.619 15.24 303.743 15.372 303.839 15.516C303.935 15.66 303.995 15.804 304.019 15.948L303.623 16.068L303.695 14.628H305.531V20.472C305.531 20.992 305.451 21.456 305.291 21.864C305.139 22.272 304.911 22.616 304.607 22.896C304.311 23.176 303.951 23.388 303.527 23.532C303.103 23.684 302.619 23.76 302.075 23.76ZM302.123 19.452C302.435 19.452 302.703 19.384 302.927 19.248C303.159 19.112 303.335 18.92 303.455 18.672C303.583 18.424 303.647 18.136 303.647 17.808C303.647 17.464 303.583 17.168 303.455 16.92C303.335 16.672 303.159 16.48 302.927 16.344C302.703 16.2 302.435 16.128 302.123 16.128C301.827 16.128 301.567 16.2 301.343 16.344C301.119 16.48 300.943 16.672 300.815 16.92C300.695 17.168 300.635 17.46 300.635 17.796C300.635 18.132 300.695 18.424 300.815 18.672C300.943 18.92 301.119 19.112 301.343 19.248C301.567 19.384 301.827 19.452 302.123 19.452ZM309.276 21.12C308.812 21.12 308.412 21.02 308.076 20.82C307.74 20.612 307.48 20.32 307.296 19.944C307.12 19.56 307.032 19.1 307.032 18.564V14.628H308.964V18.276C308.964 18.668 309.056 18.976 309.24 19.2C309.432 19.416 309.696 19.524 310.032 19.524C310.2 19.524 310.352 19.5 310.488 19.452C310.624 19.396 310.74 19.32 310.836 19.224C310.94 19.12 311.02 19 311.076 18.864C311.132 18.728 311.16 18.58 311.16 18.42V14.628H313.092V21H311.28L311.208 19.692L311.556 19.548C311.468 19.844 311.308 20.112 311.076 20.352C310.852 20.592 310.584 20.78 310.272 20.916C309.96 21.052 309.628 21.12 309.276 21.12ZM318.211 21V17.088C318.211 16.76 318.119 16.52 317.935 16.368C317.759 16.208 317.511 16.128 317.191 16.128C316.879 16.128 316.599 16.188 316.351 16.308C316.111 16.42 315.879 16.608 315.655 16.872L314.503 15.756C314.887 15.364 315.327 15.056 315.823 14.832C316.319 14.608 316.859 14.496 317.443 14.496C317.979 14.496 318.443 14.576 318.835 14.736C319.227 14.896 319.531 15.14 319.747 15.468C319.963 15.796 320.071 16.212 320.071 16.716V21H318.211ZM316.555 21.12C316.155 21.12 315.791 21.04 315.463 20.88C315.143 20.72 314.887 20.5 314.695 20.22C314.511 19.932 314.419 19.596 314.419 19.212C314.419 18.884 314.479 18.596 314.599 18.348C314.719 18.1 314.895 17.896 315.127 17.736C315.367 17.568 315.663 17.444 316.015 17.364C316.375 17.276 316.791 17.232 317.263 17.232H319.195L319.087 18.444H317.311C317.143 18.444 316.995 18.46 316.867 18.492C316.739 18.516 316.631 18.56 316.543 18.624C316.455 18.68 316.387 18.748 316.339 18.828C316.299 18.908 316.279 19.004 316.279 19.116C316.279 19.236 316.311 19.34 316.375 19.428C316.439 19.516 316.523 19.584 316.627 19.632C316.739 19.68 316.867 19.704 317.011 19.704C317.219 19.704 317.415 19.672 317.599 19.608C317.791 19.536 317.959 19.436 318.103 19.308C318.255 19.18 318.375 19.032 318.463 18.864L318.799 19.728C318.631 20 318.427 20.24 318.187 20.448C317.955 20.656 317.699 20.82 317.419 20.94C317.147 21.06 316.859 21.12 316.555 21.12ZM324.528 23.76C324.016 23.76 323.5 23.684 322.98 23.532C322.468 23.388 322.052 23.196 321.732 22.956L322.404 21.588C322.66 21.764 322.948 21.9 323.268 21.996C323.596 22.1 323.936 22.152 324.288 22.152C324.696 22.152 325.028 22.092 325.284 21.972C325.54 21.852 325.728 21.672 325.848 21.432C325.976 21.192 326.04 20.892 326.04 20.532V19.476L326.4 19.548C326.352 19.796 326.216 20.028 325.992 20.244C325.776 20.46 325.508 20.632 325.188 20.76C324.868 20.888 324.532 20.952 324.18 20.952C323.604 20.952 323.088 20.82 322.632 20.556C322.176 20.284 321.816 19.912 321.552 19.44C321.296 18.96 321.168 18.408 321.168 17.784C321.168 17.144 321.296 16.576 321.552 16.08C321.816 15.584 322.172 15.196 322.62 14.916C323.068 14.636 323.572 14.496 324.132 14.496C324.364 14.496 324.588 14.524 324.804 14.58C325.028 14.628 325.232 14.7 325.416 14.796C325.608 14.892 325.776 15 325.92 15.12C326.072 15.24 326.196 15.372 326.292 15.516C326.388 15.66 326.448 15.804 326.472 15.948L326.076 16.068L326.148 14.628H327.984V20.472C327.984 20.992 327.904 21.456 327.744 21.864C327.592 22.272 327.364 22.616 327.06 22.896C326.764 23.176 326.404 23.388 325.98 23.532C325.556 23.684 325.072 23.76 324.528 23.76ZM324.576 19.452C324.888 19.452 325.156 19.384 325.38 19.248C325.612 19.112 325.788 18.92 325.908 18.672C326.036 18.424 326.1 18.136 326.1 17.808C326.1 17.464 326.036 17.168 325.908 16.92C325.788 16.672 325.612 16.48 325.38 16.344C325.156 16.2 324.888 16.128 324.576 16.128C324.28 16.128 324.02 16.2 323.796 16.344C323.572 16.48 323.396 16.672 323.268 16.92C323.148 17.168 323.088 17.46 323.088 17.796C323.088 18.132 323.148 18.424 323.268 18.672C323.396 18.92 323.572 19.112 323.796 19.248C324.02 19.384 324.28 19.452 324.576 19.452ZM332.687 21.12C331.983 21.12 331.367 20.98 330.839 20.7C330.319 20.42 329.915 20.036 329.627 19.548C329.347 19.052 329.207 18.488 329.207 17.856C329.207 17.36 329.287 16.908 329.447 16.5C329.607 16.084 329.831 15.728 330.119 15.432C330.415 15.136 330.759 14.908 331.151 14.748C331.551 14.58 331.987 14.496 332.459 14.496C332.907 14.496 333.315 14.576 333.683 14.736C334.051 14.896 334.371 15.12 334.643 15.408C334.915 15.696 335.123 16.036 335.267 16.428C335.411 16.82 335.479 17.248 335.471 17.712L335.459 18.24H330.395L330.107 17.148H333.887L333.683 17.364V17.124C333.667 16.924 333.603 16.752 333.491 16.608C333.387 16.456 333.247 16.336 333.071 16.248C332.903 16.16 332.711 16.116 332.495 16.116C332.175 16.116 331.903 16.18 331.679 16.308C331.463 16.428 331.299 16.604 331.187 16.836C331.075 17.068 331.019 17.356 331.019 17.7C331.019 18.044 331.091 18.348 331.235 18.612C331.387 18.876 331.603 19.08 331.883 19.224C332.171 19.368 332.511 19.44 332.903 19.44C333.167 19.44 333.407 19.4 333.623 19.32C333.839 19.24 334.071 19.104 334.319 18.912L335.219 20.184C334.971 20.392 334.707 20.568 334.427 20.712C334.147 20.848 333.859 20.948 333.563 21.012C333.275 21.084 332.983 21.12 332.687 21.12ZM342.542 21V14.412H340.07V12.6H347.15V14.412H344.594V21H342.542ZM347.674 21V14.628H349.51L349.594 16.704L349.234 16.296C349.338 15.96 349.498 15.656 349.714 15.384C349.93 15.112 350.186 14.896 350.482 14.736C350.786 14.576 351.102 14.496 351.43 14.496C351.574 14.496 351.706 14.508 351.826 14.532C351.954 14.548 352.066 14.576 352.162 14.616L351.646 16.74C351.558 16.692 351.438 16.652 351.286 16.62C351.142 16.58 350.99 16.56 350.83 16.56C350.654 16.56 350.49 16.592 350.338 16.656C350.194 16.712 350.066 16.796 349.954 16.908C349.85 17.02 349.766 17.152 349.702 17.304C349.646 17.456 349.618 17.628 349.618 17.82V21H347.674ZM356.273 21V17.088C356.273 16.76 356.181 16.52 355.997 16.368C355.821 16.208 355.573 16.128 355.253 16.128C354.941 16.128 354.661 16.188 354.413 16.308C354.173 16.42 353.941 16.608 353.717 16.872L352.565 15.756C352.949 15.364 353.389 15.056 353.885 14.832C354.381 14.608 354.921 14.496 355.505 14.496C356.041 14.496 356.505 14.576 356.897 14.736C357.289 14.896 357.593 15.14 357.809 15.468C358.025 15.796 358.133 16.212 358.133 16.716V21H356.273ZM354.617 21.12C354.217 21.12 353.853 21.04 353.525 20.88C353.205 20.72 352.949 20.5 352.757 20.22C352.573 19.932 352.481 19.596 352.481 19.212C352.481 18.884 352.541 18.596 352.661 18.348C352.781 18.1 352.957 17.896 353.189 17.736C353.429 17.568 353.725 17.444 354.077 17.364C354.437 17.276 354.853 17.232 355.325 17.232H357.257L357.149 18.444H355.373C355.205 18.444 355.057 18.46 354.929 18.492C354.801 18.516 354.693 18.56 354.605 18.624C354.517 18.68 354.449 18.748 354.401 18.828C354.361 18.908 354.341 19.004 354.341 19.116C354.341 19.236 354.373 19.34 354.437 19.428C354.501 19.516 354.585 19.584 354.689 19.632C354.801 19.68 354.929 19.704 355.073 19.704C355.281 19.704 355.477 19.672 355.661 19.608C355.853 19.536 356.021 19.436 356.165 19.308C356.317 19.18 356.437 19.032 356.525 18.864L356.861 19.728C356.693 20 356.489 20.24 356.249 20.448C356.017 20.656 355.761 20.82 355.481 20.94C355.209 21.06 354.921 21.12 354.617 21.12ZM359.674 21V14.628H361.51L361.582 15.924L361.186 16.068C361.274 15.78 361.43 15.52 361.654 15.288C361.886 15.048 362.162 14.856 362.482 14.712C362.802 14.568 363.138 14.496 363.49 14.496C363.97 14.496 364.374 14.596 364.702 14.796C365.03 14.988 365.274 15.28 365.434 15.672C365.602 16.056 365.686 16.532 365.686 17.1V21H363.754V17.244C363.754 16.988 363.718 16.776 363.646 16.608C363.574 16.44 363.466 16.316 363.322 16.236C363.178 16.156 362.998 16.12 362.782 16.128C362.614 16.128 362.458 16.156 362.314 16.212C362.17 16.26 362.042 16.336 361.93 16.44C361.826 16.536 361.746 16.648 361.69 16.776C361.634 16.904 361.606 17.048 361.606 17.208V21H360.634C360.426 21 360.238 21 360.07 21C359.91 21 359.778 21 359.674 21ZM369.451 21.12C368.843 21.12 368.299 21.024 367.819 20.832C367.339 20.632 366.955 20.36 366.667 20.016L367.843 19.008C368.091 19.256 368.371 19.44 368.683 19.56C368.995 19.672 369.291 19.728 369.571 19.728C369.675 19.728 369.767 19.716 369.847 19.692C369.927 19.668 369.995 19.636 370.051 19.596C370.115 19.548 370.163 19.496 370.195 19.44C370.227 19.376 370.243 19.304 370.243 19.224C370.243 19.064 370.175 18.944 370.039 18.864C369.975 18.824 369.859 18.776 369.691 18.72C369.523 18.656 369.307 18.592 369.043 18.528C368.667 18.432 368.339 18.316 368.059 18.18C367.787 18.044 367.563 17.888 367.387 17.712C367.227 17.552 367.103 17.368 367.015 17.16C366.935 16.952 366.895 16.72 366.895 16.464C366.895 16.072 367.011 15.728 367.243 15.432C367.483 15.136 367.795 14.908 368.179 14.748C368.563 14.58 368.979 14.496 369.427 14.496C369.779 14.496 370.111 14.536 370.423 14.616C370.743 14.696 371.039 14.808 371.311 14.952C371.591 15.096 371.839 15.268 372.055 15.468L371.035 16.608C370.899 16.472 370.739 16.352 370.555 16.248C370.371 16.136 370.187 16.048 370.003 15.984C369.819 15.912 369.647 15.876 369.487 15.876C369.367 15.876 369.259 15.888 369.163 15.912C369.075 15.928 368.999 15.96 368.935 16.008C368.879 16.048 368.835 16.1 368.803 16.164C368.771 16.22 368.755 16.284 368.755 16.356C368.755 16.444 368.775 16.524 368.815 16.596C368.863 16.66 368.927 16.72 369.007 16.776C369.079 16.816 369.203 16.868 369.379 16.932C369.563 16.996 369.803 17.068 370.099 17.148C370.475 17.252 370.795 17.372 371.059 17.508C371.331 17.636 371.547 17.788 371.707 17.964C371.843 18.1 371.939 18.26 371.995 18.444C372.059 18.62 372.091 18.812 372.091 19.02C372.091 19.428 371.975 19.792 371.743 20.112C371.519 20.424 371.207 20.672 370.807 20.856C370.415 21.032 369.963 21.12 369.451 21.12ZM373.245 21V12.12H375.177V21H373.245ZM380.168 21V17.088C380.168 16.76 380.076 16.52 379.892 16.368C379.716 16.208 379.468 16.128 379.148 16.128C378.836 16.128 378.556 16.188 378.308 16.308C378.068 16.42 377.836 16.608 377.612 16.872L376.46 15.756C376.844 15.364 377.284 15.056 377.78 14.832C378.276 14.608 378.816 14.496 379.4 14.496C379.936 14.496 380.4 14.576 380.792 14.736C381.184 14.896 381.488 15.14 381.704 15.468C381.92 15.796 382.028 16.212 382.028 16.716V21H380.168ZM378.512 21.12C378.112 21.12 377.748 21.04 377.42 20.88C377.1 20.72 376.844 20.5 376.652 20.22C376.468 19.932 376.376 19.596 376.376 19.212C376.376 18.884 376.436 18.596 376.556 18.348C376.676 18.1 376.852 17.896 377.084 17.736C377.324 17.568 377.62 17.444 377.972 17.364C378.332 17.276 378.748 17.232 379.22 17.232H381.152L381.044 18.444H379.268C379.1 18.444 378.952 18.46 378.824 18.492C378.696 18.516 378.588 18.56 378.5 18.624C378.412 18.68 378.344 18.748 378.296 18.828C378.256 18.908 378.236 19.004 378.236 19.116C378.236 19.236 378.268 19.34 378.332 19.428C378.396 19.516 378.48 19.584 378.584 19.632C378.696 19.68 378.824 19.704 378.968 19.704C379.176 19.704 379.372 19.672 379.556 19.608C379.748 19.536 379.916 19.436 380.06 19.308C380.212 19.18 380.332 19.032 380.42 18.864L380.756 19.728C380.588 20 380.384 20.24 380.144 20.448C379.912 20.656 379.656 20.82 379.376 20.94C379.104 21.06 378.816 21.12 378.512 21.12ZM384.097 21V13.02H386.029V21H384.097ZM382.969 16.32V14.628H387.253V16.32H382.969ZM391.291 21.12C390.635 21.12 390.047 20.98 389.527 20.7C389.007 20.412 388.599 20.02 388.303 19.524C388.007 19.02 387.859 18.452 387.859 17.82C387.859 17.172 388.007 16.6 388.303 16.104C388.599 15.6 389.007 15.208 389.527 14.928C390.047 14.64 390.635 14.496 391.291 14.496C391.955 14.496 392.543 14.64 393.055 14.928C393.575 15.208 393.983 15.6 394.279 16.104C394.575 16.6 394.723 17.172 394.723 17.82C394.723 18.452 394.575 19.02 394.279 19.524C393.983 20.02 393.575 20.412 393.055 20.7C392.543 20.98 391.955 21.12 391.291 21.12ZM391.291 19.464C391.579 19.464 391.831 19.392 392.047 19.248C392.271 19.104 392.447 18.908 392.575 18.66C392.703 18.412 392.763 18.132 392.755 17.82C392.763 17.492 392.703 17.204 392.575 16.956C392.447 16.7 392.271 16.504 392.047 16.368C391.831 16.224 391.579 16.152 391.291 16.152C391.011 16.152 390.759 16.224 390.535 16.368C390.311 16.512 390.135 16.708 390.007 16.956C389.879 17.204 389.815 17.492 389.815 17.82C389.815 18.132 389.879 18.412 390.007 18.66C390.135 18.908 390.311 19.104 390.535 19.248C390.759 19.392 391.011 19.464 391.291 19.464ZM395.979 21V14.628H397.815L397.899 16.704L397.539 16.296C397.643 15.96 397.803 15.656 398.019 15.384C398.235 15.112 398.491 14.896 398.787 14.736C399.091 14.576 399.407 14.496 399.735 14.496C399.879 14.496 400.011 14.508 400.131 14.532C400.259 14.548 400.371 14.576 400.467 14.616L399.951 16.74C399.863 16.692 399.743 16.652 399.591 16.62C399.447 16.58 399.295 16.56 399.135 16.56C398.959 16.56 398.795 16.592 398.643 16.656C398.499 16.712 398.371 16.796 398.259 16.908C398.155 17.02 398.071 17.152 398.007 17.304C397.951 17.456 397.923 17.628 397.923 17.82V21H395.979Z" fill="#41518A"/>
<circle cx="26" cy="16" r="15" fill="#D9D9D9"/>
<ellipse cx="26.0669" cy="16.0457" rx="12.5732" ry="12.5833" fill="#EBEBEB"/>
<path d="M39.1402 16.2926L39.1402 15.7745L38.6224 15.7927L29.8744 16.1015L36.7738 9.24525L37.048 8.9728L36.8533 8.63876C35.9333 7.06031 34.3976 5.74255 32.7537 4.77722C31.1084 3.8111 29.3082 3.17051 27.8139 2.97956C24.874 2.60388 21.8961 3.20565 19.3513 4.69111C16.8063 6.17666 14.8397 8.46134 13.7638 11.1846C12.688 13.908 12.565 16.9129 13.4138 19.7237C14.2626 22.5344 16.0342 24.9895 18.4468 26.702C20.8593 28.4144 23.776 29.287 26.7358 29.1824C29.6956 29.0777 32.531 28.0016 34.7929 26.1224C35.9576 25.1549 37.0391 23.5856 37.8284 21.8385C38.6194 20.0879 39.1402 18.1078 39.1402 16.2926ZM30.8208 9.48371L24.1505 16.3036L18.0916 16.5174C18.012 15.3541 18.1907 14.182 18.6239 13.0854C19.2766 11.4331 20.4706 10.0451 22.0183 9.14161C23.5662 8.23809 25.3795 7.87106 27.1712 8.10002C28.1163 8.22079 28.7983 8.34525 29.4033 8.58771C29.8819 8.77949 30.3293 9.05239 30.8208 9.48371ZM19.7254 20.8278C19.5753 20.6319 19.4342 20.4294 19.3028 20.2208L20.3334 20.2062L19.7254 20.8278ZM26.5235 24.0226C25.1975 24.0695 23.8857 23.7944 22.7 23.2309L25.8222 20.1283L33.4025 20.0207C33.3215 20.1526 33.2224 20.3009 33.1031 20.4623C32.7231 20.9764 32.1697 21.5811 31.4388 22.1516L31.4328 22.1563L31.427 22.1611C30.0523 23.3032 28.3269 23.9589 26.5235 24.0226Z" fill="#E6AF2E" stroke="black"/>
</svg>
