<svg width="404" height="175" viewBox="0 0 404 175" fill="none" xmlns="http://www.w3.org/2000/svg">
<rect x="4" y="2.98294" width="400" height="172.017" rx="10" fill="#41518A"/>
<rect x="4.5" y="3.48294" width="399" height="171.017" rx="9.5" stroke="black" stroke-opacity="0.1"/>
<path d="M0 11.2929C0 5.77008 4.47715 1.29294 10 1.29294H158.283L158.984 6.34878C171.241 94.697 103.145 173.733 13.9554 174.678L10.1059 174.719C4.54193 174.777 0 170.283 0 164.719V11.2929Z" fill="#EBEBEB"/>
<path d="M190.569 108.5C187.769 108.5 185.235 108.05 182.969 107.15C180.735 106.25 178.802 104.983 177.169 103.35C175.535 101.717 174.285 99.8 173.419 97.6C172.552 95.4 172.119 93 172.119 90.4C172.119 87.8 172.585 85.4 173.519 83.2C174.452 81 175.752 79.0833 177.419 77.45C179.119 75.8167 181.119 74.55 183.419 73.65C185.752 72.75 188.302 72.3 191.069 72.3C192.969 72.3 194.769 72.55 196.469 73.05C198.202 73.55 199.769 74.2333 201.169 75.1C202.602 75.9667 203.785 76.95 204.719 78.05L199.469 83.55C198.269 82.4167 196.969 81.5333 195.569 80.9C194.202 80.2333 192.652 79.9 190.919 79.9C189.485 79.9 188.152 80.1667 186.919 80.7C185.719 81.2 184.652 81.9333 183.719 82.9C182.819 83.8333 182.119 84.95 181.619 86.25C181.119 87.5167 180.869 88.9 180.869 90.4C180.869 91.9 181.135 93.2833 181.669 94.55C182.202 95.8167 182.935 96.9333 183.869 97.9C184.835 98.8333 185.952 99.5667 187.219 100.1C188.485 100.633 189.852 100.9 191.319 100.9C192.352 100.9 193.302 100.75 194.169 100.45C195.069 100.117 195.852 99.6833 196.519 99.15C197.219 98.5833 197.752 97.9333 198.119 97.2C198.519 96.4333 198.719 95.6167 198.719 94.75V93.45L199.819 95.15H190.269V88.4H206.719C206.785 88.7667 206.835 89.2667 206.869 89.9C206.902 90.5333 206.919 91.15 206.919 91.75C206.952 92.3167 206.969 92.7667 206.969 93.1C206.969 95.3667 206.552 97.45 205.719 99.35C204.919 101.217 203.769 102.833 202.269 104.2C200.802 105.567 199.069 106.633 197.069 107.4C195.069 108.133 192.902 108.5 190.569 108.5ZM228.181 108.3C225.281 108.3 222.698 107.717 220.431 106.55C218.198 105.35 216.431 103.717 215.131 101.65C213.831 99.55 213.181 97.1833 213.181 94.55V72.95H221.781V94.1C221.781 95.3667 222.065 96.5 222.631 97.5C223.198 98.5 223.965 99.3 224.931 99.9C225.931 100.467 227.015 100.75 228.181 100.75C229.415 100.75 230.531 100.467 231.531 99.9C232.531 99.3 233.315 98.5 233.881 97.5C234.481 96.5 234.781 95.3667 234.781 94.1V72.95H243.081V94.55C243.081 97.1833 242.431 99.55 241.131 101.65C239.865 103.717 238.115 105.35 235.881 106.55C233.648 107.717 231.081 108.3 228.181 108.3ZM250.915 108V100.8H256.815V80.2H250.915V73H271.265V80.2H265.365V100.8H271.265V108H250.915ZM279.299 108V73H287.849V100.45H303.449V108H279.299ZM313.218 108V80.55H302.918V73H332.418V80.55H321.768V108H313.218Z" fill="white"/>
<path d="M331.768 108.16C330.659 108.16 329.72 107.968 328.952 107.584C328.195 107.189 327.544 106.635 327 105.92L328.664 104.048C329.187 104.763 329.715 105.243 330.248 105.488C330.782 105.733 331.331 105.856 331.896 105.856C332.184 105.856 332.44 105.819 332.664 105.744C332.899 105.669 333.08 105.563 333.208 105.424C333.347 105.275 333.416 105.099 333.416 104.896C333.416 104.736 333.374 104.592 333.288 104.464C333.214 104.336 333.107 104.224 332.968 104.128C332.83 104.032 332.67 103.947 332.488 103.872C332.307 103.787 332.104 103.717 331.88 103.664C331.667 103.611 331.448 103.563 331.224 103.52C330.606 103.392 330.067 103.227 329.608 103.024C329.16 102.811 328.782 102.56 328.472 102.272C328.174 101.973 327.95 101.637 327.8 101.264C327.651 100.88 327.576 100.448 327.576 99.968C327.576 99.2853 327.768 98.688 328.152 98.176C328.547 97.664 329.064 97.264 329.704 96.976C330.344 96.688 331.038 96.544 331.784 96.544C332.872 96.544 333.747 96.72 334.408 97.072C335.08 97.4133 335.614 97.888 336.008 98.496L334.312 100.144C333.982 99.7173 333.603 99.3973 333.176 99.184C332.76 98.9707 332.323 98.864 331.864 98.864C331.555 98.864 331.283 98.9013 331.048 98.976C330.814 99.0507 330.632 99.1627 330.504 99.312C330.387 99.4507 330.328 99.6213 330.328 99.824C330.328 99.9947 330.376 100.149 330.472 100.288C330.579 100.416 330.723 100.528 330.904 100.624C331.086 100.72 331.294 100.805 331.528 100.88C331.763 100.944 332.008 100.997 332.264 101.04C332.851 101.157 333.379 101.312 333.848 101.504C334.328 101.696 334.739 101.936 335.08 102.224C335.422 102.501 335.683 102.832 335.864 103.216C336.056 103.589 336.152 104.021 336.152 104.512C336.152 105.28 335.966 105.936 335.592 106.48C335.219 107.024 334.702 107.44 334.04 107.728C333.379 108.016 332.622 108.16 331.768 108.16ZM340.629 108V99.216H337.333V96.8H346.773V99.216H343.365V108H340.629ZM353.301 108.16C352.458 108.16 351.679 108.016 350.965 107.728C350.261 107.44 349.647 107.04 349.125 106.528C348.613 106.005 348.213 105.392 347.925 104.688C347.637 103.973 347.493 103.195 347.493 102.352C347.493 101.52 347.637 100.752 347.925 100.048C348.213 99.3333 348.613 98.7147 349.125 98.192C349.647 97.6693 350.261 97.264 350.965 96.976C351.679 96.688 352.458 96.544 353.301 96.544C354.133 96.544 354.901 96.688 355.605 96.976C356.309 97.264 356.917 97.6693 357.429 98.192C357.951 98.7147 358.357 99.3333 358.645 100.048C358.933 100.752 359.077 101.525 359.077 102.368C359.077 103.2 358.933 103.968 358.645 104.672C358.357 105.376 357.951 105.989 357.429 106.512C356.917 107.035 356.309 107.44 355.605 107.728C354.901 108.016 354.133 108.16 353.301 108.16ZM353.301 105.584C353.738 105.584 354.138 105.504 354.501 105.344C354.863 105.184 355.178 104.96 355.445 104.672C355.722 104.384 355.935 104.043 356.085 103.648C356.234 103.253 356.309 102.827 356.309 102.368C356.309 101.899 356.234 101.467 356.085 101.072C355.935 100.677 355.722 100.336 355.445 100.048C355.178 99.7493 354.863 99.52 354.501 99.36C354.138 99.2 353.738 99.12 353.301 99.12C352.863 99.12 352.458 99.2 352.085 99.36C351.722 99.52 351.402 99.7493 351.125 100.048C350.858 100.336 350.65 100.677 350.501 101.072C350.351 101.467 350.277 101.899 350.277 102.368C350.277 102.987 350.405 103.541 350.661 104.032C350.927 104.512 351.285 104.891 351.733 105.168C352.191 105.445 352.714 105.584 353.301 105.584ZM361.15 108V96.8H365.998C366.702 96.8 367.331 96.96 367.886 97.28C368.44 97.6 368.878 98.0373 369.198 98.592C369.518 99.136 369.678 99.76 369.678 100.464C369.678 101.179 369.518 101.824 369.198 102.4C368.878 102.976 368.44 103.429 367.886 103.76C367.331 104.091 366.702 104.256 365.998 104.256H363.886V108H361.15ZM363.854 101.84H365.63C365.864 101.84 366.072 101.787 366.254 101.68C366.446 101.563 366.6 101.403 366.718 101.2C366.835 100.997 366.894 100.768 366.894 100.512C366.894 100.245 366.835 100.016 366.718 99.824C366.6 99.632 366.446 99.4827 366.254 99.376C366.072 99.2693 365.864 99.216 365.63 99.216H363.854V101.84Z" fill="white"/>
<path d="M151.456 145.144C150.467 145.144 149.624 144.938 148.927 144.528C148.229 144.118 147.694 143.549 147.32 142.819C146.951 142.09 146.767 141.245 146.767 140.283V139.941C146.767 138.948 146.951 138.073 147.32 137.316C147.689 136.56 148.211 135.97 148.886 135.546C149.565 135.118 150.367 134.903 151.292 134.903C152.007 134.903 152.68 135.001 153.309 135.197C153.938 135.393 154.484 135.687 154.949 136.079V138.287H153.473L153.192 136.954C153.015 136.799 152.775 136.676 152.475 136.585C152.174 136.489 151.83 136.441 151.442 136.441C150.886 136.441 150.406 136.59 150 136.886C149.599 137.177 149.291 137.585 149.077 138.109C148.863 138.629 148.756 139.235 148.756 139.928V140.283C148.756 140.958 148.861 141.546 149.07 142.047C149.285 142.544 149.597 142.929 150.007 143.202C150.417 143.476 150.921 143.612 151.518 143.612C151.868 143.612 152.19 143.58 152.481 143.517C152.778 143.448 153.021 143.366 153.213 143.271V141.582L151.791 141.473V140.071H155.216V144.098C154.774 144.412 154.241 144.665 153.616 144.856C152.996 145.048 152.276 145.144 151.456 145.144ZM159.81 145.144C159.103 145.144 158.486 144.989 157.957 144.679C157.428 144.364 157.018 143.934 156.727 143.387C156.439 142.84 156.296 142.215 156.296 141.514V141.24C156.296 140.507 156.433 139.857 156.706 139.292C156.979 138.722 157.365 138.276 157.861 137.952C158.363 137.624 158.953 137.462 159.632 137.467C160.302 137.467 160.865 137.599 161.32 137.863C161.776 138.128 162.122 138.508 162.359 139.005C162.596 139.502 162.715 140.103 162.715 140.81V141.896H158.367L158.354 141.938C158.381 142.261 158.461 142.55 158.593 142.806C158.729 143.056 158.921 143.255 159.167 143.4C159.413 143.542 159.712 143.612 160.062 143.612C160.427 143.612 160.767 143.567 161.081 143.476C161.4 143.38 161.71 143.241 162.011 143.059L162.551 144.289C162.245 144.535 161.86 144.74 161.396 144.904C160.935 145.064 160.407 145.144 159.81 145.144ZM158.381 140.577H160.849V140.399C160.849 140.099 160.808 139.841 160.726 139.627C160.648 139.408 160.521 139.24 160.343 139.121C160.17 139.003 159.944 138.943 159.666 138.943C159.402 138.943 159.178 139.014 158.996 139.155C158.814 139.292 158.67 139.481 158.565 139.723C158.465 139.964 158.397 140.238 158.36 140.543L158.381 140.577ZM163.562 145V143.804L164.52 143.599V139.012L163.46 138.807V137.604H166.379L166.468 138.663C166.714 138.285 167.017 137.991 167.377 137.781C167.742 137.572 168.156 137.467 168.621 137.467C169.355 137.467 169.929 137.701 170.344 138.171C170.758 138.64 170.966 139.376 170.966 140.379V143.599L171.923 143.804V145H168.108V143.804L168.963 143.599V140.386C168.963 139.889 168.865 139.538 168.669 139.333C168.473 139.123 168.181 139.019 167.794 139.019C167.507 139.019 167.256 139.08 167.042 139.203C166.832 139.322 166.657 139.493 166.516 139.716V143.599L167.322 143.804V145H163.562ZM175.751 145.144C175.2 145.144 174.685 145.091 174.206 144.986C173.732 144.882 173.276 144.731 172.839 144.535L172.818 142.443H174.206L174.473 143.51C174.628 143.587 174.796 143.649 174.979 143.694C175.165 143.74 175.377 143.763 175.614 143.763C176.061 143.763 176.375 143.69 176.558 143.544C176.74 143.398 176.831 143.216 176.831 142.997C176.831 142.792 176.733 142.612 176.537 142.457C176.346 142.298 175.961 142.159 175.382 142.04C174.507 141.858 173.862 141.575 173.447 141.192C173.033 140.81 172.825 140.32 172.825 139.723C172.825 139.312 172.928 138.939 173.133 138.602C173.342 138.264 173.659 137.993 174.083 137.788C174.511 137.583 175.058 137.48 175.724 137.48C176.28 137.48 176.788 137.535 177.248 137.645C177.713 137.749 178.103 137.888 178.417 138.062L178.438 140.085H177.057L176.845 139.114C176.722 139.023 176.576 138.955 176.407 138.909C176.243 138.864 176.056 138.841 175.847 138.841C175.496 138.841 175.227 138.911 175.04 139.053C174.853 139.194 174.76 139.376 174.76 139.6C174.76 139.727 174.792 139.846 174.855 139.955C174.924 140.064 175.056 140.167 175.252 140.263C175.448 140.358 175.733 140.45 176.106 140.536C177.022 140.746 177.69 141.026 178.109 141.377C178.529 141.723 178.738 142.211 178.738 142.84C178.738 143.528 178.488 144.084 177.986 144.508C177.49 144.932 176.744 145.144 175.751 145.144ZM183.175 145.144C182.446 145.144 181.819 144.984 181.295 144.665C180.771 144.346 180.37 143.904 180.092 143.339C179.814 142.769 179.675 142.115 179.675 141.377V141.233C179.675 140.5 179.814 139.85 180.092 139.285C180.37 138.715 180.769 138.271 181.288 137.952C181.812 137.629 182.437 137.467 183.161 137.467C183.895 137.467 184.521 137.629 185.041 137.952C185.561 138.271 185.959 138.713 186.237 139.278C186.515 139.843 186.654 140.495 186.654 141.233V141.377C186.654 142.115 186.515 142.769 186.237 143.339C185.959 143.904 185.561 144.346 185.041 144.665C184.521 144.984 183.899 145.144 183.175 145.144ZM183.175 143.612C183.521 143.612 183.804 143.519 184.022 143.332C184.241 143.145 184.403 142.885 184.508 142.553C184.613 142.215 184.665 141.824 184.665 141.377V141.233C184.665 140.796 184.613 140.411 184.508 140.078C184.403 139.741 184.239 139.479 184.016 139.292C183.797 139.101 183.512 139.005 183.161 139.005C182.819 139.005 182.537 139.101 182.313 139.292C182.09 139.479 181.926 139.741 181.821 140.078C181.721 140.411 181.671 140.796 181.671 141.233V141.377C181.671 141.824 181.721 142.215 181.821 142.553C181.926 142.89 182.09 143.152 182.313 143.339C182.537 143.521 182.824 143.612 183.175 143.612ZM187.304 145V143.804L188.268 143.599V135.744L187.201 135.539V134.336H190.264V143.599L191.228 143.804V145H187.304ZM200.189 145.144C199.401 145.144 198.706 145.007 198.104 144.733C197.507 144.46 197.043 144.063 196.71 143.544C196.377 143.024 196.211 142.393 196.211 141.65V136.455L195.151 136.25V135.047H199.273V136.25L198.207 136.455V141.65C198.207 142.088 198.287 142.452 198.446 142.744C198.606 143.036 198.834 143.255 199.13 143.4C199.426 143.542 199.779 143.612 200.189 143.612C200.609 143.612 200.966 143.542 201.263 143.4C201.563 143.255 201.794 143.036 201.953 142.744C202.113 142.452 202.192 142.088 202.192 141.65V136.455L201.133 136.25V135.047H205.255V136.25L204.188 136.455V141.65C204.188 142.393 204.02 143.027 203.683 143.551C203.35 144.07 202.883 144.467 202.281 144.74C201.684 145.009 200.987 145.144 200.189 145.144ZM205.877 145V143.804L206.834 143.599V139.012L205.774 138.807V137.604H208.693L208.782 138.663C209.028 138.285 209.331 137.991 209.691 137.781C210.056 137.572 210.471 137.467 210.936 137.467C211.669 137.467 212.243 137.701 212.658 138.171C213.073 138.64 213.28 139.376 213.28 140.379V143.599L214.237 143.804V145H210.423V143.804L211.277 143.599V140.386C211.277 139.889 211.179 139.538 210.983 139.333C210.787 139.123 210.496 139.019 210.108 139.019C209.821 139.019 209.571 139.08 209.356 139.203C209.147 139.322 208.971 139.493 208.83 139.716V143.599L209.637 143.804V145H205.877ZM214.832 145V143.804L215.796 143.599V139.012L214.729 138.807V137.604H217.792V143.599L218.749 143.804V145H214.832ZM215.728 136.038V134.336H217.792V136.038H215.728ZM219.255 145V143.804L220.321 143.599V139.005H219.221V137.604H220.321V137.098C220.321 136.168 220.604 135.452 221.169 134.951C221.739 134.445 222.538 134.192 223.568 134.192C223.924 134.192 224.275 134.229 224.621 134.302C224.967 134.37 225.368 134.47 225.824 134.603L225.537 136.175C225.223 136.079 224.922 136.004 224.635 135.949C224.348 135.89 224.061 135.86 223.773 135.86C223.277 135.86 222.91 135.965 222.673 136.175C222.436 136.384 222.317 136.692 222.317 137.098V137.604H226.802V143.599L227.861 143.804V145H223.842V143.804L224.806 143.599V139.005H222.317V143.599L223.281 143.804V145H219.255ZM232.106 145.144C231.4 145.144 230.783 144.989 230.254 144.679C229.725 144.364 229.315 143.934 229.023 143.387C228.736 142.84 228.593 142.215 228.593 141.514V141.24C228.593 140.507 228.729 139.857 229.003 139.292C229.276 138.722 229.661 138.276 230.158 137.952C230.66 137.624 231.25 137.462 231.929 137.467C232.599 137.467 233.161 137.599 233.617 137.863C234.073 138.128 234.419 138.508 234.656 139.005C234.893 139.502 235.012 140.103 235.012 140.81V141.896H230.664L230.65 141.938C230.678 142.261 230.757 142.55 230.89 142.806C231.026 143.056 231.218 143.255 231.464 143.4C231.71 143.542 232.008 143.612 232.359 143.612C232.724 143.612 233.063 143.567 233.378 143.476C233.697 143.38 234.007 143.241 234.308 143.059L234.848 144.289C234.542 144.535 234.157 144.74 233.692 144.904C233.232 145.064 232.703 145.144 232.106 145.144ZM230.678 140.577H233.146V140.399C233.146 140.099 233.104 139.841 233.022 139.627C232.945 139.408 232.817 139.24 232.64 139.121C232.466 139.003 232.241 138.943 231.963 138.943C231.699 138.943 231.475 139.014 231.293 139.155C231.111 139.292 230.967 139.481 230.862 139.723C230.762 139.964 230.694 140.238 230.657 140.543L230.678 140.577ZM238.778 145.144C238.19 145.144 237.685 144.993 237.261 144.692C236.841 144.387 236.52 143.963 236.297 143.421C236.074 142.874 235.962 142.236 235.962 141.507V141.363C235.962 140.584 236.074 139.903 236.297 139.319C236.525 138.736 236.848 138.283 237.268 137.959C237.687 137.631 238.188 137.467 238.771 137.467C239.177 137.467 239.533 137.549 239.838 137.713C240.143 137.872 240.408 138.1 240.631 138.396V135.744L239.564 135.539V134.336H240.631H242.627V143.599L243.584 143.804V145H240.897L240.747 144.098C240.515 144.439 240.237 144.699 239.913 144.877C239.594 145.055 239.216 145.144 238.778 145.144ZM239.373 143.592C239.651 143.592 239.895 143.533 240.104 143.414C240.314 143.296 240.49 143.125 240.631 142.901V139.764C240.494 139.527 240.321 139.344 240.111 139.217C239.902 139.085 239.66 139.019 239.387 139.019C239.054 139.019 238.781 139.119 238.566 139.319C238.357 139.515 238.202 139.789 238.102 140.14C238.006 140.491 237.958 140.898 237.958 141.363V141.507C237.958 142.154 238.067 142.664 238.286 143.038C238.505 143.407 238.867 143.592 239.373 143.592ZM247.604 145V143.804L248.663 143.599V136.455L247.604 136.25V135.047H251.719V136.25L250.659 136.455V143.599L251.719 143.804V145H247.604ZM252.457 145V143.804L253.414 143.599V139.012L252.354 138.807V137.604H255.273L255.362 138.663C255.608 138.285 255.911 137.991 256.271 137.781C256.636 137.572 257.051 137.467 257.516 137.467C258.249 137.467 258.824 137.701 259.238 138.171C259.653 138.64 259.86 139.376 259.86 140.379V143.599L260.817 143.804V145H257.003V143.804L257.857 143.599V140.386C257.857 139.889 257.759 139.538 257.563 139.333C257.368 139.123 257.076 139.019 256.688 139.019C256.401 139.019 256.151 139.08 255.937 139.203C255.727 139.322 255.551 139.493 255.41 139.716V143.599L256.217 143.804V145H252.457ZM264.871 145.144C264.16 145.144 263.545 144.984 263.025 144.665C262.51 144.346 262.114 143.906 261.836 143.346C261.558 142.781 261.419 142.136 261.419 141.411V141.206C261.419 140.477 261.56 139.832 261.843 139.271C262.125 138.711 262.524 138.271 263.039 137.952C263.554 137.629 264.16 137.467 264.857 137.467C265.523 137.467 266.095 137.572 266.573 137.781C267.056 137.986 267.448 138.226 267.749 138.499L267.735 140.618H266.231L265.965 139.299C265.855 139.189 265.716 139.101 265.548 139.032C265.379 138.964 265.208 138.93 265.035 138.93C264.671 138.93 264.368 139.021 264.126 139.203C263.889 139.385 263.711 139.645 263.593 139.982C263.474 140.32 263.415 140.728 263.415 141.206V141.411C263.415 141.917 263.481 142.334 263.613 142.662C263.745 142.986 263.921 143.225 264.14 143.38C264.363 143.535 264.611 143.612 264.885 143.612C265.236 143.612 265.516 143.521 265.726 143.339C265.94 143.152 266.086 142.89 266.163 142.553H267.872L267.893 142.594C267.815 143.118 267.66 143.571 267.428 143.954C267.2 144.337 266.876 144.631 266.457 144.836C266.042 145.041 265.514 145.144 264.871 145.144ZM268.679 145V143.804L269.643 143.599V135.744L268.576 135.539V134.336H271.639V143.599L272.603 143.804V145H268.679ZM276.396 145.144C275.617 145.144 275.004 144.897 274.558 144.405C274.116 143.909 273.895 143.138 273.895 142.095V139.012L273.081 138.807V137.604H273.895H275.891V142.108C275.891 142.637 275.982 143.018 276.164 143.25C276.351 143.478 276.631 143.592 277.005 143.592C277.301 143.592 277.563 143.535 277.791 143.421C278.019 143.302 278.206 143.136 278.352 142.922V139.012L277.47 138.807V137.604H278.352H280.348V143.599L281.236 143.804V145H278.598L278.461 144.063C278.229 144.41 277.937 144.676 277.586 144.863C277.235 145.05 276.839 145.144 276.396 145.144ZM285.153 145.144C284.602 145.144 284.087 145.091 283.608 144.986C283.134 144.882 282.679 144.731 282.241 144.535L282.221 142.443H283.608L283.875 143.51C284.03 143.587 284.199 143.649 284.381 143.694C284.568 143.74 284.78 143.763 285.017 143.763C285.463 143.763 285.778 143.69 285.96 143.544C286.142 143.398 286.233 143.216 286.233 142.997C286.233 142.792 286.135 142.612 285.939 142.457C285.748 142.298 285.363 142.159 284.784 142.04C283.909 141.858 283.264 141.575 282.85 141.192C282.435 140.81 282.228 140.32 282.228 139.723C282.228 139.312 282.33 138.939 282.535 138.602C282.745 138.264 283.062 137.993 283.485 137.788C283.914 137.583 284.461 137.48 285.126 137.48C285.682 137.48 286.19 137.535 286.65 137.645C287.115 137.749 287.505 137.888 287.819 138.062L287.84 140.085H286.459L286.247 139.114C286.124 139.023 285.978 138.955 285.81 138.909C285.646 138.864 285.459 138.841 285.249 138.841C284.898 138.841 284.629 138.911 284.442 139.053C284.256 139.194 284.162 139.376 284.162 139.6C284.162 139.727 284.194 139.846 284.258 139.955C284.326 140.064 284.458 140.167 284.654 140.263C284.85 140.358 285.135 140.45 285.509 140.536C286.425 140.746 287.092 141.026 287.512 141.377C287.931 141.723 288.141 142.211 288.141 142.84C288.141 143.528 287.89 144.084 287.389 144.508C286.892 144.932 286.147 145.144 285.153 145.144ZM288.988 145V143.804L289.952 143.599V139.012L288.886 138.807V137.604H291.948V143.599L292.905 143.804V145H288.988ZM289.884 136.038V134.336H291.948V136.038H289.884ZM296.33 145L294.095 138.93L293.295 138.807V137.604H296.884V138.8L296.104 138.937L297.219 142.293L297.39 142.867H297.431L297.622 142.293L298.846 138.943L297.937 138.8V137.604H301.519V138.807L300.698 138.943L298.36 145H296.33ZM305.497 145.144C304.791 145.144 304.173 144.989 303.645 144.679C303.116 144.364 302.706 143.934 302.414 143.387C302.127 142.84 301.983 142.215 301.983 141.514V141.24C301.983 140.507 302.12 139.857 302.394 139.292C302.667 138.722 303.052 138.276 303.549 137.952C304.05 137.624 304.64 137.462 305.319 137.467C305.989 137.467 306.552 137.599 307.008 137.863C307.464 138.128 307.81 138.508 308.047 139.005C308.284 139.502 308.402 140.103 308.402 140.81V141.896H304.055L304.041 141.938C304.068 142.261 304.148 142.55 304.28 142.806C304.417 143.056 304.608 143.255 304.854 143.4C305.101 143.542 305.399 143.612 305.75 143.612C306.115 143.612 306.454 143.567 306.769 143.476C307.088 143.38 307.397 143.241 307.698 143.059L308.238 144.289C307.933 144.535 307.548 144.74 307.083 144.904C306.623 145.064 306.094 145.144 305.497 145.144ZM304.068 140.577H306.536V140.399C306.536 140.099 306.495 139.841 306.413 139.627C306.336 139.408 306.208 139.24 306.03 139.121C305.857 139.003 305.632 138.943 305.354 138.943C305.089 138.943 304.866 139.014 304.684 139.155C304.501 139.292 304.358 139.481 304.253 139.723C304.153 139.964 304.084 140.238 304.048 140.543L304.068 140.577ZM312.709 145V143.804L313.769 143.599V136.455L312.709 136.25V135.047H313.769H315.765H316.968V136.25L315.765 136.455V143.469H318.574L318.67 142.013H320.194V145H312.709ZM323.435 145.144C322.701 145.144 322.118 144.948 321.685 144.556C321.252 144.159 321.035 143.621 321.035 142.942C321.035 142.478 321.16 142.07 321.411 141.719C321.666 141.368 322.04 141.092 322.532 140.892C323.029 140.691 323.64 140.591 324.364 140.591H325.342V140.044C325.342 139.688 325.237 139.401 325.027 139.183C324.822 138.959 324.512 138.848 324.098 138.848C323.883 138.848 323.692 138.875 323.523 138.93C323.355 138.98 323.2 139.053 323.059 139.148L322.901 140.126H321.466L321.438 138.205C321.826 137.986 322.245 137.809 322.696 137.672C323.147 137.535 323.651 137.467 324.207 137.467C325.173 137.467 325.937 137.692 326.497 138.144C327.058 138.59 327.338 139.23 327.338 140.064V143.113C327.338 143.214 327.338 143.314 327.338 143.414C327.342 143.51 327.352 143.603 327.365 143.694L328.138 143.804V145H325.663C325.613 144.872 325.563 144.736 325.513 144.59C325.463 144.444 325.426 144.298 325.403 144.152C325.166 144.453 324.886 144.695 324.562 144.877C324.243 145.055 323.868 145.144 323.435 145.144ZM323.968 143.667C324.246 143.667 324.51 143.605 324.761 143.482C325.011 143.355 325.205 143.188 325.342 142.983V141.814H324.357C323.92 141.814 323.587 141.915 323.359 142.115C323.136 142.316 323.024 142.557 323.024 142.84C323.024 143.104 323.106 143.309 323.271 143.455C323.439 143.596 323.672 143.667 323.968 143.667ZM328.773 145V143.804L329.73 143.599V139.012L328.671 138.807V137.604H331.59L331.679 138.663C331.925 138.285 332.228 137.991 332.588 137.781C332.952 137.572 333.367 137.467 333.832 137.467C334.566 137.467 335.14 137.701 335.555 138.171C335.969 138.64 336.177 139.376 336.177 140.379V143.599L337.134 143.804V145H333.319V143.804L334.174 143.599V140.386C334.174 139.889 334.076 139.538 333.88 139.333C333.684 139.123 333.392 139.019 333.005 139.019C332.718 139.019 332.467 139.08 332.253 139.203C332.043 139.322 331.868 139.493 331.727 139.716V143.599L332.533 143.804V145H328.773ZM340.969 147.987C340.595 147.987 340.176 147.939 339.711 147.844C339.246 147.748 338.836 147.611 338.48 147.434L338.85 146.012C339.169 146.148 339.506 146.256 339.861 146.333C340.221 146.415 340.556 146.456 340.866 146.456C341.399 146.456 341.789 146.308 342.035 146.012C342.286 145.715 342.411 145.303 342.411 144.774V144.289C342.192 144.567 341.935 144.779 341.639 144.925C341.342 145.071 341.003 145.144 340.62 145.144C340.019 145.144 339.501 144.993 339.068 144.692C338.635 144.387 338.305 143.961 338.077 143.414C337.849 142.867 337.735 142.231 337.735 141.507V141.363C337.735 140.584 337.849 139.903 338.077 139.319C338.305 138.736 338.631 138.283 339.055 137.959C339.479 137.631 339.987 137.467 340.579 137.467C341.021 137.467 341.402 137.56 341.721 137.747C342.04 137.929 342.311 138.191 342.534 138.533L342.678 137.604H344.414V144.781C344.414 145.433 344.275 145.998 343.997 146.477C343.724 146.955 343.329 147.326 342.814 147.591C342.299 147.855 341.684 147.987 340.969 147.987ZM341.181 143.592C341.463 143.592 341.707 143.537 341.912 143.428C342.117 143.314 342.284 143.15 342.411 142.936V139.723C342.284 139.499 342.115 139.326 341.905 139.203C341.7 139.08 341.461 139.019 341.188 139.019C340.846 139.019 340.568 139.119 340.354 139.319C340.139 139.515 339.982 139.789 339.882 140.14C339.782 140.486 339.731 140.894 339.731 141.363V141.507C339.731 142.154 339.843 142.664 340.066 143.038C340.29 143.407 340.661 143.592 341.181 143.592ZM344.161 139.046L343.293 137.604H345.282V138.807L344.161 139.046ZM349.035 145.144C348.256 145.144 347.643 144.897 347.196 144.405C346.754 143.909 346.533 143.138 346.533 142.095V139.012L345.72 138.807V137.604H346.533H348.529V142.108C348.529 142.637 348.62 143.018 348.803 143.25C348.99 143.478 349.27 143.592 349.644 143.592C349.94 143.592 350.202 143.535 350.43 143.421C350.658 143.302 350.844 143.136 350.99 142.922V139.012L350.108 138.807V137.604H350.99H352.986V143.599L353.875 143.804V145H351.236L351.1 144.063C350.867 144.41 350.576 144.676 350.225 144.863C349.874 145.05 349.477 145.144 349.035 145.144ZM357.095 145.144C356.361 145.144 355.778 144.948 355.345 144.556C354.912 144.159 354.695 143.621 354.695 142.942C354.695 142.478 354.821 142.07 355.071 141.719C355.326 141.368 355.7 141.092 356.192 140.892C356.689 140.691 357.3 140.591 358.024 140.591H359.002V140.044C359.002 139.688 358.897 139.401 358.688 139.183C358.482 138.959 358.173 138.848 357.758 138.848C357.544 138.848 357.352 138.875 357.184 138.93C357.015 138.98 356.86 139.053 356.719 139.148L356.562 140.126H355.126L355.099 138.205C355.486 137.986 355.905 137.809 356.356 137.672C356.808 137.535 357.311 137.467 357.867 137.467C358.833 137.467 359.597 137.692 360.157 138.144C360.718 138.59 360.998 139.23 360.998 140.064V143.113C360.998 143.214 360.998 143.314 360.998 143.414C361.003 143.51 361.012 143.603 361.025 143.694L361.798 143.804V145H359.323C359.273 144.872 359.223 144.736 359.173 144.59C359.123 144.444 359.086 144.298 359.063 144.152C358.826 144.453 358.546 144.695 358.223 144.877C357.904 145.055 357.528 145.144 357.095 145.144ZM357.628 143.667C357.906 143.667 358.17 143.605 358.421 143.482C358.672 143.355 358.865 143.188 359.002 142.983V141.814H358.018C357.58 141.814 357.247 141.915 357.02 142.115C356.796 142.316 356.685 142.557 356.685 142.84C356.685 143.104 356.767 143.309 356.931 143.455C357.099 143.596 357.332 143.667 357.628 143.667ZM365.77 147.987C365.396 147.987 364.977 147.939 364.512 147.844C364.047 147.748 363.637 147.611 363.281 147.434L363.65 146.012C363.969 146.148 364.307 146.256 364.662 146.333C365.022 146.415 365.357 146.456 365.667 146.456C366.2 146.456 366.59 146.308 366.836 146.012C367.087 145.715 367.212 145.303 367.212 144.774V144.289C366.993 144.567 366.736 144.779 366.439 144.925C366.143 145.071 365.804 145.144 365.421 145.144C364.819 145.144 364.302 144.993 363.869 144.692C363.436 144.387 363.106 143.961 362.878 143.414C362.65 142.867 362.536 142.231 362.536 141.507V141.363C362.536 140.584 362.65 139.903 362.878 139.319C363.106 138.736 363.432 138.283 363.855 137.959C364.279 137.631 364.787 137.467 365.38 137.467C365.822 137.467 366.202 137.56 366.521 137.747C366.84 137.929 367.112 138.191 367.335 138.533L367.479 137.604H369.215V144.781C369.215 145.433 369.076 145.998 368.798 146.477C368.524 146.955 368.13 147.326 367.615 147.591C367.1 147.855 366.485 147.987 365.77 147.987ZM365.981 143.592C366.264 143.592 366.508 143.537 366.713 143.428C366.918 143.314 367.084 143.15 367.212 142.936V139.723C367.084 139.499 366.916 139.326 366.706 139.203C366.501 139.08 366.262 139.019 365.988 139.019C365.646 139.019 365.368 139.119 365.154 139.319C364.94 139.515 364.783 139.789 364.683 140.14C364.582 140.486 364.532 140.894 364.532 141.363V141.507C364.532 142.154 364.644 142.664 364.867 143.038C365.09 143.407 365.462 143.592 365.981 143.592ZM368.962 139.046L368.094 137.604H370.083V138.807L368.962 139.046ZM374.157 145.144C373.451 145.144 372.833 144.989 372.305 144.679C371.776 144.364 371.366 143.934 371.074 143.387C370.787 142.84 370.644 142.215 370.644 141.514V141.24C370.644 140.507 370.78 139.857 371.054 139.292C371.327 138.722 371.712 138.276 372.209 137.952C372.71 137.624 373.3 137.462 373.979 137.467C374.649 137.467 375.212 137.599 375.668 137.863C376.124 138.128 376.47 138.508 376.707 139.005C376.944 139.502 377.062 140.103 377.062 140.81V141.896H372.715L372.701 141.938C372.729 142.261 372.808 142.55 372.94 142.806C373.077 143.056 373.269 143.255 373.515 143.4C373.761 143.542 374.059 143.612 374.41 143.612C374.775 143.612 375.114 143.567 375.429 143.476C375.748 143.38 376.058 143.241 376.358 143.059L376.898 144.289C376.593 144.535 376.208 144.74 375.743 144.904C375.283 145.064 374.754 145.144 374.157 145.144ZM372.729 140.577H375.196V140.399C375.196 140.099 375.155 139.841 375.073 139.627C374.996 139.408 374.868 139.24 374.69 139.121C374.517 139.003 374.292 138.943 374.014 138.943C373.749 138.943 373.526 139.014 373.344 139.155C373.161 139.292 373.018 139.481 372.913 139.723C372.813 139.964 372.744 140.238 372.708 140.543L372.729 140.577ZM229.769 163V161.804L230.835 161.599V154.585H229.023L228.914 155.774H227.403V153.047H236.283V155.774H234.766L234.656 154.585H232.831V161.599L233.904 161.804V163H229.769ZM236.728 163V161.804L237.685 161.599V157.012L236.625 156.807V155.604H239.544L239.619 156.52L239.633 156.684C239.815 156.283 240.041 155.979 240.31 155.774C240.578 155.569 240.9 155.467 241.273 155.467C241.392 155.467 241.522 155.478 241.663 155.501C241.804 155.519 241.93 155.544 242.039 155.576L241.827 157.415L240.836 157.36C240.553 157.347 240.323 157.395 240.146 157.504C239.972 157.613 239.817 157.771 239.681 157.976V161.599L240.638 161.804V163H236.728ZM244.972 163.144C244.238 163.144 243.655 162.948 243.222 162.556C242.789 162.159 242.572 161.621 242.572 160.942C242.572 160.478 242.698 160.07 242.948 159.719C243.203 159.368 243.577 159.092 244.069 158.892C244.566 158.691 245.177 158.591 245.901 158.591H246.879V158.044C246.879 157.688 246.774 157.401 246.564 157.183C246.359 156.959 246.049 156.848 245.635 156.848C245.421 156.848 245.229 156.875 245.061 156.93C244.892 156.98 244.737 157.053 244.596 157.148L244.438 158.126H243.003L242.976 156.205C243.363 155.986 243.782 155.809 244.233 155.672C244.685 155.535 245.188 155.467 245.744 155.467C246.71 155.467 247.474 155.692 248.034 156.144C248.595 156.59 248.875 157.23 248.875 158.064V161.113C248.875 161.214 248.875 161.314 248.875 161.414C248.88 161.51 248.889 161.603 248.902 161.694L249.675 161.804V163H247.2C247.15 162.872 247.1 162.736 247.05 162.59C247 162.444 246.963 162.298 246.94 162.152C246.703 162.453 246.423 162.695 246.1 162.877C245.781 163.055 245.405 163.144 244.972 163.144ZM245.505 161.667C245.783 161.667 246.047 161.605 246.298 161.482C246.549 161.355 246.742 161.188 246.879 160.983V159.814H245.895C245.457 159.814 245.124 159.915 244.896 160.115C244.673 160.316 244.562 160.557 244.562 160.84C244.562 161.104 244.644 161.309 244.808 161.455C244.976 161.596 245.209 161.667 245.505 161.667ZM250.311 163V161.804L251.268 161.599V157.012L250.208 156.807V155.604H253.127L253.216 156.663C253.462 156.285 253.765 155.991 254.125 155.781C254.49 155.572 254.904 155.467 255.369 155.467C256.103 155.467 256.677 155.701 257.092 156.171C257.507 156.64 257.714 157.376 257.714 158.379V161.599L258.671 161.804V163H254.856V161.804L255.711 161.599V158.386C255.711 157.889 255.613 157.538 255.417 157.333C255.221 157.123 254.929 157.019 254.542 157.019C254.255 157.019 254.004 157.08 253.79 157.203C253.58 157.322 253.405 157.493 253.264 157.716V161.599L254.07 161.804V163H250.311ZM262.499 163.144C261.948 163.144 261.433 163.091 260.954 162.986C260.48 162.882 260.024 162.731 259.587 162.535L259.566 160.443H260.954L261.221 161.51C261.376 161.587 261.544 161.649 261.727 161.694C261.913 161.74 262.125 161.763 262.362 161.763C262.809 161.763 263.123 161.69 263.306 161.544C263.488 161.398 263.579 161.216 263.579 160.997C263.579 160.792 263.481 160.612 263.285 160.457C263.094 160.298 262.709 160.159 262.13 160.04C261.255 159.858 260.61 159.575 260.195 159.192C259.781 158.81 259.573 158.32 259.573 157.723C259.573 157.312 259.676 156.939 259.881 156.602C260.09 156.264 260.407 155.993 260.831 155.788C261.259 155.583 261.806 155.48 262.472 155.48C263.028 155.48 263.536 155.535 263.996 155.645C264.461 155.749 264.851 155.888 265.165 156.062L265.186 158.085H263.805L263.593 157.114C263.47 157.023 263.324 156.955 263.155 156.909C262.991 156.864 262.804 156.841 262.595 156.841C262.244 156.841 261.975 156.911 261.788 157.053C261.601 157.194 261.508 157.376 261.508 157.6C261.508 157.727 261.54 157.846 261.604 157.955C261.672 158.064 261.804 158.167 262 158.263C262.196 158.358 262.481 158.45 262.854 158.536C263.771 158.746 264.438 159.026 264.857 159.377C265.277 159.723 265.486 160.211 265.486 160.84C265.486 161.528 265.236 162.084 264.734 162.508C264.238 162.932 263.493 163.144 262.499 163.144ZM266.286 163V161.804L267.25 161.599V153.744L266.184 153.539V152.336H269.246V161.599L270.21 161.804V163H266.286ZM273.341 163.144C272.607 163.144 272.024 162.948 271.591 162.556C271.158 162.159 270.941 161.621 270.941 160.942C270.941 160.478 271.067 160.07 271.317 159.719C271.573 159.368 271.946 159.092 272.438 158.892C272.935 158.691 273.546 158.591 274.271 158.591H275.248V158.044C275.248 157.688 275.143 157.401 274.934 157.183C274.729 156.959 274.419 156.848 274.004 156.848C273.79 156.848 273.598 156.875 273.43 156.93C273.261 156.98 273.106 157.053 272.965 157.148L272.808 158.126H271.372L271.345 156.205C271.732 155.986 272.151 155.809 272.603 155.672C273.054 155.535 273.557 155.467 274.113 155.467C275.079 155.467 275.843 155.692 276.403 156.144C276.964 156.59 277.244 157.23 277.244 158.064V161.113C277.244 161.214 277.244 161.314 277.244 161.414C277.249 161.51 277.258 161.603 277.271 161.694L278.044 161.804V163H275.569C275.519 162.872 275.469 162.736 275.419 162.59C275.369 162.444 275.332 162.298 275.31 162.152C275.073 162.453 274.792 162.695 274.469 162.877C274.15 163.055 273.774 163.144 273.341 163.144ZM273.874 161.667C274.152 161.667 274.416 161.605 274.667 161.482C274.918 161.355 275.111 161.188 275.248 160.983V159.814H274.264C273.826 159.814 273.493 159.915 273.266 160.115C273.042 160.316 272.931 160.557 272.931 160.84C272.931 161.104 273.013 161.309 273.177 161.455C273.345 161.596 273.578 161.667 273.874 161.667ZM281.414 163.144C280.726 163.144 280.195 162.954 279.821 162.576C279.452 162.198 279.268 161.599 279.268 160.778V157.005H278.249V155.604H279.268V153.792H281.257V155.604H282.617V157.005H281.257V160.771C281.257 161.059 281.316 161.264 281.435 161.387C281.558 161.51 281.724 161.571 281.934 161.571C282.048 161.571 282.166 161.564 282.289 161.551C282.417 161.533 282.526 161.514 282.617 161.496L282.788 162.938C282.583 162.998 282.36 163.046 282.118 163.082C281.881 163.123 281.646 163.144 281.414 163.144ZM286.903 163.144C286.174 163.144 285.548 162.984 285.023 162.665C284.499 162.346 284.098 161.904 283.82 161.339C283.542 160.769 283.403 160.115 283.403 159.377V159.233C283.403 158.5 283.542 157.85 283.82 157.285C284.098 156.715 284.497 156.271 285.017 155.952C285.541 155.629 286.165 155.467 286.89 155.467C287.623 155.467 288.25 155.629 288.77 155.952C289.289 156.271 289.688 156.713 289.966 157.278C290.244 157.843 290.383 158.495 290.383 159.233V159.377C290.383 160.115 290.244 160.769 289.966 161.339C289.688 161.904 289.289 162.346 288.77 162.665C288.25 162.984 287.628 163.144 286.903 163.144ZM286.903 161.612C287.25 161.612 287.532 161.519 287.751 161.332C287.97 161.145 288.132 160.885 288.236 160.553C288.341 160.215 288.394 159.824 288.394 159.377V159.233C288.394 158.796 288.341 158.411 288.236 158.078C288.132 157.741 287.967 157.479 287.744 157.292C287.525 157.101 287.241 157.005 286.89 157.005C286.548 157.005 286.265 157.101 286.042 157.292C285.819 157.479 285.655 157.741 285.55 158.078C285.45 158.411 285.399 158.796 285.399 159.233V159.377C285.399 159.824 285.45 160.215 285.55 160.553C285.655 160.89 285.819 161.152 286.042 161.339C286.265 161.521 286.552 161.612 286.903 161.612ZM291.429 163V161.804L292.386 161.599V157.012L291.326 156.807V155.604H294.245L294.32 156.52L294.334 156.684C294.516 156.283 294.742 155.979 295.011 155.774C295.28 155.569 295.601 155.467 295.975 155.467C296.093 155.467 296.223 155.478 296.364 155.501C296.506 155.519 296.631 155.544 296.74 155.576L296.528 157.415L295.537 157.36C295.255 157.347 295.024 157.395 294.847 157.504C294.674 157.613 294.519 157.771 294.382 157.976V161.599L295.339 161.804V163H291.429Z" fill="white"/>
<ellipse cx="73.9939" cy="67.4924" rx="57.2649" ry="57.2015" fill="#D9D9D9"/>
<path d="M132.347 67.3389C132.347 98.5244 106.63 123.82 74.8891 123.82C43.148 123.82 17.4314 98.5244 17.4314 67.3389C17.4314 36.1533 43.148 10.858 74.8891 10.858C106.63 10.858 132.347 36.1533 132.347 67.3389Z" fill="#EBEBEB" stroke="#EBEBEB"/>
<path d="M131.481 68.7699L131.482 68.252L130.964 68.2709L87.0479 69.8774L121.374 35.7869L121.648 35.5143L121.454 35.1808C117.516 28.4178 110.866 22.6802 103.621 18.4346C96.3745 14.1882 88.4864 11.4071 82.0264 10.5904C69.1552 8.96319 56.1155 11.6143 44.97 18.1257C33.8244 24.6372 25.2092 34.6375 20.4888 46.5454C15.7685 58.4534 15.213 71.5878 18.9096 83.8703C22.6062 96.1527 30.3436 106.881 40.8961 114.36C51.4485 121.838 64.2144 125.641 77.1747 125.166C90.1351 124.691 102.551 119.966 112.459 111.736C117.446 107.593 122.191 100.767 125.691 93.0435C129.193 85.3162 131.471 76.6397 131.481 68.7699ZM98.284 38.0722L66.4166 70.6322L36.7405 71.7178C36.0571 65.6687 36.8606 59.5167 39.1283 53.796C42.227 45.9791 47.8831 39.4126 55.2032 35.1361C62.5234 30.8594 71.0897 29.1172 79.5469 30.1864C83.8248 30.7272 87.0893 31.3043 90.0373 32.4817C92.8582 33.6084 95.4139 35.2953 98.284 38.0722ZM45.5523 91.9497C43.6971 89.7776 42.0932 87.4053 40.7725 84.8773L52.6546 84.6932L45.5523 91.9497ZM76.3684 105.423C69.2777 105.683 62.2755 103.994 56.1282 100.585L72.4385 84.3866L110.219 83.8012C109.822 84.8939 108.9 86.6074 107.402 88.6315C105.596 91.0707 102.988 93.9146 99.5572 96.5928L99.5512 96.5975L99.5454 96.6024C93.0393 102.007 84.8838 105.111 76.3684 105.423Z" fill="#E6AF2E" stroke="black"/>
</svg>
