<svg width="404" height="174" viewBox="0 0 404 174" fill="none" xmlns="http://www.w3.org/2000/svg">
<rect x="4" y="1.98297" width="400" height="172.017" rx="10" fill="#41518A"/>
<rect x="4.5" y="2.48297" width="399" height="171.017" rx="9.5" stroke="black" stroke-opacity="0.1"/>
<path d="M0 10.2929C0 4.77008 4.47715 0.292938 10 0.292938H158.283L158.984 5.34878C171.241 93.697 103.145 172.733 13.9554 173.678L10.1059 173.719C4.54193 173.777 0 169.283 0 163.719V10.2929Z" fill="#EBEBEB"/>
<path d="M190.569 107.5C187.769 107.5 185.235 107.05 182.969 106.15C180.735 105.25 178.802 103.983 177.169 102.35C175.535 100.717 174.285 98.8 173.419 96.6C172.552 94.4 172.119 92 172.119 89.4C172.119 86.8 172.585 84.4 173.519 82.2C174.452 80 175.752 78.0833 177.419 76.45C179.119 74.8167 181.119 73.55 183.419 72.65C185.752 71.75 188.302 71.3 191.069 71.3C192.969 71.3 194.769 71.55 196.469 72.05C198.202 72.55 199.769 73.2333 201.169 74.1C202.602 74.9667 203.785 75.95 204.719 77.05L199.469 82.55C198.269 81.4167 196.969 80.5333 195.569 79.9C194.202 79.2333 192.652 78.9 190.919 78.9C189.485 78.9 188.152 79.1667 186.919 79.7C185.719 80.2 184.652 80.9333 183.719 81.9C182.819 82.8333 182.119 83.95 181.619 85.25C181.119 86.5167 180.869 87.9 180.869 89.4C180.869 90.9 181.135 92.2833 181.669 93.55C182.202 94.8167 182.935 95.9333 183.869 96.9C184.835 97.8333 185.952 98.5667 187.219 99.1C188.485 99.6333 189.852 99.9 191.319 99.9C192.352 99.9 193.302 99.75 194.169 99.45C195.069 99.1167 195.852 98.6833 196.519 98.15C197.219 97.5833 197.752 96.9333 198.119 96.2C198.519 95.4333 198.719 94.6167 198.719 93.75V92.45L199.819 94.15H190.269V87.4H206.719C206.785 87.7667 206.835 88.2667 206.869 88.9C206.902 89.5333 206.919 90.15 206.919 90.75C206.952 91.3167 206.969 91.7667 206.969 92.1C206.969 94.3667 206.552 96.45 205.719 98.35C204.919 100.217 203.769 101.833 202.269 103.2C200.802 104.567 199.069 105.633 197.069 106.4C195.069 107.133 192.902 107.5 190.569 107.5ZM228.181 107.3C225.281 107.3 222.698 106.717 220.431 105.55C218.198 104.35 216.431 102.717 215.131 100.65C213.831 98.55 213.181 96.1833 213.181 93.55V71.95H221.781V93.1C221.781 94.3667 222.065 95.5 222.631 96.5C223.198 97.5 223.965 98.3 224.931 98.9C225.931 99.4667 227.015 99.75 228.181 99.75C229.415 99.75 230.531 99.4667 231.531 98.9C232.531 98.3 233.315 97.5 233.881 96.5C234.481 95.5 234.781 94.3667 234.781 93.1V71.95H243.081V93.55C243.081 96.1833 242.431 98.55 241.131 100.65C239.865 102.717 238.115 104.35 235.881 105.55C233.648 106.717 231.081 107.3 228.181 107.3ZM250.915 107V99.8H256.815V79.2H250.915V72H271.265V79.2H265.365V99.8H271.265V107H250.915ZM279.299 107V72H287.849V99.45H303.449V107H279.299ZM313.218 107V79.55H302.918V72H332.418V79.55H321.768V107H313.218Z" fill="white"/>
<path d="M331.768 107.16C330.659 107.16 329.72 106.968 328.952 106.584C328.195 106.189 327.544 105.635 327 104.92L328.664 103.048C329.187 103.763 329.715 104.243 330.248 104.488C330.782 104.733 331.331 104.856 331.896 104.856C332.184 104.856 332.44 104.819 332.664 104.744C332.899 104.669 333.08 104.563 333.208 104.424C333.347 104.275 333.416 104.099 333.416 103.896C333.416 103.736 333.374 103.592 333.288 103.464C333.214 103.336 333.107 103.224 332.968 103.128C332.83 103.032 332.67 102.947 332.488 102.872C332.307 102.787 332.104 102.717 331.88 102.664C331.667 102.611 331.448 102.563 331.224 102.52C330.606 102.392 330.067 102.227 329.608 102.024C329.16 101.811 328.782 101.56 328.472 101.272C328.174 100.973 327.95 100.637 327.8 100.264C327.651 99.88 327.576 99.448 327.576 98.968C327.576 98.2853 327.768 97.688 328.152 97.176C328.547 96.664 329.064 96.264 329.704 95.976C330.344 95.688 331.038 95.544 331.784 95.544C332.872 95.544 333.747 95.72 334.408 96.072C335.08 96.4133 335.614 96.888 336.008 97.496L334.312 99.144C333.982 98.7173 333.603 98.3973 333.176 98.184C332.76 97.9707 332.323 97.864 331.864 97.864C331.555 97.864 331.283 97.9013 331.048 97.976C330.814 98.0507 330.632 98.1627 330.504 98.312C330.387 98.4507 330.328 98.6213 330.328 98.824C330.328 98.9947 330.376 99.1493 330.472 99.288C330.579 99.416 330.723 99.528 330.904 99.624C331.086 99.72 331.294 99.8053 331.528 99.88C331.763 99.944 332.008 99.9973 332.264 100.04C332.851 100.157 333.379 100.312 333.848 100.504C334.328 100.696 334.739 100.936 335.08 101.224C335.422 101.501 335.683 101.832 335.864 102.216C336.056 102.589 336.152 103.021 336.152 103.512C336.152 104.28 335.966 104.936 335.592 105.48C335.219 106.024 334.702 106.44 334.04 106.728C333.379 107.016 332.622 107.16 331.768 107.16ZM340.629 107V98.216H337.333V95.8H346.773V98.216H343.365V107H340.629ZM353.301 107.16C352.458 107.16 351.679 107.016 350.965 106.728C350.261 106.44 349.647 106.04 349.125 105.528C348.613 105.005 348.213 104.392 347.925 103.688C347.637 102.973 347.493 102.195 347.493 101.352C347.493 100.52 347.637 99.752 347.925 99.048C348.213 98.3333 348.613 97.7147 349.125 97.192C349.647 96.6693 350.261 96.264 350.965 95.976C351.679 95.688 352.458 95.544 353.301 95.544C354.133 95.544 354.901 95.688 355.605 95.976C356.309 96.264 356.917 96.6693 357.429 97.192C357.951 97.7147 358.357 98.3333 358.645 99.048C358.933 99.752 359.077 100.525 359.077 101.368C359.077 102.2 358.933 102.968 358.645 103.672C358.357 104.376 357.951 104.989 357.429 105.512C356.917 106.035 356.309 106.44 355.605 106.728C354.901 107.016 354.133 107.16 353.301 107.16ZM353.301 104.584C353.738 104.584 354.138 104.504 354.501 104.344C354.863 104.184 355.178 103.96 355.445 103.672C355.722 103.384 355.935 103.043 356.085 102.648C356.234 102.253 356.309 101.827 356.309 101.368C356.309 100.899 356.234 100.467 356.085 100.072C355.935 99.6773 355.722 99.336 355.445 99.048C355.178 98.7493 354.863 98.52 354.501 98.36C354.138 98.2 353.738 98.12 353.301 98.12C352.863 98.12 352.458 98.2 352.085 98.36C351.722 98.52 351.402 98.7493 351.125 99.048C350.858 99.336 350.65 99.6773 350.501 100.072C350.351 100.467 350.277 100.899 350.277 101.368C350.277 101.987 350.405 102.541 350.661 103.032C350.927 103.512 351.285 103.891 351.733 104.168C352.191 104.445 352.714 104.584 353.301 104.584ZM361.15 107V95.8H365.998C366.702 95.8 367.331 95.96 367.886 96.28C368.44 96.6 368.878 97.0373 369.198 97.592C369.518 98.136 369.678 98.76 369.678 99.464C369.678 100.179 369.518 100.824 369.198 101.4C368.878 101.976 368.44 102.429 367.886 102.76C367.331 103.091 366.702 103.256 365.998 103.256H363.886V107H361.15ZM363.854 100.84H365.63C365.864 100.84 366.072 100.787 366.254 100.68C366.446 100.563 366.6 100.403 366.718 100.2C366.835 99.9973 366.894 99.768 366.894 99.512C366.894 99.2453 366.835 99.016 366.718 98.824C366.6 98.632 366.446 98.4827 366.254 98.376C366.072 98.2693 365.864 98.216 365.63 98.216H363.854V100.84Z" fill="white"/>
<path d="M150.677 144.144C149.688 144.144 148.845 143.938 148.147 143.528C147.45 143.118 146.915 142.549 146.541 141.819C146.172 141.09 145.987 140.245 145.987 139.283V138.941C145.987 137.948 146.172 137.073 146.541 136.316C146.91 135.56 147.432 134.97 148.106 134.546C148.785 134.118 149.588 133.903 150.513 133.903C151.228 133.903 151.9 134.001 152.529 134.197C153.158 134.393 153.705 134.687 154.17 135.079V137.287H152.693L152.413 135.954C152.235 135.799 151.996 135.676 151.695 135.585C151.395 135.489 151.05 135.441 150.663 135.441C150.107 135.441 149.626 135.59 149.221 135.886C148.82 136.177 148.512 136.585 148.298 137.109C148.084 137.629 147.977 138.235 147.977 138.928V139.283C147.977 139.958 148.081 140.546 148.291 141.047C148.505 141.544 148.817 141.929 149.228 142.202C149.638 142.476 150.141 142.612 150.738 142.612C151.089 142.612 151.41 142.58 151.702 142.517C151.998 142.448 152.242 142.366 152.434 142.271V140.582L151.012 140.473V139.071H154.437V143.098C153.994 143.412 153.461 143.665 152.837 143.856C152.217 144.048 151.497 144.144 150.677 144.144ZM158.627 144.144C157.848 144.144 157.235 143.897 156.788 143.405C156.346 142.909 156.125 142.138 156.125 141.095V138.012L155.312 137.807V136.604H156.125H158.121V141.108C158.121 141.637 158.212 142.018 158.395 142.25C158.581 142.478 158.862 142.592 159.235 142.592C159.532 142.592 159.794 142.535 160.021 142.421C160.249 142.302 160.436 142.136 160.582 141.922V138.012L159.7 137.807V136.604H160.582H162.578V142.599L163.467 142.804V144H160.828L160.691 143.063C160.459 143.41 160.167 143.676 159.816 143.863C159.465 144.05 159.069 144.144 158.627 144.144ZM164.15 144V142.804L165.114 142.599V138.012L164.048 137.807V136.604H167.11V142.599L168.067 142.804V144H164.15ZM165.046 135.038V133.336H167.11V135.038H165.046ZM171.581 144.144C170.993 144.144 170.487 143.993 170.063 143.692C169.644 143.387 169.323 142.963 169.1 142.421C168.876 141.874 168.765 141.236 168.765 140.507V140.363C168.765 139.584 168.876 138.903 169.1 138.319C169.327 137.736 169.651 137.283 170.07 136.959C170.49 136.631 170.991 136.467 171.574 136.467C171.98 136.467 172.335 136.549 172.641 136.713C172.946 136.872 173.21 137.1 173.434 137.396V134.744L172.367 134.539V133.336H173.434H175.43V142.599L176.387 142.804V144H173.7L173.55 143.098C173.317 143.439 173.039 143.699 172.716 143.877C172.397 144.055 172.019 144.144 171.581 144.144ZM172.176 142.592C172.454 142.592 172.698 142.533 172.907 142.414C173.117 142.296 173.292 142.125 173.434 141.901V138.764C173.297 138.527 173.124 138.344 172.914 138.217C172.704 138.085 172.463 138.019 172.189 138.019C171.857 138.019 171.583 138.119 171.369 138.319C171.16 138.515 171.005 138.789 170.904 139.14C170.809 139.491 170.761 139.898 170.761 140.363V140.507C170.761 141.154 170.87 141.664 171.089 142.038C171.308 142.407 171.67 142.592 172.176 142.592ZM180.55 144.144C179.843 144.144 179.226 143.989 178.697 143.679C178.169 143.364 177.758 142.934 177.467 142.387C177.18 141.84 177.036 141.215 177.036 140.514V140.24C177.036 139.507 177.173 138.857 177.446 138.292C177.72 137.722 178.105 137.276 178.602 136.952C179.103 136.624 179.693 136.462 180.372 136.467C181.042 136.467 181.605 136.599 182.061 136.863C182.516 137.128 182.863 137.508 183.1 138.005C183.337 138.502 183.455 139.103 183.455 139.81V140.896H179.107L179.094 140.938C179.121 141.261 179.201 141.55 179.333 141.806C179.47 142.056 179.661 142.255 179.907 142.4C180.153 142.542 180.452 142.612 180.803 142.612C181.167 142.612 181.507 142.567 181.821 142.476C182.14 142.38 182.45 142.241 182.751 142.059L183.291 143.289C182.986 143.535 182.601 143.74 182.136 143.904C181.675 144.064 181.147 144.144 180.55 144.144ZM179.121 139.577H181.589V139.399C181.589 139.099 181.548 138.841 181.466 138.627C181.388 138.408 181.261 138.24 181.083 138.121C180.91 138.003 180.684 137.943 180.406 137.943C180.142 137.943 179.919 138.014 179.736 138.155C179.554 138.292 179.41 138.481 179.306 138.723C179.205 138.964 179.137 139.238 179.101 139.543L179.121 139.577ZM187.222 144.144C186.634 144.144 186.128 143.993 185.704 143.692C185.285 143.387 184.964 142.963 184.74 142.421C184.517 141.874 184.405 141.236 184.405 140.507V140.363C184.405 139.584 184.517 138.903 184.74 138.319C184.968 137.736 185.292 137.283 185.711 136.959C186.13 136.631 186.632 136.467 187.215 136.467C187.62 136.467 187.976 136.549 188.281 136.713C188.587 136.872 188.851 137.1 189.074 137.396V134.744L188.008 134.539V133.336H189.074H191.07V142.599L192.027 142.804V144H189.341L189.19 143.098C188.958 143.439 188.68 143.699 188.356 143.877C188.037 144.055 187.659 144.144 187.222 144.144ZM187.816 142.592C188.094 142.592 188.338 142.533 188.548 142.414C188.757 142.296 188.933 142.125 189.074 141.901V138.764C188.938 138.527 188.764 138.344 188.555 138.217C188.345 138.085 188.104 138.019 187.83 138.019C187.497 138.019 187.224 138.119 187.01 138.319C186.8 138.515 186.645 138.789 186.545 139.14C186.449 139.491 186.401 139.898 186.401 140.363V140.507C186.401 141.154 186.511 141.664 186.729 142.038C186.948 142.407 187.311 142.592 187.816 142.592ZM200.969 144.144C200.18 144.144 199.485 144.007 198.884 143.733C198.287 143.46 197.822 143.063 197.489 142.544C197.157 142.024 196.99 141.393 196.99 140.65V135.455L195.931 135.25V134.047H200.053V135.25L198.986 135.455V140.65C198.986 141.088 199.066 141.452 199.226 141.744C199.385 142.036 199.613 142.255 199.909 142.4C200.205 142.542 200.559 142.612 200.969 142.612C201.388 142.612 201.746 142.542 202.042 142.4C202.343 142.255 202.573 142.036 202.732 141.744C202.892 141.452 202.972 141.088 202.972 140.65V135.455L201.912 135.25V134.047H206.034V135.25L204.968 135.455V140.65C204.968 141.393 204.799 142.027 204.462 142.551C204.129 143.07 203.662 143.467 203.061 143.74C202.464 144.009 201.766 144.144 200.969 144.144ZM206.656 144V142.804L207.613 142.599V138.012L206.554 137.807V136.604H209.473L209.562 137.663C209.808 137.285 210.111 136.991 210.471 136.781C210.835 136.572 211.25 136.467 211.715 136.467C212.449 136.467 213.023 136.701 213.438 137.171C213.852 137.64 214.06 138.376 214.06 139.379V142.599L215.017 142.804V144H211.202V142.804L212.057 142.599V139.386C212.057 138.889 211.959 138.538 211.763 138.333C211.567 138.123 211.275 138.019 210.888 138.019C210.601 138.019 210.35 138.08 210.136 138.203C209.926 138.322 209.751 138.493 209.609 138.716V142.599L210.416 142.804V144H206.656ZM215.611 144V142.804L216.575 142.599V138.012L215.509 137.807V136.604H218.571V142.599L219.528 142.804V144H215.611ZM216.507 135.038V133.336H218.571V135.038H216.507ZM220.034 144V142.804L221.101 142.599V138.005H220V136.604H221.101V136.098C221.101 135.168 221.383 134.452 221.948 133.951C222.518 133.445 223.318 133.192 224.348 133.192C224.703 133.192 225.054 133.229 225.4 133.302C225.747 133.37 226.148 133.47 226.604 133.603L226.316 135.175C226.002 135.079 225.701 135.004 225.414 134.949C225.127 134.89 224.84 134.86 224.553 134.86C224.056 134.86 223.689 134.965 223.452 135.175C223.215 135.384 223.097 135.692 223.097 136.098V136.604H227.581V142.599L228.641 142.804V144H224.621V142.804L225.585 142.599V138.005H223.097V142.599L224.061 142.804V144H220.034ZM232.886 144.144C232.179 144.144 231.562 143.989 231.033 143.679C230.505 143.364 230.094 142.934 229.803 142.387C229.516 141.84 229.372 141.215 229.372 140.514V140.24C229.372 139.507 229.509 138.857 229.782 138.292C230.056 137.722 230.441 137.276 230.938 136.952C231.439 136.624 232.029 136.462 232.708 136.467C233.378 136.467 233.941 136.599 234.396 136.863C234.852 137.128 235.199 137.508 235.436 138.005C235.673 138.502 235.791 139.103 235.791 139.81V140.896H231.443L231.43 140.938C231.457 141.261 231.537 141.55 231.669 141.806C231.806 142.056 231.997 142.255 232.243 142.4C232.489 142.542 232.788 142.612 233.139 142.612C233.503 142.612 233.843 142.567 234.157 142.476C234.476 142.38 234.786 142.241 235.087 142.059L235.627 143.289C235.322 143.535 234.937 143.74 234.472 143.904C234.011 144.064 233.483 144.144 232.886 144.144ZM231.457 139.577H233.925V139.399C233.925 139.099 233.884 138.841 233.802 138.627C233.724 138.408 233.597 138.24 233.419 138.121C233.246 138.003 233.02 137.943 232.742 137.943C232.478 137.943 232.255 138.014 232.072 138.155C231.89 138.292 231.746 138.481 231.642 138.723C231.541 138.964 231.473 139.238 231.437 139.543L231.457 139.577ZM239.558 144.144C238.97 144.144 238.464 143.993 238.04 143.692C237.621 143.387 237.299 142.963 237.076 142.421C236.853 141.874 236.741 141.236 236.741 140.507V140.363C236.741 139.584 236.853 138.903 237.076 138.319C237.304 137.736 237.628 137.283 238.047 136.959C238.466 136.631 238.967 136.467 239.551 136.467C239.956 136.467 240.312 136.549 240.617 136.713C240.923 136.872 241.187 137.1 241.41 137.396V134.744L240.344 134.539V133.336H241.41H243.406V142.599L244.363 142.804V144H241.677L241.526 143.098C241.294 143.439 241.016 143.699 240.692 143.877C240.373 144.055 239.995 144.144 239.558 144.144ZM240.152 142.592C240.43 142.592 240.674 142.533 240.884 142.414C241.093 142.296 241.269 142.125 241.41 141.901V138.764C241.273 138.527 241.1 138.344 240.891 138.217C240.681 138.085 240.439 138.019 240.166 138.019C239.833 138.019 239.56 138.119 239.346 138.319C239.136 138.515 238.981 138.789 238.881 139.14C238.785 139.491 238.737 139.898 238.737 140.363V140.507C238.737 141.154 238.847 141.664 239.065 142.038C239.284 142.407 239.646 142.592 240.152 142.592ZM248.383 144V142.804L249.442 142.599V135.455L248.383 135.25V134.047H252.498V135.25L251.438 135.455V142.599L252.498 142.804V144H248.383ZM253.236 144V142.804L254.193 142.599V138.012L253.134 137.807V136.604H256.053L256.142 137.663C256.388 137.285 256.691 136.991 257.051 136.781C257.415 136.572 257.83 136.467 258.295 136.467C259.029 136.467 259.603 136.701 260.018 137.171C260.432 137.64 260.64 138.376 260.64 139.379V142.599L261.597 142.804V144H257.782V142.804L258.637 142.599V139.386C258.637 138.889 258.539 138.538 258.343 138.333C258.147 138.123 257.855 138.019 257.468 138.019C257.181 138.019 256.93 138.08 256.716 138.203C256.506 138.322 256.331 138.493 256.189 138.716V142.599L256.996 142.804V144H253.236ZM265.65 144.144C264.939 144.144 264.324 143.984 263.805 143.665C263.29 143.346 262.893 142.906 262.615 142.346C262.337 141.781 262.198 141.136 262.198 140.411V140.206C262.198 139.477 262.34 138.832 262.622 138.271C262.905 137.711 263.303 137.271 263.818 136.952C264.333 136.629 264.939 136.467 265.637 136.467C266.302 136.467 266.874 136.572 267.353 136.781C267.836 136.986 268.228 137.226 268.528 137.499L268.515 139.618H267.011L266.744 138.299C266.635 138.189 266.496 138.101 266.327 138.032C266.159 137.964 265.988 137.93 265.814 137.93C265.45 137.93 265.147 138.021 264.905 138.203C264.668 138.385 264.491 138.645 264.372 138.982C264.254 139.32 264.194 139.728 264.194 140.206V140.411C264.194 140.917 264.26 141.334 264.393 141.662C264.525 141.986 264.7 142.225 264.919 142.38C265.142 142.535 265.391 142.612 265.664 142.612C266.015 142.612 266.295 142.521 266.505 142.339C266.719 142.152 266.865 141.89 266.942 141.553H268.651L268.672 141.594C268.594 142.118 268.439 142.571 268.207 142.954C267.979 143.337 267.656 143.631 267.236 143.836C266.822 144.041 266.293 144.144 265.65 144.144ZM269.458 144V142.804L270.422 142.599V134.744L269.355 134.539V133.336H272.418V142.599L273.382 142.804V144H269.458ZM277.176 144.144C276.396 144.144 275.784 143.897 275.337 143.405C274.895 142.909 274.674 142.138 274.674 141.095V138.012L273.86 137.807V136.604H274.674H276.67V141.108C276.67 141.637 276.761 142.018 276.943 142.25C277.13 142.478 277.41 142.592 277.784 142.592C278.08 142.592 278.342 142.535 278.57 142.421C278.798 142.302 278.985 142.136 279.131 141.922V138.012L278.249 137.807V136.604H279.131H281.127V142.599L282.016 142.804V144H279.377L279.24 143.063C279.008 143.41 278.716 143.676 278.365 143.863C278.014 144.05 277.618 144.144 277.176 144.144ZM285.933 144.144C285.381 144.144 284.866 144.091 284.388 143.986C283.914 143.882 283.458 143.731 283.021 143.535L283 141.443H284.388L284.654 142.51C284.809 142.587 284.978 142.649 285.16 142.694C285.347 142.74 285.559 142.763 285.796 142.763C286.243 142.763 286.557 142.69 286.739 142.544C286.922 142.398 287.013 142.216 287.013 141.997C287.013 141.792 286.915 141.612 286.719 141.457C286.527 141.298 286.142 141.159 285.563 141.04C284.688 140.858 284.044 140.575 283.629 140.192C283.214 139.81 283.007 139.32 283.007 138.723C283.007 138.312 283.109 137.939 283.314 137.602C283.524 137.264 283.841 136.993 284.265 136.788C284.693 136.583 285.24 136.48 285.905 136.48C286.461 136.48 286.969 136.535 287.43 136.645C287.895 136.749 288.284 136.888 288.599 137.062L288.619 139.085H287.238L287.026 138.114C286.903 138.023 286.757 137.955 286.589 137.909C286.425 137.864 286.238 137.841 286.028 137.841C285.677 137.841 285.409 137.911 285.222 138.053C285.035 138.194 284.941 138.376 284.941 138.6C284.941 138.727 284.973 138.846 285.037 138.955C285.105 139.064 285.238 139.167 285.434 139.263C285.63 139.358 285.914 139.45 286.288 139.536C287.204 139.746 287.872 140.026 288.291 140.377C288.71 140.723 288.92 141.211 288.92 141.84C288.92 142.528 288.669 143.084 288.168 143.508C287.671 143.932 286.926 144.144 285.933 144.144ZM289.768 144V142.804L290.731 142.599V138.012L289.665 137.807V136.604H292.728V142.599L293.685 142.804V144H289.768ZM290.663 135.038V133.336H292.728V135.038H290.663ZM297.109 144L294.874 137.93L294.074 137.807V136.604H297.663V137.8L296.884 137.937L297.998 141.293L298.169 141.867H298.21L298.401 141.293L299.625 137.943L298.716 137.8V136.604H302.298V137.807L301.478 137.943L299.14 144H297.109ZM306.276 144.144C305.57 144.144 304.952 143.989 304.424 143.679C303.895 143.364 303.485 142.934 303.193 142.387C302.906 141.84 302.763 141.215 302.763 140.514V140.24C302.763 139.507 302.899 138.857 303.173 138.292C303.446 137.722 303.831 137.276 304.328 136.952C304.829 136.624 305.42 136.462 306.099 136.467C306.769 136.467 307.331 136.599 307.787 136.863C308.243 137.128 308.589 137.508 308.826 138.005C309.063 138.502 309.182 139.103 309.182 139.81V140.896H304.834L304.82 140.938C304.848 141.261 304.927 141.55 305.06 141.806C305.196 142.056 305.388 142.255 305.634 142.4C305.88 142.542 306.178 142.612 306.529 142.612C306.894 142.612 307.233 142.567 307.548 142.476C307.867 142.38 308.177 142.241 308.478 142.059L309.018 143.289C308.712 143.535 308.327 143.74 307.862 143.904C307.402 144.064 306.873 144.144 306.276 144.144ZM304.848 139.577H307.315V139.399C307.315 139.099 307.274 138.841 307.192 138.627C307.115 138.408 306.987 138.24 306.81 138.121C306.636 138.003 306.411 137.943 306.133 137.943C305.868 137.943 305.645 138.014 305.463 138.155C305.281 138.292 305.137 138.481 305.032 138.723C304.932 138.964 304.864 139.238 304.827 139.543L304.848 139.577ZM313.488 144V142.804L314.548 142.599V135.455L313.488 135.25V134.047H314.548H316.544H317.747V135.25L316.544 135.455V142.469H319.354L319.449 141.013H320.974V144H313.488ZM324.214 144.144C323.48 144.144 322.897 143.948 322.464 143.556C322.031 143.159 321.814 142.621 321.814 141.942C321.814 141.478 321.94 141.07 322.19 140.719C322.446 140.368 322.819 140.092 323.312 139.892C323.808 139.691 324.419 139.591 325.144 139.591H326.121V139.044C326.121 138.688 326.016 138.401 325.807 138.183C325.602 137.959 325.292 137.848 324.877 137.848C324.663 137.848 324.471 137.875 324.303 137.93C324.134 137.98 323.979 138.053 323.838 138.148L323.681 139.126H322.245L322.218 137.205C322.605 136.986 323.024 136.809 323.476 136.672C323.927 136.535 324.43 136.467 324.986 136.467C325.952 136.467 326.716 136.692 327.276 137.144C327.837 137.59 328.117 138.23 328.117 139.064V142.113C328.117 142.214 328.117 142.314 328.117 142.414C328.122 142.51 328.131 142.603 328.145 142.694L328.917 142.804V144H326.442C326.392 143.872 326.342 143.736 326.292 143.59C326.242 143.444 326.205 143.298 326.183 143.152C325.946 143.453 325.665 143.695 325.342 143.877C325.023 144.055 324.647 144.144 324.214 144.144ZM324.747 142.667C325.025 142.667 325.289 142.605 325.54 142.482C325.791 142.355 325.984 142.188 326.121 141.983V140.814H325.137C324.699 140.814 324.367 140.915 324.139 141.115C323.915 141.316 323.804 141.557 323.804 141.84C323.804 142.104 323.886 142.309 324.05 142.455C324.218 142.596 324.451 142.667 324.747 142.667ZM329.553 144V142.804L330.51 142.599V138.012L329.45 137.807V136.604H332.369L332.458 137.663C332.704 137.285 333.007 136.991 333.367 136.781C333.732 136.572 334.146 136.467 334.611 136.467C335.345 136.467 335.919 136.701 336.334 137.171C336.749 137.64 336.956 138.376 336.956 139.379V142.599L337.913 142.804V144H334.099V142.804L334.953 142.599V139.386C334.953 138.889 334.855 138.538 334.659 138.333C334.463 138.123 334.172 138.019 333.784 138.019C333.497 138.019 333.246 138.08 333.032 138.203C332.823 138.322 332.647 138.493 332.506 138.716V142.599L333.312 142.804V144H329.553ZM341.748 146.987C341.374 146.987 340.955 146.939 340.49 146.844C340.025 146.748 339.615 146.611 339.26 146.434L339.629 145.012C339.948 145.148 340.285 145.256 340.641 145.333C341.001 145.415 341.336 145.456 341.646 145.456C342.179 145.456 342.568 145.308 342.814 145.012C343.065 144.715 343.19 144.303 343.19 143.774V143.289C342.972 143.567 342.714 143.779 342.418 143.925C342.122 144.071 341.782 144.144 341.399 144.144C340.798 144.144 340.281 143.993 339.848 143.692C339.415 143.387 339.084 142.961 338.856 142.414C338.629 141.867 338.515 141.231 338.515 140.507V140.363C338.515 139.584 338.629 138.903 338.856 138.319C339.084 137.736 339.41 137.283 339.834 136.959C340.258 136.631 340.766 136.467 341.358 136.467C341.8 136.467 342.181 136.56 342.5 136.747C342.819 136.929 343.09 137.191 343.313 137.533L343.457 136.604H345.193V143.781C345.193 144.433 345.054 144.998 344.776 145.477C344.503 145.955 344.109 146.326 343.594 146.591C343.079 146.855 342.464 146.987 341.748 146.987ZM341.96 142.592C342.243 142.592 342.486 142.537 342.691 142.428C342.896 142.314 343.063 142.15 343.19 141.936V138.723C343.063 138.499 342.894 138.326 342.685 138.203C342.479 138.08 342.24 138.019 341.967 138.019C341.625 138.019 341.347 138.119 341.133 138.319C340.919 138.515 340.761 138.789 340.661 139.14C340.561 139.486 340.511 139.894 340.511 140.363V140.507C340.511 141.154 340.622 141.664 340.846 142.038C341.069 142.407 341.44 142.592 341.96 142.592ZM344.94 138.046L344.072 136.604H346.062V137.807L344.94 138.046ZM349.814 144.144C349.035 144.144 348.422 143.897 347.976 143.405C347.534 142.909 347.312 142.138 347.312 141.095V138.012L346.499 137.807V136.604H347.312H349.309V141.108C349.309 141.637 349.4 142.018 349.582 142.25C349.769 142.478 350.049 142.592 350.423 142.592C350.719 142.592 350.981 142.535 351.209 142.421C351.437 142.302 351.624 142.136 351.77 141.922V138.012L350.888 137.807V136.604H351.77H353.766V142.599L354.654 142.804V144H352.016L351.879 143.063C351.646 143.41 351.355 143.676 351.004 143.863C350.653 144.05 350.257 144.144 349.814 144.144ZM357.874 144.144C357.14 144.144 356.557 143.948 356.124 143.556C355.691 143.159 355.475 142.621 355.475 141.942C355.475 141.478 355.6 141.07 355.851 140.719C356.106 140.368 356.479 140.092 356.972 139.892C357.468 139.691 358.079 139.591 358.804 139.591H359.781V139.044C359.781 138.688 359.676 138.401 359.467 138.183C359.262 137.959 358.952 137.848 358.537 137.848C358.323 137.848 358.132 137.875 357.963 137.93C357.794 137.98 357.639 138.053 357.498 138.148L357.341 139.126H355.905L355.878 137.205C356.265 136.986 356.685 136.809 357.136 136.672C357.587 136.535 358.09 136.467 358.646 136.467C359.613 136.467 360.376 136.692 360.937 137.144C361.497 137.59 361.777 138.23 361.777 139.064V142.113C361.777 142.214 361.777 142.314 361.777 142.414C361.782 142.51 361.791 142.603 361.805 142.694L362.577 142.804V144H360.103C360.052 143.872 360.002 143.736 359.952 143.59C359.902 143.444 359.866 143.298 359.843 143.152C359.606 143.453 359.326 143.695 359.002 143.877C358.683 144.055 358.307 144.144 357.874 144.144ZM358.407 142.667C358.685 142.667 358.95 142.605 359.2 142.482C359.451 142.355 359.645 142.188 359.781 141.983V140.814H358.797C358.359 140.814 358.027 140.915 357.799 141.115C357.576 141.316 357.464 141.557 357.464 141.84C357.464 142.104 357.546 142.309 357.71 142.455C357.879 142.596 358.111 142.667 358.407 142.667ZM366.549 146.987C366.175 146.987 365.756 146.939 365.291 146.844C364.826 146.748 364.416 146.611 364.061 146.434L364.43 145.012C364.749 145.148 365.086 145.256 365.441 145.333C365.801 145.415 366.136 145.456 366.446 145.456C366.979 145.456 367.369 145.308 367.615 145.012C367.866 144.715 367.991 144.303 367.991 143.774V143.289C367.772 143.567 367.515 143.779 367.219 143.925C366.923 144.071 366.583 144.144 366.2 144.144C365.599 144.144 365.081 143.993 364.648 143.692C364.215 143.387 363.885 142.961 363.657 142.414C363.429 141.867 363.315 141.231 363.315 140.507V140.363C363.315 139.584 363.429 138.903 363.657 138.319C363.885 137.736 364.211 137.283 364.635 136.959C365.059 136.631 365.567 136.467 366.159 136.467C366.601 136.467 366.982 136.56 367.301 136.747C367.62 136.929 367.891 137.191 368.114 137.533L368.258 136.604H369.994V143.781C369.994 144.433 369.855 144.998 369.577 145.477C369.304 145.955 368.91 146.326 368.395 146.591C367.88 146.855 367.264 146.987 366.549 146.987ZM366.761 142.592C367.043 142.592 367.287 142.537 367.492 142.428C367.697 142.314 367.864 142.15 367.991 141.936V138.723C367.864 138.499 367.695 138.326 367.485 138.203C367.28 138.08 367.041 138.019 366.768 138.019C366.426 138.019 366.148 138.119 365.934 138.319C365.719 138.515 365.562 138.789 365.462 139.14C365.362 139.486 365.312 139.894 365.312 140.363V140.507C365.312 141.154 365.423 141.664 365.646 142.038C365.87 142.407 366.241 142.592 366.761 142.592ZM369.741 138.046L368.873 136.604H370.862V137.807L369.741 138.046ZM374.937 144.144C374.23 144.144 373.613 143.989 373.084 143.679C372.555 143.364 372.145 142.934 371.854 142.387C371.566 141.84 371.423 141.215 371.423 140.514V140.24C371.423 139.507 371.56 138.857 371.833 138.292C372.106 137.722 372.492 137.276 372.988 136.952C373.49 136.624 374.08 136.462 374.759 136.467C375.429 136.467 375.992 136.599 376.447 136.863C376.903 137.128 377.249 137.508 377.486 138.005C377.723 138.502 377.842 139.103 377.842 139.81V140.896H373.494L373.48 140.938C373.508 141.261 373.588 141.55 373.72 141.806C373.856 142.056 374.048 142.255 374.294 142.4C374.54 142.542 374.839 142.612 375.189 142.612C375.554 142.612 375.894 142.567 376.208 142.476C376.527 142.38 376.837 142.241 377.138 142.059L377.678 143.289C377.372 143.535 376.987 143.74 376.522 143.904C376.062 144.064 375.534 144.144 374.937 144.144ZM373.508 139.577H375.976V139.399C375.976 139.099 375.935 138.841 375.853 138.627C375.775 138.408 375.647 138.24 375.47 138.121C375.297 138.003 375.071 137.943 374.793 137.943C374.529 137.943 374.305 138.014 374.123 138.155C373.941 138.292 373.797 138.481 373.692 138.723C373.592 138.964 373.524 139.238 373.487 139.543L373.508 139.577ZM229.769 162V160.804L230.835 160.599V153.585H229.023L228.914 154.774H227.403V152.047H236.283V154.774H234.766L234.656 153.585H232.831V160.599L233.904 160.804V162H229.769ZM236.728 162V160.804L237.685 160.599V156.012L236.625 155.807V154.604H239.544L239.619 155.52L239.633 155.684C239.815 155.283 240.041 154.979 240.31 154.774C240.578 154.569 240.9 154.467 241.273 154.467C241.392 154.467 241.522 154.478 241.663 154.501C241.804 154.519 241.93 154.544 242.039 154.576L241.827 156.415L240.836 156.36C240.553 156.347 240.323 156.395 240.146 156.504C239.972 156.613 239.817 156.771 239.681 156.976V160.599L240.638 160.804V162H236.728ZM244.972 162.144C244.238 162.144 243.655 161.948 243.222 161.556C242.789 161.159 242.572 160.621 242.572 159.942C242.572 159.478 242.698 159.07 242.948 158.719C243.203 158.368 243.577 158.092 244.069 157.892C244.566 157.691 245.177 157.591 245.901 157.591H246.879V157.044C246.879 156.688 246.774 156.401 246.564 156.183C246.359 155.959 246.049 155.848 245.635 155.848C245.421 155.848 245.229 155.875 245.061 155.93C244.892 155.98 244.737 156.053 244.596 156.148L244.438 157.126H243.003L242.976 155.205C243.363 154.986 243.782 154.809 244.233 154.672C244.685 154.535 245.188 154.467 245.744 154.467C246.71 154.467 247.474 154.692 248.034 155.144C248.595 155.59 248.875 156.23 248.875 157.064V160.113C248.875 160.214 248.875 160.314 248.875 160.414C248.88 160.51 248.889 160.603 248.902 160.694L249.675 160.804V162H247.2C247.15 161.872 247.1 161.736 247.05 161.59C247 161.444 246.963 161.298 246.94 161.152C246.703 161.453 246.423 161.695 246.1 161.877C245.781 162.055 245.405 162.144 244.972 162.144ZM245.505 160.667C245.783 160.667 246.047 160.605 246.298 160.482C246.549 160.355 246.742 160.188 246.879 159.983V158.814H245.895C245.457 158.814 245.124 158.915 244.896 159.115C244.673 159.316 244.562 159.557 244.562 159.84C244.562 160.104 244.644 160.309 244.808 160.455C244.976 160.596 245.209 160.667 245.505 160.667ZM250.311 162V160.804L251.268 160.599V156.012L250.208 155.807V154.604H253.127L253.216 155.663C253.462 155.285 253.765 154.991 254.125 154.781C254.49 154.572 254.904 154.467 255.369 154.467C256.103 154.467 256.677 154.701 257.092 155.171C257.507 155.64 257.714 156.376 257.714 157.379V160.599L258.671 160.804V162H254.856V160.804L255.711 160.599V157.386C255.711 156.889 255.613 156.538 255.417 156.333C255.221 156.123 254.929 156.019 254.542 156.019C254.255 156.019 254.004 156.08 253.79 156.203C253.58 156.322 253.405 156.493 253.264 156.716V160.599L254.07 160.804V162H250.311ZM262.499 162.144C261.948 162.144 261.433 162.091 260.954 161.986C260.48 161.882 260.024 161.731 259.587 161.535L259.566 159.443H260.954L261.221 160.51C261.376 160.587 261.544 160.649 261.727 160.694C261.913 160.74 262.125 160.763 262.362 160.763C262.809 160.763 263.123 160.69 263.306 160.544C263.488 160.398 263.579 160.216 263.579 159.997C263.579 159.792 263.481 159.612 263.285 159.457C263.094 159.298 262.709 159.159 262.13 159.04C261.255 158.858 260.61 158.575 260.195 158.192C259.781 157.81 259.573 157.32 259.573 156.723C259.573 156.312 259.676 155.939 259.881 155.602C260.09 155.264 260.407 154.993 260.831 154.788C261.259 154.583 261.806 154.48 262.472 154.48C263.028 154.48 263.536 154.535 263.996 154.645C264.461 154.749 264.851 154.888 265.165 155.062L265.186 157.085H263.805L263.593 156.114C263.47 156.023 263.324 155.955 263.155 155.909C262.991 155.864 262.804 155.841 262.595 155.841C262.244 155.841 261.975 155.911 261.788 156.053C261.601 156.194 261.508 156.376 261.508 156.6C261.508 156.727 261.54 156.846 261.604 156.955C261.672 157.064 261.804 157.167 262 157.263C262.196 157.358 262.481 157.45 262.854 157.536C263.771 157.746 264.438 158.026 264.857 158.377C265.277 158.723 265.486 159.211 265.486 159.84C265.486 160.528 265.236 161.084 264.734 161.508C264.238 161.932 263.493 162.144 262.499 162.144ZM266.286 162V160.804L267.25 160.599V152.744L266.184 152.539V151.336H269.246V160.599L270.21 160.804V162H266.286ZM273.341 162.144C272.607 162.144 272.024 161.948 271.591 161.556C271.158 161.159 270.941 160.621 270.941 159.942C270.941 159.478 271.067 159.07 271.317 158.719C271.573 158.368 271.946 158.092 272.438 157.892C272.935 157.691 273.546 157.591 274.271 157.591H275.248V157.044C275.248 156.688 275.143 156.401 274.934 156.183C274.729 155.959 274.419 155.848 274.004 155.848C273.79 155.848 273.598 155.875 273.43 155.93C273.261 155.98 273.106 156.053 272.965 156.148L272.808 157.126H271.372L271.345 155.205C271.732 154.986 272.151 154.809 272.603 154.672C273.054 154.535 273.557 154.467 274.113 154.467C275.079 154.467 275.843 154.692 276.403 155.144C276.964 155.59 277.244 156.23 277.244 157.064V160.113C277.244 160.214 277.244 160.314 277.244 160.414C277.249 160.51 277.258 160.603 277.271 160.694L278.044 160.804V162H275.569C275.519 161.872 275.469 161.736 275.419 161.59C275.369 161.444 275.332 161.298 275.31 161.152C275.073 161.453 274.792 161.695 274.469 161.877C274.15 162.055 273.774 162.144 273.341 162.144ZM273.874 160.667C274.152 160.667 274.416 160.605 274.667 160.482C274.918 160.355 275.111 160.188 275.248 159.983V158.814H274.264C273.826 158.814 273.493 158.915 273.266 159.115C273.042 159.316 272.931 159.557 272.931 159.84C272.931 160.104 273.013 160.309 273.177 160.455C273.345 160.596 273.578 160.667 273.874 160.667ZM281.414 162.144C280.726 162.144 280.195 161.954 279.821 161.576C279.452 161.198 279.268 160.599 279.268 159.778V156.005H278.249V154.604H279.268V152.792H281.257V154.604H282.617V156.005H281.257V159.771C281.257 160.059 281.316 160.264 281.435 160.387C281.558 160.51 281.724 160.571 281.934 160.571C282.048 160.571 282.166 160.564 282.289 160.551C282.417 160.533 282.526 160.514 282.617 160.496L282.788 161.938C282.583 161.998 282.36 162.046 282.118 162.082C281.881 162.123 281.646 162.144 281.414 162.144ZM286.903 162.144C286.174 162.144 285.548 161.984 285.023 161.665C284.499 161.346 284.098 160.904 283.82 160.339C283.542 159.769 283.403 159.115 283.403 158.377V158.233C283.403 157.5 283.542 156.85 283.82 156.285C284.098 155.715 284.497 155.271 285.017 154.952C285.541 154.629 286.165 154.467 286.89 154.467C287.623 154.467 288.25 154.629 288.77 154.952C289.289 155.271 289.688 155.713 289.966 156.278C290.244 156.843 290.383 157.495 290.383 158.233V158.377C290.383 159.115 290.244 159.769 289.966 160.339C289.688 160.904 289.289 161.346 288.77 161.665C288.25 161.984 287.628 162.144 286.903 162.144ZM286.903 160.612C287.25 160.612 287.532 160.519 287.751 160.332C287.97 160.145 288.132 159.885 288.236 159.553C288.341 159.215 288.394 158.824 288.394 158.377V158.233C288.394 157.796 288.341 157.411 288.236 157.078C288.132 156.741 287.967 156.479 287.744 156.292C287.525 156.101 287.241 156.005 286.89 156.005C286.548 156.005 286.265 156.101 286.042 156.292C285.819 156.479 285.655 156.741 285.55 157.078C285.45 157.411 285.399 157.796 285.399 158.233V158.377C285.399 158.824 285.45 159.215 285.55 159.553C285.655 159.89 285.819 160.152 286.042 160.339C286.265 160.521 286.552 160.612 286.903 160.612ZM291.429 162V160.804L292.386 160.599V156.012L291.326 155.807V154.604H294.245L294.32 155.52L294.334 155.684C294.516 155.283 294.742 154.979 295.011 154.774C295.28 154.569 295.601 154.467 295.975 154.467C296.093 154.467 296.223 154.478 296.364 154.501C296.506 154.519 296.631 154.544 296.74 154.576L296.528 156.415L295.537 156.36C295.255 156.347 295.024 156.395 294.847 156.504C294.674 156.613 294.519 156.771 294.382 156.976V160.599L295.339 160.804V162H291.429Z" fill="white"/>
<ellipse cx="73.9939" cy="66.4924" rx="57.2649" ry="57.2015" fill="#D9D9D9"/>
<path d="M132.347 66.3389C132.347 97.5244 106.63 122.82 74.8891 122.82C43.148 122.82 17.4314 97.5244 17.4314 66.3389C17.4314 35.1533 43.148 9.85803 74.8891 9.85803C106.63 9.85803 132.347 35.1533 132.347 66.3389Z" fill="#EBEBEB" stroke="#EBEBEB"/>
<path d="M131.391 68.2365L131.392 67.718L130.874 67.7373L87.3665 69.3511L121.389 35.4946L121.663 35.2224L121.47 34.8894C117.569 28.1755 110.982 22.481 103.804 18.2685C96.6247 14.0552 88.8088 11.2971 82.407 10.4889C69.6522 8.87871 56.7287 11.5169 45.6808 17.9872C34.6328 24.4577 26.0911 34.3911 21.4082 46.2168C16.7252 58.0425 16.169 71.0842 19.8268 83.2783C23.4847 95.4723 31.1474 106.122 41.6017 113.543C52.0559 120.965 64.7053 124.735 77.5493 124.257C90.3934 123.78 102.7 119.083 112.522 110.907C117.466 106.791 122.171 100.011 125.643 92.3407C129.116 84.6667 131.378 76.0507 131.391 68.2365ZM98.4988 37.7712L66.9097 70.1099L37.5096 71.2004C36.8358 65.1964 37.6349 59.0896 39.8838 53.4103C42.9576 45.6483 48.5647 39.1266 55.8194 34.8778C63.0741 30.629 71.5622 28.8957 79.9408 29.9534C84.1796 30.4885 87.4136 31.06 90.3335 32.2275C93.1267 33.3443 95.6573 35.017 98.4988 37.7712ZM41.5015 84.2716L53.2596 84.0839L46.2283 91.2821C44.3937 89.1289 42.8076 86.7775 41.5015 84.2716ZM76.7578 104.649C69.734 104.91 62.7988 103.237 56.7108 99.8569L72.876 83.7708L110.304 83.1732C109.91 84.2581 108.996 85.9574 107.513 87.9647C105.723 90.3871 103.138 93.2116 99.737 95.8721L99.731 95.8768L99.7251 95.8817C93.2765 101.25 85.1946 104.335 76.7578 104.649Z" fill="#E6AF2E" stroke="black"/>
</svg>
