<svg width="85" height="134" viewBox="0 0 85 134" fill="none" xmlns="http://www.w3.org/2000/svg">
<path d="M0 0H85V99C85 118.33 69.33 134 50 134H0V0Z" fill="#41518A"/>
<line x1="74" y1="91.5" x2="11" y2="91.5" stroke="#EEEEEE"/>
<path d="M22.1134 80.17C21.1614 80.17 20.3 80.017 19.5294 79.711C18.77 79.405 18.1127 78.9743 17.5574 78.419C17.002 77.8637 16.577 77.212 16.2824 76.464C15.9877 75.716 15.8404 74.9 15.8404 74.016C15.8404 73.132 15.999 72.316 16.3164 71.568C16.6337 70.82 17.0757 70.1683 17.6424 69.613C18.2204 69.0577 18.9004 68.627 19.6824 68.321C20.4757 68.015 21.3427 67.862 22.2834 67.862C22.9294 67.862 23.5414 67.947 24.1194 68.117C24.7087 68.287 25.2414 68.5193 25.7174 68.814C26.2047 69.1087 26.607 69.443 26.9244 69.817L25.1394 71.687C24.7314 71.3017 24.2894 71.0013 23.8134 70.786C23.3487 70.5593 22.8217 70.446 22.2324 70.446C21.745 70.446 21.2917 70.5367 20.8724 70.718C20.4644 70.888 20.1017 71.1373 19.7844 71.466C19.4784 71.7833 19.2404 72.163 19.0704 72.605C18.9004 73.0357 18.8154 73.506 18.8154 74.016C18.8154 74.526 18.906 74.9963 19.0874 75.427C19.2687 75.8577 19.518 76.2373 19.8354 76.566C20.164 76.8833 20.5437 77.1327 20.9744 77.314C21.405 77.4953 21.8697 77.586 22.3684 77.586C22.7197 77.586 23.0427 77.535 23.3374 77.433C23.6434 77.3197 23.9097 77.1723 24.1364 76.991C24.3744 76.7983 24.5557 76.5773 24.6804 76.328C24.8164 76.0673 24.8844 75.7897 24.8844 75.495V75.053L25.2584 75.631H22.0114V73.336H27.6044C27.627 73.4607 27.644 73.6307 27.6554 73.846C27.6667 74.0613 27.6724 74.271 27.6724 74.475C27.6837 74.6677 27.6894 74.8207 27.6894 74.934C27.6894 75.7047 27.5477 76.413 27.2644 77.059C26.9924 77.6937 26.6014 78.2433 26.0914 78.708C25.5927 79.1727 25.0034 79.5353 24.3234 79.796C23.6434 80.0453 22.9067 80.17 22.1134 80.17ZM34.9016 80.102C33.9156 80.102 33.0373 79.9037 32.2666 79.507C31.5073 79.099 30.9066 78.5437 30.4646 77.841C30.0226 77.127 29.8016 76.3223 29.8016 75.427V68.083H32.7256V75.274C32.7256 75.7047 32.822 76.09 33.0146 76.43C33.2073 76.77 33.468 77.042 33.7966 77.246C34.1366 77.4387 34.505 77.535 34.9016 77.535C35.321 77.535 35.7006 77.4387 36.0406 77.246C36.3806 77.042 36.647 76.77 36.8396 76.43C37.0436 76.09 37.1456 75.7047 37.1456 75.274V68.083H39.9676V75.427C39.9676 76.3223 39.7466 77.127 39.3046 77.841C38.874 78.5437 38.279 79.099 37.5196 79.507C36.7603 79.9037 35.8876 80.102 34.9016 80.102ZM42.631 80V77.552H44.637V70.548H42.631V68.1H49.55V70.548H47.544V77.552H49.55V80H42.631ZM52.2817 80V68.1H55.1887V77.433H60.4927V80H52.2817ZM63.814 80V70.667H60.312V68.1H70.342V70.667H66.721V80H63.814Z" fill="white"/>
<path d="M19.3459 106.07C18.9539 106.07 18.5992 106.007 18.2819 105.881C17.9692 105.755 17.6986 105.578 17.4699 105.349C17.2412 105.12 17.0662 104.852 16.9449 104.544C16.8236 104.236 16.7629 103.9 16.7629 103.536C16.7629 103.172 16.8282 102.836 16.9589 102.528C17.0896 102.22 17.2716 101.952 17.5049 101.723C17.7429 101.494 18.0229 101.317 18.3449 101.191C18.6716 101.065 19.0286 101.002 19.4159 101.002C19.6819 101.002 19.9339 101.037 20.1719 101.107C20.4146 101.177 20.6339 101.273 20.8299 101.394C21.0306 101.515 21.1962 101.653 21.3269 101.807L20.5919 102.577C20.4239 102.418 20.2419 102.295 20.0459 102.206C19.8546 102.113 19.6376 102.066 19.3949 102.066C19.1942 102.066 19.0076 102.103 18.8349 102.178C18.6669 102.248 18.5176 102.351 18.3869 102.486C18.2609 102.617 18.1629 102.773 18.0929 102.955C18.0229 103.132 17.9879 103.326 17.9879 103.536C17.9879 103.746 18.0252 103.94 18.0999 104.117C18.1746 104.294 18.2772 104.451 18.4079 104.586C18.5432 104.717 18.6996 104.819 18.8769 104.894C19.0542 104.969 19.2456 105.006 19.4509 105.006C19.5956 105.006 19.7286 104.985 19.8499 104.943C19.9759 104.896 20.0856 104.836 20.1789 104.761C20.2769 104.682 20.3516 104.591 20.4029 104.488C20.4589 104.381 20.4869 104.266 20.4869 104.145V103.963L20.6409 104.201H19.3039V103.256H21.6069C21.6162 103.307 21.6232 103.377 21.6279 103.466C21.6326 103.555 21.6349 103.641 21.6349 103.725C21.6396 103.804 21.6419 103.867 21.6419 103.914C21.6419 104.231 21.5836 104.523 21.4669 104.789C21.3549 105.05 21.1939 105.277 20.9839 105.468C20.7786 105.659 20.5359 105.809 20.2559 105.916C19.9759 106.019 19.6726 106.07 19.3459 106.07ZM24.1987 106.07C23.788 106.07 23.4287 105.988 23.1207 105.825C22.8173 105.662 22.5817 105.438 22.4137 105.153C22.2503 104.864 22.1687 104.535 22.1687 104.166C22.1687 103.877 22.2153 103.613 22.3087 103.375C22.402 103.132 22.5327 102.925 22.7007 102.752C22.8733 102.579 23.074 102.446 23.3027 102.353C23.536 102.255 23.7903 102.206 24.0657 102.206C24.327 102.206 24.565 102.253 24.7797 102.346C24.9943 102.439 25.181 102.57 25.3397 102.738C25.4983 102.906 25.6197 103.104 25.7037 103.333C25.7877 103.562 25.8273 103.811 25.8227 104.082L25.8157 104.39H22.8617L22.6937 103.753H24.8987L24.7797 103.879V103.739C24.7703 103.622 24.733 103.522 24.6677 103.438C24.607 103.349 24.5253 103.279 24.4227 103.228C24.3247 103.177 24.2127 103.151 24.0867 103.151C23.9 103.151 23.7413 103.188 23.6107 103.263C23.4847 103.333 23.389 103.436 23.3237 103.571C23.2583 103.706 23.2257 103.874 23.2257 104.075C23.2257 104.276 23.2677 104.453 23.3517 104.607C23.4403 104.761 23.5663 104.88 23.7297 104.964C23.8977 105.048 24.096 105.09 24.3247 105.09C24.4787 105.09 24.6187 105.067 24.7447 105.02C24.8707 104.973 25.006 104.894 25.1507 104.782L25.6757 105.524C25.531 105.645 25.377 105.748 25.2137 105.832C25.0503 105.911 24.8823 105.97 24.7097 106.007C24.5417 106.049 24.3713 106.07 24.1987 106.07ZM26.5361 106V102.283H27.6071L27.6491 103.039L27.4181 103.123C27.4694 102.955 27.5604 102.803 27.6911 102.668C27.8264 102.528 27.9874 102.416 28.1741 102.332C28.3607 102.248 28.5567 102.206 28.7621 102.206C29.0421 102.206 29.2777 102.264 29.4691 102.381C29.6604 102.493 29.8027 102.663 29.8961 102.892C29.9941 103.116 30.0431 103.394 30.0431 103.725V106H28.9161V103.809C28.9161 103.66 28.8951 103.536 28.8531 103.438C28.8111 103.34 28.7481 103.268 28.6641 103.221C28.5801 103.174 28.4751 103.153 28.3491 103.158C28.2511 103.158 28.1601 103.174 28.0761 103.207C27.9921 103.235 27.9174 103.279 27.8521 103.34C27.7914 103.396 27.7447 103.461 27.7121 103.536C27.6794 103.611 27.6631 103.695 27.6631 103.788V106H27.0961C26.9747 106 26.8651 106 26.7671 106C26.6737 106 26.5967 106 26.5361 106ZM32.2393 106.07C31.8846 106.07 31.5673 106.014 31.2873 105.902C31.0073 105.785 30.7833 105.627 30.6153 105.426L31.3013 104.838C31.4459 104.983 31.6093 105.09 31.7913 105.16C31.9733 105.225 32.1459 105.258 32.3093 105.258C32.3699 105.258 32.4236 105.251 32.4703 105.237C32.5169 105.223 32.5566 105.204 32.5893 105.181C32.6266 105.153 32.6546 105.123 32.6733 105.09C32.6919 105.053 32.7013 105.011 32.7013 104.964C32.7013 104.871 32.6616 104.801 32.5823 104.754C32.5449 104.731 32.4773 104.703 32.3793 104.67C32.2813 104.633 32.1553 104.595 32.0013 104.558C31.7819 104.502 31.5906 104.434 31.4273 104.355C31.2686 104.276 31.1379 104.185 31.0353 104.082C30.9419 103.989 30.8696 103.881 30.8183 103.76C30.7716 103.639 30.7483 103.503 30.7483 103.354C30.7483 103.125 30.8159 102.925 30.9513 102.752C31.0913 102.579 31.2733 102.446 31.4973 102.353C31.7213 102.255 31.9639 102.206 32.2253 102.206C32.4306 102.206 32.6243 102.229 32.8063 102.276C32.9929 102.323 33.1656 102.388 33.3243 102.472C33.4876 102.556 33.6323 102.656 33.7583 102.773L33.1633 103.438C33.0839 103.359 32.9906 103.289 32.8833 103.228C32.7759 103.163 32.6686 103.111 32.5613 103.074C32.4539 103.032 32.3536 103.011 32.2603 103.011C32.1903 103.011 32.1273 103.018 32.0713 103.032C32.0199 103.041 31.9756 103.06 31.9383 103.088C31.9056 103.111 31.8799 103.142 31.8613 103.179C31.8426 103.212 31.8333 103.249 31.8333 103.291C31.8333 103.342 31.8449 103.389 31.8683 103.431C31.8963 103.468 31.9336 103.503 31.9803 103.536C32.0223 103.559 32.0946 103.59 32.1973 103.627C32.3046 103.664 32.4446 103.706 32.6173 103.753C32.8366 103.814 33.0233 103.884 33.1773 103.963C33.3359 104.038 33.4619 104.126 33.5553 104.229C33.6346 104.308 33.6906 104.402 33.7233 104.509C33.7606 104.612 33.7793 104.724 33.7793 104.845C33.7793 105.083 33.7116 105.295 33.5763 105.482C33.4456 105.664 33.2636 105.809 33.0303 105.916C32.8016 106.019 32.5379 106.07 32.2393 106.07ZM36.1951 106.07C35.8124 106.07 35.4694 105.988 35.1661 105.825C34.8627 105.657 34.6247 105.428 34.4521 105.139C34.2794 104.845 34.1931 104.514 34.1931 104.145C34.1931 103.767 34.2794 103.433 34.4521 103.144C34.6247 102.85 34.8627 102.621 35.1661 102.458C35.4694 102.29 35.8124 102.206 36.1951 102.206C36.5824 102.206 36.9254 102.29 37.2241 102.458C37.5274 102.621 37.7654 102.85 37.9381 103.144C38.1107 103.433 38.1971 103.767 38.1971 104.145C38.1971 104.514 38.1107 104.845 37.9381 105.139C37.7654 105.428 37.5274 105.657 37.2241 105.825C36.9254 105.988 36.5824 106.07 36.1951 106.07ZM36.1951 105.104C36.3631 105.104 36.5101 105.062 36.6361 104.978C36.7667 104.894 36.8694 104.78 36.9441 104.635C37.0187 104.49 37.0537 104.327 37.0491 104.145C37.0537 103.954 37.0187 103.786 36.9441 103.641C36.8694 103.492 36.7667 103.377 36.6361 103.298C36.5101 103.214 36.3631 103.172 36.1951 103.172C36.0317 103.172 35.8847 103.214 35.7541 103.298C35.6234 103.382 35.5207 103.496 35.4461 103.641C35.3714 103.786 35.3341 103.954 35.3341 104.145C35.3341 104.327 35.3714 104.49 35.4461 104.635C35.5207 104.78 35.6234 104.894 35.7541 104.978C35.8847 105.062 36.0317 105.104 36.1951 105.104ZM38.9296 106V100.82H40.0566V106H38.9296ZM45.4749 106.042C45.0689 106.042 44.7073 105.96 44.3899 105.797C44.0773 105.629 43.8299 105.4 43.6479 105.111C43.4659 104.817 43.3749 104.486 43.3749 104.117V101.093H44.5789V104.054C44.5789 104.231 44.6186 104.39 44.6979 104.53C44.7773 104.67 44.8846 104.782 45.0199 104.866C45.1599 104.945 45.3116 104.985 45.4749 104.985C45.6476 104.985 45.8039 104.945 45.9439 104.866C46.0839 104.782 46.1936 104.67 46.2729 104.53C46.3569 104.39 46.3989 104.231 46.3989 104.054V101.093H47.5609V104.117C47.5609 104.486 47.4699 104.817 47.2879 105.111C47.1106 105.4 46.8656 105.629 46.5529 105.797C46.2403 105.96 45.8809 106.042 45.4749 106.042ZM48.6366 106V102.283H49.7076L49.7496 103.039L49.5186 103.123C49.57 102.955 49.661 102.803 49.7916 102.668C49.927 102.528 50.088 102.416 50.2746 102.332C50.4613 102.248 50.6573 102.206 50.8626 102.206C51.1426 102.206 51.3783 102.264 51.5696 102.381C51.761 102.493 51.9033 102.663 51.9966 102.892C52.0946 103.116 52.1436 103.394 52.1436 103.725V106H51.0166V103.809C51.0166 103.66 50.9956 103.536 50.9536 103.438C50.9116 103.34 50.8486 103.268 50.7646 103.221C50.6806 103.174 50.5756 103.153 50.4496 103.158C50.3516 103.158 50.2606 103.174 50.1766 103.207C50.0926 103.235 50.018 103.279 49.9526 103.34C49.892 103.396 49.8453 103.461 49.8126 103.536C49.78 103.611 49.7636 103.695 49.7636 103.788V106H49.1966C49.0753 106 48.9656 106 48.8676 106C48.7743 106 48.6973 106 48.6366 106ZM53.1498 106V102.283H54.2768V106H53.1498ZM53.7168 101.548C53.5022 101.548 53.3342 101.499 53.2128 101.401C53.0962 101.298 53.0378 101.154 53.0378 100.967C53.0378 100.794 53.0985 100.654 53.2198 100.547C53.3412 100.44 53.5068 100.386 53.7168 100.386C53.9222 100.386 54.0832 100.437 54.1998 100.54C54.3212 100.638 54.3818 100.78 54.3818 100.967C54.3818 101.14 54.3212 101.28 54.1998 101.387C54.0832 101.494 53.9222 101.548 53.7168 101.548ZM55.5739 106V102.101C55.5739 101.858 55.6252 101.641 55.7279 101.45C55.8352 101.254 55.9845 101.098 56.1759 100.981C56.3672 100.864 56.5889 100.806 56.8409 100.806C57.0135 100.806 57.1745 100.834 57.3239 100.89C57.4732 100.941 57.6062 101.014 57.7229 101.107L57.4009 101.926C57.3402 101.893 57.2819 101.868 57.2259 101.849C57.1699 101.83 57.1185 101.821 57.0719 101.821C56.9879 101.821 56.9179 101.835 56.8619 101.863C56.8059 101.891 56.7639 101.933 56.7359 101.989C56.7125 102.045 56.7009 102.115 56.7009 102.199V106H56.1339C56.0125 106 55.9029 106 55.8049 106C55.7115 106 55.6345 106 55.5739 106ZM55.0279 103.326V102.388H57.4639V103.326H55.0279ZM58.1639 106V102.283H59.2909V106H58.1639ZM58.7309 101.548C58.5162 101.548 58.3482 101.499 58.2269 101.401C58.1102 101.298 58.0519 101.154 58.0519 100.967C58.0519 100.794 58.1125 100.654 58.2339 100.547C58.3552 100.44 58.5209 100.386 58.7309 100.386C58.9362 100.386 59.0972 100.437 59.2139 100.54C59.3352 100.638 59.3959 100.78 59.3959 100.967C59.3959 101.14 59.3352 101.28 59.2139 101.387C59.0972 101.494 58.9362 101.548 58.7309 101.548ZM62.1176 106.07C61.7069 106.07 61.3476 105.988 61.0396 105.825C60.7363 105.662 60.5006 105.438 60.3326 105.153C60.1693 104.864 60.0876 104.535 60.0876 104.166C60.0876 103.877 60.1343 103.613 60.2276 103.375C60.3209 103.132 60.4516 102.925 60.6196 102.752C60.7923 102.579 60.9929 102.446 61.2216 102.353C61.4549 102.255 61.7093 102.206 61.9846 102.206C62.2459 102.206 62.4839 102.253 62.6986 102.346C62.9133 102.439 63.0999 102.57 63.2586 102.738C63.4173 102.906 63.5386 103.104 63.6226 103.333C63.7066 103.562 63.7463 103.811 63.7416 104.082L63.7346 104.39H60.7806L60.6126 103.753H62.8176L62.6986 103.879V103.739C62.6893 103.622 62.6519 103.522 62.5866 103.438C62.5259 103.349 62.4443 103.279 62.3416 103.228C62.2436 103.177 62.1316 103.151 62.0056 103.151C61.8189 103.151 61.6603 103.188 61.5296 103.263C61.4036 103.333 61.3079 103.436 61.2426 103.571C61.1773 103.706 61.1446 103.874 61.1446 104.075C61.1446 104.276 61.1866 104.453 61.2706 104.607C61.3593 104.761 61.4853 104.88 61.6486 104.964C61.8166 105.048 62.0149 105.09 62.2436 105.09C62.3976 105.09 62.5376 105.067 62.6636 105.02C62.7896 104.973 62.9249 104.894 63.0696 104.782L63.5946 105.524C63.4499 105.645 63.2959 105.748 63.1326 105.832C62.9693 105.911 62.8013 105.97 62.6286 106.007C62.4606 106.049 62.2903 106.07 62.1176 106.07ZM65.869 106.07C65.5517 106.07 65.2647 105.988 65.008 105.825C64.756 105.662 64.5577 105.435 64.413 105.146C64.2683 104.852 64.196 104.518 64.196 104.145C64.196 103.772 64.2683 103.44 64.413 103.151C64.5577 102.857 64.756 102.626 65.008 102.458C65.2647 102.29 65.554 102.206 65.876 102.206C66.044 102.206 66.205 102.232 66.359 102.283C66.5177 102.334 66.6577 102.404 66.779 102.493C66.905 102.582 67.0077 102.682 67.087 102.794C67.1663 102.906 67.2153 103.025 67.234 103.151L66.961 103.214V100.82H68.088V106H67.038L66.975 105.16L67.199 105.202C67.1897 105.314 67.1477 105.424 67.073 105.531C66.9983 105.634 66.898 105.727 66.772 105.811C66.6507 105.89 66.513 105.953 66.359 106C66.205 106.047 66.0417 106.07 65.869 106.07ZM66.149 105.139C66.3217 105.139 66.4687 105.099 66.59 105.02C66.716 104.936 66.814 104.819 66.884 104.67C66.954 104.521 66.989 104.346 66.989 104.145C66.989 103.94 66.954 103.762 66.884 103.613C66.814 103.464 66.716 103.349 66.59 103.27C66.4687 103.186 66.3217 103.144 66.149 103.144C65.981 103.144 65.834 103.186 65.708 103.27C65.5867 103.349 65.491 103.464 65.421 103.613C65.351 103.762 65.316 103.94 65.316 104.145C65.316 104.346 65.351 104.521 65.421 104.67C65.491 104.819 65.5867 104.936 65.708 105.02C65.834 105.099 65.981 105.139 66.149 105.139ZM8.3222 115V113.992H9.1482V111.108H8.3222V110.1H11.1712V111.108H10.3452V113.992H11.1712V115H8.3222ZM12.184 115V111.283H13.255L13.297 112.039L13.066 112.123C13.1173 111.955 13.2083 111.803 13.339 111.668C13.4743 111.528 13.6353 111.416 13.822 111.332C14.0087 111.248 14.2047 111.206 14.41 111.206C14.69 111.206 14.9257 111.264 15.117 111.381C15.3083 111.493 15.4507 111.663 15.544 111.892C15.642 112.116 15.691 112.394 15.691 112.725V115H14.564V112.809C14.564 112.66 14.543 112.536 14.501 112.438C14.459 112.34 14.396 112.268 14.312 112.221C14.228 112.174 14.123 112.153 13.997 112.158C13.899 112.158 13.808 112.174 13.724 112.207C13.64 112.235 13.5653 112.279 13.5 112.34C13.4393 112.396 13.3927 112.461 13.36 112.536C13.3273 112.611 13.311 112.695 13.311 112.788V115H12.744C12.6227 115 12.513 115 12.415 115C12.3217 115 12.2447 115 12.184 115ZM18.2652 115.07C17.9059 115.07 17.5815 114.986 17.2922 114.818C17.0075 114.65 16.7835 114.421 16.6202 114.132C16.4569 113.838 16.3752 113.509 16.3752 113.145C16.3752 112.772 16.4569 112.44 16.6202 112.151C16.7835 111.857 17.0075 111.626 17.2922 111.458C17.5815 111.29 17.9059 111.206 18.2652 111.206C18.5965 111.206 18.8999 111.267 19.1752 111.388C19.4552 111.505 19.6745 111.666 19.8332 111.871L19.2242 112.613C19.1635 112.534 19.0889 112.461 19.0002 112.396C18.9115 112.331 18.8135 112.279 18.7062 112.242C18.5989 112.205 18.4869 112.186 18.3702 112.186C18.1929 112.186 18.0365 112.228 17.9012 112.312C17.7659 112.391 17.6609 112.503 17.5862 112.648C17.5115 112.793 17.4742 112.956 17.4742 113.138C17.4742 113.315 17.5115 113.476 17.5862 113.621C17.6655 113.761 17.7729 113.873 17.9082 113.957C18.0435 114.041 18.1952 114.083 18.3632 114.083C18.4845 114.083 18.5965 114.067 18.6992 114.034C18.8019 114.001 18.8952 113.955 18.9792 113.894C19.0679 113.833 19.1495 113.761 19.2242 113.677L19.8332 114.419C19.6745 114.615 19.4529 114.774 19.1682 114.895C18.8835 115.012 18.5825 115.07 18.2652 115.07ZM20.4487 115V109.82H21.5757V115H20.4487ZM23.8075 115.07C23.5368 115.07 23.3035 115.012 23.1075 114.895C22.9115 114.774 22.7598 114.603 22.6525 114.384C22.5498 114.16 22.4985 113.892 22.4985 113.579V111.283H23.6255V113.411C23.6255 113.64 23.6791 113.819 23.7865 113.95C23.8985 114.076 24.0525 114.139 24.2485 114.139C24.3465 114.139 24.4351 114.125 24.5145 114.097C24.5938 114.064 24.6615 114.02 24.7175 113.964C24.7781 113.903 24.8248 113.833 24.8575 113.754C24.8901 113.675 24.9065 113.588 24.9065 113.495V111.283H26.0335V115H24.9765L24.9345 114.237L25.1375 114.153C25.0861 114.326 24.9928 114.482 24.8575 114.622C24.7268 114.762 24.5705 114.872 24.3885 114.951C24.2065 115.03 24.0128 115.07 23.8075 115.07ZM28.2915 115.07C27.9368 115.07 27.6195 115.014 27.3395 114.902C27.0595 114.785 26.8355 114.627 26.6675 114.426L27.3535 113.838C27.4982 113.983 27.6615 114.09 27.8435 114.16C28.0255 114.225 28.1982 114.258 28.3615 114.258C28.4222 114.258 28.4758 114.251 28.5225 114.237C28.5692 114.223 28.6088 114.204 28.6415 114.181C28.6788 114.153 28.7068 114.123 28.7255 114.09C28.7442 114.053 28.7535 114.011 28.7535 113.964C28.7535 113.871 28.7138 113.801 28.6345 113.754C28.5972 113.731 28.5295 113.703 28.4315 113.67C28.3335 113.633 28.2075 113.595 28.0535 113.558C27.8342 113.502 27.6428 113.434 27.4795 113.355C27.3208 113.276 27.1902 113.185 27.0875 113.082C26.9942 112.989 26.9218 112.881 26.8705 112.76C26.8238 112.639 26.8005 112.503 26.8005 112.354C26.8005 112.125 26.8682 111.925 27.0035 111.752C27.1435 111.579 27.3255 111.446 27.5495 111.353C27.7735 111.255 28.0162 111.206 28.2775 111.206C28.4828 111.206 28.6765 111.229 28.8585 111.276C29.0452 111.323 29.2178 111.388 29.3765 111.472C29.5398 111.556 29.6845 111.656 29.8105 111.773L29.2155 112.438C29.1362 112.359 29.0428 112.289 28.9355 112.228C28.8282 112.163 28.7208 112.111 28.6135 112.074C28.5062 112.032 28.4058 112.011 28.3125 112.011C28.2425 112.011 28.1795 112.018 28.1235 112.032C28.0722 112.041 28.0278 112.06 27.9905 112.088C27.9578 112.111 27.9322 112.142 27.9135 112.179C27.8948 112.212 27.8855 112.249 27.8855 112.291C27.8855 112.342 27.8972 112.389 27.9205 112.431C27.9485 112.468 27.9858 112.503 28.0325 112.536C28.0745 112.559 28.1468 112.59 28.2495 112.627C28.3568 112.664 28.4968 112.706 28.6695 112.753C28.8888 112.814 29.0755 112.884 29.2295 112.963C29.3882 113.038 29.5142 113.126 29.6075 113.229C29.6868 113.308 29.7428 113.402 29.7755 113.509C29.8128 113.612 29.8315 113.724 29.8315 113.845C29.8315 114.083 29.7638 114.295 29.6285 114.482C29.4978 114.664 29.3158 114.809 29.0825 114.916C28.8538 115.019 28.5902 115.07 28.2915 115.07ZM30.5673 115V111.283H31.6943V115H30.5673ZM31.1343 110.548C30.9197 110.548 30.7517 110.499 30.6303 110.401C30.5137 110.298 30.4553 110.154 30.4553 109.967C30.4553 109.794 30.516 109.654 30.6373 109.547C30.7587 109.44 30.9243 109.386 31.1343 109.386C31.3397 109.386 31.5007 109.437 31.6173 109.54C31.7387 109.638 31.7993 109.78 31.7993 109.967C31.7993 110.14 31.7387 110.28 31.6173 110.387C31.5007 110.494 31.3397 110.548 31.1343 110.548ZM33.9013 115L32.3473 111.283H33.5863L34.5103 114.034L34.2373 114.069L35.1893 111.283H36.4213L34.7833 115H33.9013ZM38.6738 115.07C38.2631 115.07 37.9038 114.988 37.5958 114.825C37.2924 114.662 37.0568 114.438 36.8888 114.153C36.7254 113.864 36.6438 113.535 36.6438 113.166C36.6438 112.877 36.6904 112.613 36.7838 112.375C36.8771 112.132 37.0078 111.925 37.1758 111.752C37.3484 111.579 37.5491 111.446 37.7778 111.353C38.0111 111.255 38.2654 111.206 38.5408 111.206C38.8021 111.206 39.0401 111.253 39.2548 111.346C39.4694 111.439 39.6561 111.57 39.8148 111.738C39.9734 111.906 40.0948 112.104 40.1788 112.333C40.2628 112.562 40.3024 112.811 40.2978 113.082L40.2908 113.39H37.3368L37.1688 112.753H39.3738L39.2548 112.879V112.739C39.2454 112.622 39.2081 112.522 39.1428 112.438C39.0821 112.349 39.0004 112.279 38.8978 112.228C38.7998 112.177 38.6878 112.151 38.5618 112.151C38.3751 112.151 38.2164 112.188 38.0858 112.263C37.9598 112.333 37.8641 112.436 37.7988 112.571C37.7334 112.706 37.7008 112.874 37.7008 113.075C37.7008 113.276 37.7428 113.453 37.8268 113.607C37.9154 113.761 38.0414 113.88 38.2048 113.964C38.3728 114.048 38.5711 114.09 38.7998 114.09C38.9538 114.09 39.0938 114.067 39.2198 114.02C39.3458 113.973 39.4811 113.894 39.6258 113.782L40.1508 114.524C40.0061 114.645 39.8521 114.748 39.6888 114.832C39.5254 114.911 39.3574 114.97 39.1848 115.007C39.0168 115.049 38.8464 115.07 38.6738 115.07ZM43.3585 115V110.1H44.5555V113.943H46.7395V115H43.3585ZM49.3633 115V112.718C49.3633 112.527 49.3096 112.387 49.2023 112.298C49.0996 112.205 48.9549 112.158 48.7683 112.158C48.5863 112.158 48.4229 112.193 48.2783 112.263C48.1383 112.328 48.0029 112.438 47.8723 112.592L47.2003 111.941C47.4243 111.712 47.6809 111.533 47.9703 111.402C48.2596 111.271 48.5746 111.206 48.9153 111.206C49.2279 111.206 49.4986 111.253 49.7273 111.346C49.9559 111.439 50.1333 111.582 50.2593 111.773C50.3853 111.964 50.4483 112.207 50.4483 112.501V115H49.3633ZM48.3973 115.07C48.1639 115.07 47.9516 115.023 47.7603 114.93C47.5736 114.837 47.4243 114.708 47.3123 114.545C47.2049 114.377 47.1513 114.181 47.1513 113.957C47.1513 113.766 47.1863 113.598 47.2563 113.453C47.3263 113.308 47.4289 113.189 47.5643 113.096C47.7043 112.998 47.8769 112.926 48.0823 112.879C48.2923 112.828 48.5349 112.802 48.8103 112.802H49.9373L49.8743 113.509H48.8383C48.7403 113.509 48.6539 113.518 48.5793 113.537C48.5046 113.551 48.4416 113.577 48.3903 113.614C48.3389 113.647 48.2993 113.686 48.2713 113.733C48.2479 113.78 48.2363 113.836 48.2363 113.901C48.2363 113.971 48.2549 114.032 48.2923 114.083C48.3296 114.134 48.3786 114.174 48.4393 114.202C48.5046 114.23 48.5793 114.244 48.6633 114.244C48.7846 114.244 48.8989 114.225 49.0063 114.188C49.1183 114.146 49.2163 114.088 49.3003 114.013C49.3889 113.938 49.4589 113.852 49.5103 113.754L49.7063 114.258C49.6083 114.417 49.4893 114.557 49.3493 114.678C49.2139 114.799 49.0646 114.895 48.9013 114.965C48.7426 115.035 48.5746 115.07 48.3973 115.07ZM51.3471 115V111.283H52.4181L52.4601 112.039L52.2291 112.123C52.2804 111.955 52.3714 111.803 52.5021 111.668C52.6374 111.528 52.7984 111.416 52.9851 111.332C53.1718 111.248 53.3678 111.206 53.5731 111.206C53.8531 111.206 54.0888 111.264 54.2801 111.381C54.4714 111.493 54.6138 111.663 54.7071 111.892C54.8051 112.116 54.8541 112.394 54.8541 112.725V115H53.7271V112.809C53.7271 112.66 53.7061 112.536 53.6641 112.438C53.6221 112.34 53.5591 112.268 53.4751 112.221C53.3911 112.174 53.2861 112.153 53.1601 112.158C53.0621 112.158 52.9711 112.174 52.8871 112.207C52.8031 112.235 52.7284 112.279 52.6631 112.34C52.6024 112.396 52.5558 112.461 52.5231 112.536C52.4904 112.611 52.4741 112.695 52.4741 112.788V115H51.9071C51.7858 115 51.6761 115 51.5781 115C51.4848 115 51.4078 115 51.3471 115ZM57.4983 116.61C57.1996 116.61 56.8986 116.566 56.5953 116.477C56.2966 116.393 56.054 116.281 55.8673 116.141L56.2593 115.343C56.4086 115.446 56.5766 115.525 56.7633 115.581C56.9546 115.642 57.153 115.672 57.3583 115.672C57.5963 115.672 57.79 115.637 57.9393 115.567C58.0886 115.497 58.1983 115.392 58.2683 115.252C58.343 115.112 58.3803 114.937 58.3803 114.727V114.111L58.5903 114.153C58.5623 114.298 58.483 114.433 58.3523 114.559C58.2263 114.685 58.07 114.785 57.8833 114.86C57.6966 114.935 57.5006 114.972 57.2953 114.972C56.9593 114.972 56.6583 114.895 56.3923 114.741C56.1263 114.582 55.9163 114.365 55.7623 114.09C55.613 113.81 55.5383 113.488 55.5383 113.124C55.5383 112.751 55.613 112.419 55.7623 112.13C55.9163 111.841 56.124 111.614 56.3853 111.451C56.6466 111.288 56.9406 111.206 57.2673 111.206C57.4026 111.206 57.5333 111.222 57.6593 111.255C57.79 111.283 57.909 111.325 58.0163 111.381C58.1283 111.437 58.2263 111.5 58.3103 111.57C58.399 111.64 58.4713 111.717 58.5273 111.801C58.5833 111.885 58.6183 111.969 58.6323 112.053L58.4013 112.123L58.4433 111.283H59.5143V114.692C59.5143 114.995 59.4676 115.266 59.3743 115.504C59.2856 115.742 59.1526 115.943 58.9753 116.106C58.8026 116.269 58.5926 116.393 58.3453 116.477C58.098 116.566 57.8156 116.61 57.4983 116.61ZM57.5263 114.097C57.7083 114.097 57.8646 114.057 57.9953 113.978C58.1306 113.899 58.2333 113.787 58.3033 113.642C58.378 113.497 58.4153 113.329 58.4153 113.138C58.4153 112.937 58.378 112.765 58.3033 112.62C58.2333 112.475 58.1306 112.363 57.9953 112.284C57.8646 112.2 57.7083 112.158 57.5263 112.158C57.3536 112.158 57.202 112.2 57.0713 112.284C56.9406 112.363 56.838 112.475 56.7633 112.62C56.6933 112.765 56.6583 112.935 56.6583 113.131C56.6583 113.327 56.6933 113.497 56.7633 113.642C56.838 113.787 56.9406 113.899 57.0713 113.978C57.202 114.057 57.3536 114.097 57.5263 114.097ZM61.6991 115.07C61.4284 115.07 61.1951 115.012 60.9991 114.895C60.8031 114.774 60.6514 114.603 60.5441 114.384C60.4414 114.16 60.3901 113.892 60.3901 113.579V111.283H61.5171V113.411C61.5171 113.64 61.5707 113.819 61.6781 113.95C61.7901 114.076 61.9441 114.139 62.1401 114.139C62.2381 114.139 62.3267 114.125 62.4061 114.097C62.4854 114.064 62.5531 114.02 62.6091 113.964C62.6697 113.903 62.7164 113.833 62.7491 113.754C62.7817 113.675 62.7981 113.588 62.7981 113.495V111.283H63.9251V115H62.8681L62.8261 114.237L63.0291 114.153C62.9777 114.326 62.8844 114.482 62.7491 114.622C62.6184 114.762 62.4621 114.872 62.2801 114.951C62.0981 115.03 61.9044 115.07 61.6991 115.07ZM66.9111 115V112.718C66.9111 112.527 66.8574 112.387 66.7501 112.298C66.6474 112.205 66.5028 112.158 66.3161 112.158C66.1341 112.158 65.9708 112.193 65.8261 112.263C65.6861 112.328 65.5508 112.438 65.4201 112.592L64.7481 111.941C64.9721 111.712 65.2288 111.533 65.5181 111.402C65.8074 111.271 66.1224 111.206 66.4631 111.206C66.7758 111.206 67.0464 111.253 67.2751 111.346C67.5038 111.439 67.6811 111.582 67.8071 111.773C67.9331 111.964 67.9961 112.207 67.9961 112.501V115H66.9111ZM65.9451 115.07C65.7118 115.07 65.4994 115.023 65.3081 114.93C65.1214 114.837 64.9721 114.708 64.8601 114.545C64.7528 114.377 64.6991 114.181 64.6991 113.957C64.6991 113.766 64.7341 113.598 64.8041 113.453C64.8741 113.308 64.9768 113.189 65.1121 113.096C65.2521 112.998 65.4248 112.926 65.6301 112.879C65.8401 112.828 66.0828 112.802 66.3581 112.802H67.4851L67.4221 113.509H66.3861C66.2881 113.509 66.2018 113.518 66.1271 113.537C66.0524 113.551 65.9894 113.577 65.9381 113.614C65.8868 113.647 65.8471 113.686 65.8191 113.733C65.7958 113.78 65.7841 113.836 65.7841 113.901C65.7841 113.971 65.8028 114.032 65.8401 114.083C65.8774 114.134 65.9264 114.174 65.9871 114.202C66.0524 114.23 66.1271 114.244 66.2111 114.244C66.3324 114.244 66.4468 114.225 66.5541 114.188C66.6661 114.146 66.7641 114.088 66.8481 114.013C66.9368 113.938 67.0068 113.852 67.0581 113.754L67.2541 114.258C67.1561 114.417 67.0371 114.557 66.8971 114.678C66.7618 114.799 66.6124 114.895 66.4491 114.965C66.2904 115.035 66.1224 115.07 65.9451 115.07ZM70.5959 116.61C70.2973 116.61 69.9963 116.566 69.6929 116.477C69.3943 116.393 69.1516 116.281 68.9649 116.141L69.3569 115.343C69.5063 115.446 69.6743 115.525 69.8609 115.581C70.0523 115.642 70.2506 115.672 70.4559 115.672C70.6939 115.672 70.8876 115.637 71.0369 115.567C71.1863 115.497 71.2959 115.392 71.3659 115.252C71.4406 115.112 71.4779 114.937 71.4779 114.727V114.111L71.6879 114.153C71.6599 114.298 71.5806 114.433 71.4499 114.559C71.3239 114.685 71.1676 114.785 70.9809 114.86C70.7943 114.935 70.5983 114.972 70.3929 114.972C70.0569 114.972 69.7559 114.895 69.4899 114.741C69.2239 114.582 69.0139 114.365 68.8599 114.09C68.7106 113.81 68.6359 113.488 68.6359 113.124C68.6359 112.751 68.7106 112.419 68.8599 112.13C69.0139 111.841 69.2216 111.614 69.4829 111.451C69.7443 111.288 70.0383 111.206 70.3649 111.206C70.5003 111.206 70.6309 111.222 70.7569 111.255C70.8876 111.283 71.0066 111.325 71.1139 111.381C71.2259 111.437 71.3239 111.5 71.4079 111.57C71.4966 111.64 71.5689 111.717 71.6249 111.801C71.6809 111.885 71.7159 111.969 71.7299 112.053L71.4989 112.123L71.5409 111.283H72.6119V114.692C72.6119 114.995 72.5653 115.266 72.4719 115.504C72.3833 115.742 72.2503 115.943 72.0729 116.106C71.9003 116.269 71.6903 116.393 71.4429 116.477C71.1956 116.566 70.9133 116.61 70.5959 116.61ZM70.6239 114.097C70.8059 114.097 70.9623 114.057 71.0929 113.978C71.2283 113.899 71.3309 113.787 71.4009 113.642C71.4756 113.497 71.5129 113.329 71.5129 113.138C71.5129 112.937 71.4756 112.765 71.4009 112.62C71.3309 112.475 71.2283 112.363 71.0929 112.284C70.9623 112.2 70.8059 112.158 70.6239 112.158C70.4513 112.158 70.2996 112.2 70.1689 112.284C70.0383 112.363 69.9356 112.475 69.8609 112.62C69.7909 112.765 69.7559 112.935 69.7559 113.131C69.7559 113.327 69.7909 113.497 69.8609 113.642C69.9356 113.787 70.0383 113.899 70.1689 113.978C70.2996 114.057 70.4513 114.097 70.6239 114.097ZM75.3554 115.07C74.9447 115.07 74.5854 114.988 74.2774 114.825C73.9741 114.662 73.7384 114.438 73.5704 114.153C73.4071 113.864 73.3254 113.535 73.3254 113.166C73.3254 112.877 73.3721 112.613 73.4654 112.375C73.5587 112.132 73.6894 111.925 73.8574 111.752C74.0301 111.579 74.2307 111.446 74.4594 111.353C74.6927 111.255 74.9471 111.206 75.2224 111.206C75.4837 111.206 75.7217 111.253 75.9364 111.346C76.1511 111.439 76.3377 111.57 76.4964 111.738C76.6551 111.906 76.7764 112.104 76.8604 112.333C76.9444 112.562 76.9841 112.811 76.9794 113.082L76.9724 113.39H74.0184L73.8504 112.753H76.0554L75.9364 112.879V112.739C75.9271 112.622 75.8897 112.522 75.8244 112.438C75.7637 112.349 75.6821 112.279 75.5794 112.228C75.4814 112.177 75.3694 112.151 75.2434 112.151C75.0567 112.151 74.8981 112.188 74.7674 112.263C74.6414 112.333 74.5457 112.436 74.4804 112.571C74.4151 112.706 74.3824 112.874 74.3824 113.075C74.3824 113.276 74.4244 113.453 74.5084 113.607C74.5971 113.761 74.7231 113.88 74.8864 113.964C75.0544 114.048 75.2527 114.09 75.4814 114.09C75.6354 114.09 75.7754 114.067 75.9014 114.02C76.0274 113.973 76.1627 113.894 76.3074 113.782L76.8324 114.524C76.6877 114.645 76.5337 114.748 76.3704 114.832C76.2071 114.911 76.0391 114.97 75.8664 115.007C75.6984 115.049 75.5281 115.07 75.3554 115.07ZM26.403 124V120.157H24.961V119.1H29.091V120.157H27.6V124H26.403ZM29.3969 124V120.283H30.4679L30.5169 121.494L30.3069 121.256C30.3676 121.06 30.4609 120.883 30.5869 120.724C30.7129 120.565 30.8622 120.439 31.0349 120.346C31.2122 120.253 31.3966 120.206 31.5879 120.206C31.6719 120.206 31.7489 120.213 31.8189 120.227C31.8936 120.236 31.9589 120.253 32.0149 120.276L31.7139 121.515C31.6626 121.487 31.5926 121.464 31.5039 121.445C31.4199 121.422 31.3312 121.41 31.2379 121.41C31.1352 121.41 31.0396 121.429 30.9509 121.466C30.8669 121.499 30.7922 121.548 30.7269 121.613C30.6662 121.678 30.6172 121.755 30.5799 121.844C30.5472 121.933 30.5309 122.033 30.5309 122.145V124H29.3969ZM34.4131 124V121.718C34.4131 121.527 34.3594 121.387 34.2521 121.298C34.1494 121.205 34.0047 121.158 33.8181 121.158C33.6361 121.158 33.4727 121.193 33.3281 121.263C33.1881 121.328 33.0527 121.438 32.9221 121.592L32.2501 120.941C32.4741 120.712 32.7307 120.533 33.0201 120.402C33.3094 120.271 33.6244 120.206 33.9651 120.206C34.2777 120.206 34.5484 120.253 34.7771 120.346C35.0057 120.439 35.1831 120.582 35.3091 120.773C35.4351 120.964 35.4981 121.207 35.4981 121.501V124H34.4131ZM33.4471 124.07C33.2137 124.07 33.0014 124.023 32.8101 123.93C32.6234 123.837 32.4741 123.708 32.3621 123.545C32.2547 123.377 32.2011 123.181 32.2011 122.957C32.2011 122.766 32.2361 122.598 32.3061 122.453C32.3761 122.308 32.4787 122.189 32.6141 122.096C32.7541 121.998 32.9267 121.926 33.1321 121.879C33.3421 121.828 33.5847 121.802 33.8601 121.802H34.9871L34.9241 122.509H33.8881C33.7901 122.509 33.7037 122.518 33.6291 122.537C33.5544 122.551 33.4914 122.577 33.4401 122.614C33.3887 122.647 33.3491 122.686 33.3211 122.733C33.2977 122.78 33.2861 122.836 33.2861 122.901C33.2861 122.971 33.3047 123.032 33.3421 123.083C33.3794 123.134 33.4284 123.174 33.4891 123.202C33.5544 123.23 33.6291 123.244 33.7131 123.244C33.8344 123.244 33.9487 123.225 34.0561 123.188C34.1681 123.146 34.2661 123.088 34.3501 123.013C34.4387 122.938 34.5087 122.852 34.5601 122.754L34.7561 123.258C34.6581 123.417 34.5391 123.557 34.3991 123.678C34.2637 123.799 34.1144 123.895 33.9511 123.965C33.7924 124.035 33.6244 124.07 33.4471 124.07ZM36.3969 124V120.283H37.4679L37.5099 121.039L37.2789 121.123C37.3302 120.955 37.4212 120.803 37.5519 120.668C37.6872 120.528 37.8482 120.416 38.0349 120.332C38.2216 120.248 38.4176 120.206 38.6229 120.206C38.9029 120.206 39.1386 120.264 39.3299 120.381C39.5212 120.493 39.6636 120.663 39.7569 120.892C39.8549 121.116 39.9039 121.394 39.9039 121.725V124H38.7769V121.809C38.7769 121.66 38.7559 121.536 38.7139 121.438C38.6719 121.34 38.6089 121.268 38.5249 121.221C38.4409 121.174 38.3359 121.153 38.2099 121.158C38.1119 121.158 38.0209 121.174 37.9369 121.207C37.8529 121.235 37.7782 121.279 37.7129 121.34C37.6522 121.396 37.6056 121.461 37.5729 121.536C37.5402 121.611 37.5239 121.695 37.5239 121.788V124H36.9569C36.8356 124 36.7259 124 36.6279 124C36.5346 124 36.4576 124 36.3969 124ZM42.1001 124.07C41.7454 124.07 41.4281 124.014 41.1481 123.902C40.8681 123.785 40.6441 123.627 40.4761 123.426L41.1621 122.838C41.3068 122.983 41.4701 123.09 41.6521 123.16C41.8341 123.225 42.0068 123.258 42.1701 123.258C42.2308 123.258 42.2844 123.251 42.3311 123.237C42.3778 123.223 42.4174 123.204 42.4501 123.181C42.4874 123.153 42.5154 123.123 42.5341 123.09C42.5528 123.053 42.5621 123.011 42.5621 122.964C42.5621 122.871 42.5224 122.801 42.4431 122.754C42.4058 122.731 42.3381 122.703 42.2401 122.67C42.1421 122.633 42.0161 122.595 41.8621 122.558C41.6428 122.502 41.4514 122.434 41.2881 122.355C41.1294 122.276 40.9988 122.185 40.8961 122.082C40.8028 121.989 40.7304 121.881 40.6791 121.76C40.6324 121.639 40.6091 121.503 40.6091 121.354C40.6091 121.125 40.6768 120.925 40.8121 120.752C40.9521 120.579 41.1341 120.446 41.3581 120.353C41.5821 120.255 41.8248 120.206 42.0861 120.206C42.2914 120.206 42.4851 120.229 42.6671 120.276C42.8538 120.323 43.0264 120.388 43.1851 120.472C43.3484 120.556 43.4931 120.656 43.6191 120.773L43.0241 121.438C42.9448 121.359 42.8514 121.289 42.7441 121.228C42.6368 121.163 42.5294 121.111 42.4221 121.074C42.3148 121.032 42.2144 121.011 42.1211 121.011C42.0511 121.011 41.9881 121.018 41.9321 121.032C41.8808 121.041 41.8364 121.06 41.7991 121.088C41.7664 121.111 41.7408 121.142 41.7221 121.179C41.7034 121.212 41.6941 121.249 41.6941 121.291C41.6941 121.342 41.7058 121.389 41.7291 121.431C41.7571 121.468 41.7944 121.503 41.8411 121.536C41.8831 121.559 41.9554 121.59 42.0581 121.627C42.1654 121.664 42.3054 121.706 42.4781 121.753C42.6974 121.814 42.8841 121.884 43.0381 121.963C43.1968 122.038 43.3228 122.126 43.4161 122.229C43.4954 122.308 43.5514 122.402 43.5841 122.509C43.6214 122.612 43.6401 122.724 43.6401 122.845C43.6401 123.083 43.5724 123.295 43.4371 123.482C43.3064 123.664 43.1244 123.809 42.8911 123.916C42.6624 124.019 42.3988 124.07 42.1001 124.07ZM44.3129 124V118.82H45.4399V124H44.3129ZM48.3515 124V121.718C48.3515 121.527 48.2979 121.387 48.1905 121.298C48.0879 121.205 47.9432 121.158 47.7565 121.158C47.5745 121.158 47.4112 121.193 47.2665 121.263C47.1265 121.328 46.9912 121.438 46.8605 121.592L46.1885 120.941C46.4125 120.712 46.6692 120.533 46.9585 120.402C47.2479 120.271 47.5629 120.206 47.9035 120.206C48.2162 120.206 48.4869 120.253 48.7155 120.346C48.9442 120.439 49.1215 120.582 49.2475 120.773C49.3735 120.964 49.4365 121.207 49.4365 121.501V124H48.3515ZM47.3855 124.07C47.1522 124.07 46.9399 124.023 46.7485 123.93C46.5619 123.837 46.4125 123.708 46.3005 123.545C46.1932 123.377 46.1395 123.181 46.1395 122.957C46.1395 122.766 46.1745 122.598 46.2445 122.453C46.3145 122.308 46.4172 122.189 46.5525 122.096C46.6925 121.998 46.8652 121.926 47.0705 121.879C47.2805 121.828 47.5232 121.802 47.7985 121.802H48.9255L48.8625 122.509H47.8265C47.7285 122.509 47.6422 122.518 47.5675 122.537C47.4929 122.551 47.4299 122.577 47.3785 122.614C47.3272 122.647 47.2875 122.686 47.2595 122.733C47.2362 122.78 47.2245 122.836 47.2245 122.901C47.2245 122.971 47.2432 123.032 47.2805 123.083C47.3179 123.134 47.3669 123.174 47.4275 123.202C47.4929 123.23 47.5675 123.244 47.6515 123.244C47.7729 123.244 47.8872 123.225 47.9945 123.188C48.1065 123.146 48.2045 123.088 48.2885 123.013C48.3772 122.938 48.4472 122.852 48.4985 122.754L48.6945 123.258C48.5965 123.417 48.4775 123.557 48.3375 123.678C48.2022 123.799 48.0529 123.895 47.8895 123.965C47.7309 124.035 47.5629 124.07 47.3855 124.07ZM50.6434 124V119.345H51.7704V124H50.6434ZM49.9854 121.27V120.283H52.4844V121.27H49.9854ZM54.8401 124.07C54.4574 124.07 54.1144 123.988 53.8111 123.825C53.5078 123.657 53.2698 123.428 53.0971 123.139C52.9244 122.845 52.8381 122.514 52.8381 122.145C52.8381 121.767 52.9244 121.433 53.0971 121.144C53.2698 120.85 53.5078 120.621 53.8111 120.458C54.1144 120.29 54.4574 120.206 54.8401 120.206C55.2274 120.206 55.5704 120.29 55.8691 120.458C56.1724 120.621 56.4104 120.85 56.5831 121.144C56.7558 121.433 56.8421 121.767 56.8421 122.145C56.8421 122.514 56.7558 122.845 56.5831 123.139C56.4104 123.428 56.1724 123.657 55.8691 123.825C55.5704 123.988 55.2274 124.07 54.8401 124.07ZM54.8401 123.104C55.0081 123.104 55.1551 123.062 55.2811 122.978C55.4118 122.894 55.5144 122.78 55.5891 122.635C55.6638 122.49 55.6988 122.327 55.6941 122.145C55.6988 121.954 55.6638 121.786 55.5891 121.641C55.5144 121.492 55.4118 121.377 55.2811 121.298C55.1551 121.214 55.0081 121.172 54.8401 121.172C54.6768 121.172 54.5298 121.214 54.3991 121.298C54.2684 121.382 54.1658 121.496 54.0911 121.641C54.0164 121.786 53.9791 121.954 53.9791 122.145C53.9791 122.327 54.0164 122.49 54.0911 122.635C54.1658 122.78 54.2684 122.894 54.3991 122.978C54.5298 123.062 54.6768 123.104 54.8401 123.104ZM57.5746 124V120.283H58.6456L58.6946 121.494L58.4846 121.256C58.5453 121.06 58.6386 120.883 58.7646 120.724C58.8906 120.565 59.04 120.439 59.2126 120.346C59.39 120.253 59.5743 120.206 59.7656 120.206C59.8496 120.206 59.9266 120.213 59.9966 120.227C60.0713 120.236 60.1366 120.253 60.1926 120.276L59.8916 121.515C59.8403 121.487 59.7703 121.464 59.6816 121.445C59.5976 121.422 59.509 121.41 59.4156 121.41C59.313 121.41 59.2173 121.429 59.1286 121.466C59.0446 121.499 58.97 121.548 58.9046 121.613C58.844 121.678 58.795 121.755 58.7576 121.844C58.725 121.933 58.7086 122.033 58.7086 122.145V124H57.5746Z" fill="white"/>
<circle cx="43.1563" cy="30.5869" r="23.9084" fill="#41518A"/>
<path d="M67.5647 31.0557L67.5646 30.5377L67.047 30.556L49.2629 31.1832L63.1978 17.3467L63.4723 17.0741L63.2774 16.74C61.5795 13.8292 58.7276 11.3746 55.6431 9.56472C52.5571 7.75407 49.1917 6.56133 46.4212 6.20758C40.9289 5.50631 35.3664 6.62978 30.6137 9.40178C25.8609 12.1739 22.1891 16.4365 20.1807 21.5163C18.1723 26.5961 17.9426 32.2015 19.5274 37.4453C21.1121 42.6889 24.4204 47.2706 28.9271 50.4669C33.4338 53.6631 38.8825 55.2921 44.4118 55.0967C49.9411 54.9014 55.2368 52.8926 59.4606 49.3865C61.6063 47.6054 63.627 44.6881 65.1103 41.4078C66.5952 38.1239 67.5646 34.4253 67.5647 31.0557ZM52.845 18.0999L39.7084 31.5202L27.577 31.9481C27.3428 29.5296 27.6812 27.0797 28.5838 24.7968C29.8624 21.563 32.2006 18.8474 35.2302 17.0804C38.2599 15.3133 41.8079 14.5961 45.3129 15.0436C47.1146 15.2737 48.4604 15.5154 49.668 15.9989C50.7486 16.4316 51.7401 17.0673 52.845 18.0999ZM31.0625 40.3529C30.4787 39.6415 29.9585 38.8812 29.5081 38.0806L33.3399 38.0262L31.0625 40.3529ZM44.0406 46.1928C41.2324 46.292 38.4569 45.6537 35.9914 44.361L42.5021 37.8963L57.875 37.6782C57.6776 38.0854 57.3579 38.6246 56.8982 39.246C56.1528 40.2537 55.0724 41.4323 53.6486 42.5428L53.6426 42.5475L53.6368 42.5524C50.9454 44.7865 47.5687 46.0682 44.0406 46.1928Z" fill="#E6AF2E" stroke="black"/>
</svg>
